<svg width="832" height="1701" xmlns="http://www.w3.org/2000/svg" style="margin-left:auto;margin-right:auto" display="block"><defs><clipPath id="c_1"><path d="M0 0h832v1701H0z"/></clipPath><style>text{white-space:pre}path{pointer-events:none}.s1{font-size:15.22px;font-family:LMSans10-Regular_g;fill:#000}.g0,.g1{stroke:#000;stroke-width:.608;stroke-linecap:butt;stroke-linejoin:miter}.g1{fill:none}</style></defs><path d="M0 0v1701h832V0z" fill="#FFF"/><g clip-path="url(#c_1)"><text x="119" y="12" class="s1">vertex</text><text x="405" y="12" class="s1">line</text><text x="679" y="12" class="s1">line3</text><path d="M136.5 22.2c0-2-1.6-3.6-3.6-3.6s-3.6 1.6-3.6 3.6c0 1.9 1.6 3.5 3.6 3.5s3.6-1.6 3.6-3.5z" class="g0"/><text x="140" y="40" class="s1">0</text><path d="M327.5 22.2c0-2-1.6-3.6-3.6-3.6s-3.6 1.6-3.6 3.6c0 1.9 1.6 3.5 3.6 3.5s3.6-1.6 3.6-3.5z" class="g0"/><text x="331" y="40" class="s1">0</text><path d="M500.7 22.2c0-2-1.6-3.6-3.6-3.6s-3.6 1.6-3.6 3.6c0 1.9 1.6 3.5 3.6 3.5s3.6-1.6 3.6-3.5z" class="g0"/><text x="505" y="40" class="s1">1</text><path d="M327.6 22.2h165.8" class="g1"/><path d="M605 22.2c0-2-1.6-3.6-3.5-3.6-2 0-3.6 1.6-3.6 3.6 0 1.9 1.6 3.5 3.6 3.5 1.9 0 3.5-1.6 3.5-3.5z" class="g0"/><text x="609" y="40" class="s1">0</text><path d="M778.3 22.2c0-2-1.6-3.6-3.6-3.6s-3.6 1.6-3.6 3.6c0 1.9 1.6 3.5 3.6 3.5s3.6-1.6 3.6-3.5z" class="g0"/><text x="782" y="40" class="s1">1</text><path d="M691.7 22.2c0-2-1.6-3.6-3.6-3.6s-3.6 1.6-3.6 3.6c0 1.9 1.6 3.5 3.6 3.5s3.6-1.6 3.6-3.5z" class="g0"/><text x="696" y="40" class="s1">2</text><path d="M605.2 22.2h79.1m7.5 0h79.1" class="g1"/><text x="115" y="78" class="s1">triangle</text><text x="388" y="78" class="s1">triangle6</text><text x="666" y="78" class="s1">triangle7</text><path d="M49.9 267.5c0-2-1.6-3.6-3.6-3.6s-3.6 1.6-3.6 3.6 1.6 3.6 3.6 3.6 3.6-1.6 3.6-3.6z" class="g0"/><text x="54" y="285" class="s1">0</text><path d="M223.1 267.5c0-2-1.6-3.6-3.6-3.6-1.9 0-3.6 1.6-3.6 3.6s1.7 3.6 3.6 3.6c2 0 3.6-1.6 3.6-3.6z" class="g0"/><text x="227" y="285" class="s1">1</text><path d="M49.9 94.3c0-2-1.6-3.6-3.6-3.6s-3.6 1.6-3.6 3.6c0 1.9 1.6 3.5 3.6 3.5s3.6-1.6 3.6-3.5z" class="g0"/><text x="55" y="99" class="s1">2</text><path d="M50 267.5h165.8m1.1-2.7L48.9 96.9M46.3 98v165.7" class="g1"/><path d="M327.5 267.5c0-2-1.6-3.6-3.6-3.6s-3.6 1.6-3.6 3.6 1.6 3.6 3.6 3.6 3.6-1.6 3.6-3.6z" class="g0"/><text x="331" y="285" class="s1">0</text><path d="M500.7 267.5c0-2-1.6-3.6-3.6-3.6s-3.6 1.6-3.6 3.6 1.6 3.6 3.6 3.6 3.6-1.6 3.6-3.6z" class="g0"/><text x="505" y="285" class="s1">1</text><path d="M327.5 94.3c0-2-1.6-3.6-3.6-3.6s-3.6 1.6-3.6 3.6c0 1.9 1.6 3.5 3.6 3.5s3.6-1.6 3.6-3.5z" class="g0"/><text x="332" y="99" class="s1">2</text><path d="M414.1 267.5c0-2-1.6-3.6-3.6-3.6s-3.6 1.6-3.6 3.6 1.6 3.6 3.6 3.6 3.6-1.6 3.6-3.6z" class="g0"/><text x="418" y="285" class="s1">3</text><path d="M414.1 180.9c0-2-1.6-3.6-3.6-3.6s-3.6 1.6-3.6 3.6c0 1.9 1.6 3.6 3.6 3.6s3.6-1.7 3.6-3.6z" class="g0"/><text x="419" y="185" class="s1">4</text><path d="M327.5 180.9c0-2-1.6-3.6-3.6-3.6s-3.6 1.6-3.6 3.6c0 1.9 1.6 3.6 3.6 3.6s3.6-1.7 3.6-3.6z" class="g0"/><text x="331" y="198" class="s1">5</text><path d="M327.6 267.5h79.2m7.4 0h79.2m1.1-2.7l-81.4-81.3m-5.2-5.3l-81.4-81.3m-2.6 1.1v79.1m0 7.5v79.1" class="g1"/><path d="M605 267.5c0-2-1.6-3.6-3.5-3.6-2 0-3.6 1.6-3.6 3.6s1.6 3.6 3.6 3.6c1.9 0 3.5-1.6 3.5-3.6z" class="g0"/><text x="609" y="285" class="s1">0</text><path d="M778.3 267.5c0-2-1.6-3.6-3.6-3.6s-3.6 1.6-3.6 3.6 1.6 3.6 3.6 3.6 3.6-1.6 3.6-3.6z" class="g0"/><text x="782" y="285" class="s1">1</text><path d="M605 94.3c0-2-1.6-3.6-3.5-3.6-2 0-3.6 1.6-3.6 3.6 0 1.9 1.6 3.5 3.6 3.5 1.9 0 3.5-1.6 3.5-3.5z" class="g0"/><text x="610" y="99" class="s1">2</text><path d="M691.7 267.5c0-2-1.6-3.6-3.6-3.6s-3.6 1.6-3.6 3.6 1.6 3.6 3.6 3.6 3.6-1.6 3.6-3.6z" class="g0"/><text x="696" y="285" class="s1">3</text><path d="M691.7 180.9c0-2-1.6-3.6-3.6-3.6s-3.6 1.6-3.6 3.6c0 1.9 1.6 3.6 3.6 3.6s3.6-1.7 3.6-3.6z" class="g0"/><text x="697" y="185" class="s1">4</text><path d="M605 180.9c0-2-1.6-3.6-3.5-3.6-2 0-3.6 1.6-3.6 3.6 0 1.9 1.6 3.6 3.6 3.6 1.9 0 3.5-1.7 3.5-3.6z" class="g0"/><text x="609" y="198" class="s1">5</text><path d="M648.4 224.2c0-2-1.7-3.6-3.6-3.6-2 0-3.6 1.6-3.6 3.6s1.6 3.6 3.6 3.6c1.9 0 3.6-1.6 3.6-3.6z" class="g0"/><text x="652" y="242" class="s1">6</text><path d="M605.2 267.5h79.1m7.5 0h79.1m1.1-2.7l-81.3-81.3m-5.3-5.3l-81.3-81.3m-2.6 1.1v79.1m0 7.5v79.1" class="g1"/><text x="123" y="324" class="s1">quad</text><text x="397" y="324" class="s1">quad8</text><text x="674" y="324" class="s1">quad9</text><path d="M49.9 506.6c0-1.9-1.6-3.5-3.6-3.5s-3.6 1.6-3.6 3.5c0 2 1.6 3.6 3.6 3.6s3.6-1.6 3.6-3.6z" class="g0"/><text x="54" y="524" class="s1">0</text><path d="M223.1 506.6c0-1.9-1.6-3.5-3.6-3.5-1.9 0-3.6 1.6-3.6 3.5 0 2 1.7 3.6 3.6 3.6 2 0 3.6-1.6 3.6-3.6z" class="g0"/><text x="227" y="524" class="s1">1</text><path d="M223.1 333.4c0-2-1.6-3.6-3.6-3.6-1.9 0-3.6 1.6-3.6 3.6s1.7 3.6 3.6 3.6c2 0 3.6-1.6 3.6-3.6z" class="g0"/><text x="227" y="351" class="s1">2</text><path d="M49.9 333.4c0-2-1.6-3.6-3.6-3.6s-3.6 1.6-3.6 3.6 1.6 3.6 3.6 3.6 3.6-1.6 3.6-3.6z" class="g0"/><text x="54" y="351" class="s1">3</text><path d="M50 506.6h165.8m3.7-3.7V337.2m-3.7-3.8H50m-3.7 3.8v165.7" class="g1"/><path d="M327.5 506.6c0-1.9-1.6-3.5-3.6-3.5s-3.6 1.6-3.6 3.5c0 2 1.6 3.6 3.6 3.6s3.6-1.6 3.6-3.6z" class="g0"/><text x="331" y="524" class="s1">0</text><path d="M500.7 506.6c0-1.9-1.6-3.5-3.6-3.5s-3.6 1.6-3.6 3.5c0 2 1.6 3.6 3.6 3.6s3.6-1.6 3.6-3.6z" class="g0"/><text x="505" y="524" class="s1">1</text><path d="M500.7 333.4c0-2-1.6-3.6-3.6-3.6s-3.6 1.6-3.6 3.6 1.6 3.6 3.6 3.6 3.6-1.6 3.6-3.6z" class="g0"/><text x="505" y="351" class="s1">2</text><path d="M327.5 333.4c0-2-1.6-3.6-3.6-3.6s-3.6 1.6-3.6 3.6 1.6 3.6 3.6 3.6 3.6-1.6 3.6-3.6z" class="g0"/><text x="331" y="351" class="s1">3</text><path d="M414.1 506.6c0-1.9-1.6-3.5-3.6-3.5s-3.6 1.6-3.6 3.5c0 2 1.6 3.6 3.6 3.6s3.6-1.6 3.6-3.6z" class="g0"/><text x="418" y="524" class="s1">4</text><path d="M500.7 420c0-2-1.6-3.6-3.6-3.6s-3.6 1.6-3.6 3.6 1.6 3.6 3.6 3.6 3.6-1.6 3.6-3.6z" class="g0"/><text x="505" y="438" class="s1">5</text><path d="M414.1 333.4c0-2-1.6-3.6-3.6-3.6s-3.6 1.6-3.6 3.6 1.6 3.6 3.6 3.6 3.6-1.6 3.6-3.6z" class="g0"/><text x="418" y="351" class="s1">6</text><path d="M327.5 420c0-2-1.6-3.6-3.6-3.6s-3.6 1.6-3.6 3.6 1.6 3.6 3.6 3.6 3.6-1.6 3.6-3.6z" class="g0"/><text x="331" y="438" class="s1">7</text><path d="M327.6 506.6h79.2m7.4 0h79.2m3.7-3.7v-79.1m0-7.5v-79.1m-3.7-3.8h-79.2m-7.4 0h-79.2m-3.7 3.8v79.1m0 7.5v79.1" class="g1"/><path d="M605 506.6c0-1.9-1.6-3.5-3.5-3.5-2 0-3.6 1.6-3.6 3.5 0 2 1.6 3.6 3.6 3.6 1.9 0 3.5-1.6 3.5-3.6z" class="g0"/><text x="609" y="524" class="s1">0</text><path d="M778.3 506.6c0-1.9-1.6-3.5-3.6-3.5s-3.6 1.6-3.6 3.5c0 2 1.6 3.6 3.6 3.6s3.6-1.6 3.6-3.6z" class="g0"/><text x="782" y="524" class="s1">1</text><path d="M778.3 333.4c0-2-1.6-3.6-3.6-3.6s-3.6 1.6-3.6 3.6 1.6 3.6 3.6 3.6 3.6-1.6 3.6-3.6z" class="g0"/><text x="782" y="351" class="s1">2</text><path d="M605 333.4c0-2-1.6-3.6-3.5-3.6-2 0-3.6 1.6-3.6 3.6s1.6 3.6 3.6 3.6c1.9 0 3.5-1.6 3.5-3.6z" class="g0"/><text x="609" y="351" class="s1">3</text><path d="M691.7 506.6c0-1.9-1.6-3.5-3.6-3.5s-3.6 1.6-3.6 3.5c0 2 1.6 3.6 3.6 3.6s3.6-1.6 3.6-3.6z" class="g0"/><text x="696" y="524" class="s1">4</text><path d="M778.3 420c0-2-1.6-3.6-3.6-3.6s-3.6 1.6-3.6 3.6 1.6 3.6 3.6 3.6 3.6-1.6 3.6-3.6z" class="g0"/><text x="782" y="438" class="s1">5</text><path d="M691.7 333.4c0-2-1.6-3.6-3.6-3.6s-3.6 1.6-3.6 3.6 1.6 3.6 3.6 3.6 3.6-1.6 3.6-3.6z" class="g0"/><text x="696" y="351" class="s1">6</text><path d="M605 420c0-2-1.6-3.6-3.5-3.6-2 0-3.6 1.6-3.6 3.6s1.6 3.6 3.6 3.6c1.9 0 3.5-1.6 3.5-3.6z" class="g0"/><text x="609" y="438" class="s1">7</text><path d="M691.7 420c0-2-1.6-3.6-3.6-3.6s-3.6 1.6-3.6 3.6 1.6 3.6 3.6 3.6 3.6-1.6 3.6-3.6z" class="g0"/><text x="696" y="438" class="s1">8</text><path d="M605.2 506.6h79.1m7.5 0h79.1m3.8-3.7v-79.1m0-7.5v-79.1m-3.8-3.8h-79.1m-7.5 0h-79.1m-3.7 3.8v79.1m0 7.5v79.1" class="g1"/><text x="123" y="563" class="s1">tetra</text><text x="393" y="563" class="s1">tetra10</text><text x="657" y="563" class="s1">hexahedron</text><path d="M84.7 755.6c0-2-1.6-3.6-3.5-3.6-2 0-3.6 1.6-3.6 3.6s1.6 3.6 3.6 3.6c1.9 0 3.5-1.6 3.5-3.6z" class="g0"/><text x="89" y="773" class="s1">0</text><path d="M25.5 811.3c0-2-1.6-3.6-3.6-3.6s-3.6 1.6-3.6 3.6 1.6 3.6 3.6 3.6 3.6-1.6 3.6-3.6z" class="g0"/><text x="29" y="829" class="s1">1</text><path d="M247.5 775.9c0-2-1.6-3.6-3.6-3.6-1.9 0-3.6 1.6-3.6 3.6s1.7 3.6 3.6 3.6c2 0 3.6-1.6 3.6-3.6z" class="g0"/><text x="251" y="793" class="s1">2</text><path d="M84.7 592.8c0-1.9-1.6-3.6-3.5-3.6-2 0-3.6 1.7-3.6 3.6 0 2 1.6 3.6 3.6 3.6 1.9 0 3.5-1.6 3.5-3.6z" class="g0"/><text x="90" y="597" class="s1">3</text><path d="M78.4 758.2l-53.8 50.5m1 2l214.6-34.2m0-1.1L84.9 756.1m-3.7-4.2V596.6M22.9 807.7l57.3-211.3m161.3 176.7L83.6 595.6" class="g1"/><path d="M362.3 755.6c0-2-1.6-3.6-3.6-3.6s-3.6 1.6-3.6 3.6 1.6 3.6 3.6 3.6 3.6-1.6 3.6-3.6z" class="g0"/><text x="366" y="773" class="s1">0</text><path d="M303.1 811.3c0-2-1.6-3.6-3.6-3.6s-3.6 1.6-3.6 3.6 1.6 3.6 3.6 3.6 3.6-1.6 3.6-3.6z" class="g0"/><text x="307" y="829" class="s1">1</text><path d="M525.1 775.9c0-2-1.6-3.6-3.6-3.6s-3.6 1.6-3.6 3.6 1.6 3.6 3.6 3.6 3.6-1.6 3.6-3.6z" class="g0"/><text x="529" y="793" class="s1">2</text><path d="M362.3 592.8c0-1.9-1.6-3.6-3.6-3.6s-3.6 1.7-3.6 3.6c0 2 1.6 3.6 3.6 3.6s3.6-1.6 3.6-3.6z" class="g0"/><text x="367" y="597" class="s1">3</text><path d="M332.7 783.5c0-2-1.6-3.6-3.6-3.6s-3.6 1.6-3.6 3.6c0 1.9 1.6 3.5 3.6 3.5s3.6-1.6 3.6-3.5z" class="g0"/><text x="337" y="801" class="s1">4</text><path d="M414.1 793.6c0-2-1.6-3.6-3.6-3.6s-3.6 1.6-3.6 3.6 1.6 3.6 3.6 3.6 3.6-1.6 3.6-3.6z" class="g0"/><text x="418" y="811" class="s1">5</text><path d="M443.7 765.7c0-1.9-1.6-3.5-3.6-3.5s-3.6 1.6-3.6 3.5c0 2 1.6 3.6 3.6 3.6s3.6-1.6 3.6-3.6z" class="g0"/><text x="448" y="783" class="s1">6</text><path d="M362.3 674.2c0-2-1.6-3.6-3.6-3.6s-3.6 1.6-3.6 3.6 1.6 3.6 3.6 3.6 3.6-1.6 3.6-3.6z" class="g0"/><text x="366" y="692" class="s1">7</text><path d="M332.7 702.1c0-2-1.6-3.6-3.6-3.6s-3.6 1.6-3.6 3.6c0 1.9 1.6 3.5 3.6 3.5s3.6-1.6 3.6-3.5z" class="g0"/><text x="337" y="720" class="s1">8</text><path d="M443.7 684.4c0-2-1.6-3.6-3.6-3.6s-3.6 1.6-3.6 3.6c0 1.9 1.6 3.5 3.6 3.5s3.6-1.6 3.6-3.5z" class="g0"/><text x="449" y="689" class="s1">9</text><path d="M356 758.2l-24.2 22.7m-5.4 5.1l-24.2 22.7m1 2l103.6-16.5m7.4-1.2l103.6-16.5m0-1.1l-74-9.2m-7.4-.9l-74-9.2m-3.7-4.2V678m0-7.5v-73.9m-58.2 211.1l27.6-102m2-7.2l27.6-102.1M519 773.1l-76.4-86m-5-5.5l-76.4-86" class="g1"/><path d="M639.9 735.4c0-2-1.6-3.6-3.6-3.6s-3.6 1.6-3.6 3.6c0 1.9 1.6 3.5 3.6 3.5s3.6-1.6 3.6-3.5z" class="g0"/><text x="644" y="753" class="s1">0</text><path d="M580.6 791c0-2-1.6-3.6-3.5-3.6-2 0-3.6 1.6-3.6 3.6s1.6 3.6 3.6 3.6c1.9 0 3.5-1.6 3.5-3.6z" class="g0"/><text x="585" y="809" class="s1">1</text><path d="M743.4 811.3c0-2-1.6-3.6-3.6-3.6-1.9 0-3.5 1.6-3.5 3.6s1.6 3.6 3.5 3.6c2 0 3.6-1.6 3.6-3.6z" class="g0"/><text x="747" y="829" class="s1">2</text><path d="M802.7 755.6c0-2-1.6-3.6-3.6-3.6s-3.6 1.6-3.6 3.6 1.6 3.6 3.6 3.6 3.6-1.6 3.6-3.6z" class="g0"/><text x="807" y="773" class="s1">3</text><path d="M639.9 572.6c0-2-1.6-3.6-3.6-3.6s-3.6 1.6-3.6 3.6 1.6 3.6 3.6 3.6 3.6-1.6 3.6-3.6z" class="g0"/><text x="644" y="590" class="s1">4</text><path d="M580.6 628.2c0-1.9-1.6-3.5-3.5-3.5-2 0-3.6 1.6-3.6 3.5 0 2 1.6 3.6 3.6 3.6 1.9 0 3.5-1.6 3.5-3.6z" class="g0"/><text x="585" y="646" class="s1">5</text><path d="M743.4 648.5c0-2-1.6-3.6-3.6-3.6-1.9 0-3.5 1.6-3.5 3.6s1.6 3.6 3.5 3.6c2 0 3.6-1.6 3.6-3.6z" class="g0"/><text x="747" y="666" class="s1">6</text><path d="M802.7 592.8c0-1.9-1.6-3.6-3.6-3.6s-3.6 1.7-3.6 3.6c0 2 1.6 3.6 3.6 3.6s3.6-1.6 3.6-3.6z" class="g0"/><text x="807" y="610" class="s1">7</text><path d="M633.6 737.9l-53.8 50.6m1 3l155.3 19.3m6.5-2.1l53.8-50.5m-1-3L640 735.8m-6.4-160.7l-53.8 50.6m1 3L736.1 648m6.5-2.1l53.8-50.5m-1-3L640 573m-3.7 158.6V576.3m-59.2 211V632m162.7 175.6V652.2m59.3 99.7V596.6" class="g1"/><text x="95" y="867" class="s1">hexahedron20</text><text x="372" y="867" class="s1">hexahedron24</text><text x="650" y="867" class="s1">hexahedron27</text><path d="M80.9 1040c0-2-1.6-3.6-3.6-3.6-1.9 0-3.5 1.6-3.5 3.6s1.6 3.6 3.5 3.6c2 0 3.6-1.6 3.6-3.6z" class="g0"/><text x="85" y="1058" class="s1">0</text><path d="M21.7 1095.7c0-2-1.6-3.6-3.6-3.6s-3.6 1.6-3.6 3.6 1.6 3.6 3.6 3.6 3.6-1.6 3.6-3.6z" class="g0"/><text x="26" y="1113" class="s1">1</text><path d="M184.5 1115.9c0-1.9-1.6-3.5-3.6-3.5s-3.6 1.6-3.6 3.5c0 2 1.6 3.6 3.6 3.6s3.6-1.6 3.6-3.6z" class="g0"/><text x="188" y="1133" class="s1">2</text><path d="M243.7 1060.3c0-2-1.6-3.6-3.6-3.6s-3.6 1.6-3.6 3.6c0 1.9 1.6 3.6 3.6 3.6s3.6-1.7 3.6-3.6z" class="g0"/><text x="248" y="1078" class="s1">3</text><path d="M80.9 877.2c0-2-1.6-3.6-3.6-3.6-1.9 0-3.5 1.6-3.5 3.6s1.6 3.6 3.5 3.6c2 0 3.6-1.6 3.6-3.6z" class="g0"/><text x="85" y="895" class="s1">4</text><path d="M21.7 932.9c0-2-1.6-3.6-3.6-3.6s-3.6 1.6-3.6 3.6 1.6 3.6 3.6 3.6 3.6-1.6 3.6-3.6z" class="g0"/><text x="26" y="950" class="s1">5</text><path d="M184.5 953.2c0-2-1.6-3.6-3.6-3.6s-3.6 1.6-3.6 3.6c0 1.9 1.6 3.5 3.6 3.5s3.6-1.6 3.6-3.5z" class="g0"/><text x="188" y="971" class="s1">6</text><path d="M243.7 897.5c0-2-1.6-3.6-3.6-3.6s-3.6 1.6-3.6 3.6 1.6 3.6 3.6 3.6 3.6-1.6 3.6-3.6z" class="g0"/><text x="248" y="915" class="s1">7</text><path d="M51.3 1067.8c0-1.9-1.6-3.5-3.6-3.5s-3.6 1.6-3.6 3.5c0 2 1.6 3.6 3.6 3.6s3.6-1.6 3.6-3.6z" class="g0"/><text x="55" y="1085" class="s1">8</text><path d="M103.1 1105.8c0-2-1.6-3.6-3.6-3.6s-3.6 1.6-3.6 3.6 1.6 3.6 3.6 3.6 3.6-1.6 3.6-3.6z" class="g0"/><text x="107" y="1123" class="s1">9</text><path d="M214.1 1088.1c0-2-1.6-3.6-3.6-3.6s-3.6 1.6-3.6 3.6 1.6 3.6 3.6 3.6 3.6-1.6 3.6-3.6z" class="g0"/><text x="218" y="1106" class="s1">10</text><path d="M162.3 1050.1c0-1.9-1.6-3.6-3.6-3.6-1.9 0-3.5 1.7-3.5 3.6 0 2 1.6 3.6 3.5 3.6 2 0 3.6-1.6 3.6-3.6z" class="g0"/><text x="166" y="1068" class="s1">11</text><path d="M51.3 905.1c0-2-1.6-3.6-3.6-3.6s-3.6 1.6-3.6 3.6c0 1.9 1.6 3.5 3.6 3.5s3.6-1.6 3.6-3.5z" class="g0"/><text x="55" y="923" class="s1">12</text><path d="M103.1 943c0-2-1.6-3.6-3.6-3.6s-3.6 1.6-3.6 3.6 1.6 3.6 3.6 3.6 3.6-1.6 3.6-3.6z" class="g0"/><text x="107" y="961" class="s1">13</text><path d="M214.1 925.3c0-2-1.6-3.6-3.6-3.6s-3.6 1.6-3.6 3.6 1.6 3.6 3.6 3.6 3.6-1.6 3.6-3.6z" class="g0"/><text x="218" y="943" class="s1">14</text><path d="M162.3 887.4c0-2-1.6-3.6-3.6-3.6-1.9 0-3.5 1.6-3.5 3.6 0 1.9 1.6 3.5 3.5 3.5 2 0 3.6-1.6 3.6-3.5z" class="g0"/><text x="166" y="905" class="s1">15</text><path d="M80.9 958.6c0-2-1.6-3.6-3.6-3.6-1.9 0-3.5 1.6-3.5 3.6s1.6 3.6 3.5 3.6c2 0 3.6-1.6 3.6-3.6z" class="g0"/><text x="85" y="976" class="s1">16</text><path d="M21.7 1014.3c0-2-1.6-3.6-3.6-3.6s-3.6 1.6-3.6 3.6 1.6 3.6 3.6 3.6 3.6-1.6 3.6-3.6z" class="g0"/><text x="26" y="1032" class="s1">17</text><path d="M184.5 1034.5c0-1.9-1.6-3.5-3.6-3.5s-3.6 1.6-3.6 3.5c0 2 1.6 3.6 3.6 3.6s3.6-1.6 3.6-3.6z" class="g0"/><text x="188" y="1052" class="s1">18</text><path d="M243.7 978.9c0-2-1.6-3.6-3.6-3.6s-3.6 1.6-3.6 3.6 1.6 3.6 3.6 3.6 3.6-1.6 3.6-3.6z" class="g0"/><text x="248" y="996" class="s1">19</text><path d="M74.6 1042.6l-24.2 22.7m-5.4 5.1l-24.2 22.7m1 3l74 9.2m7.4 1l74 9.2m6.4-2.1l24.2-22.7m5.4-5.2l24.2-22.7m-1-3l-74-9.2m-7.4-.9l-73.9-9.2m-6.5-160.7l-24.2 22.7m-5.4 5.1l-24.2 22.7m1 3.1l74 9.2m7.4.9l74 9.2m6.4-2.1l24.2-22.7m5.4-5.1l24.2-22.8m-1-3l-74-9.2m-7.4-.9l-73.9-9.2m-3.8 158.6v-73.9m0-7.5V881m-59.2 210.9V1018m0-7.5v-73.9m162.8 175.6v-73.9m0-7.5v-73.9m59.2 99.6v-73.9m0-7.5v-73.9" class="g1"/><path d="M358.5 1040c0-2-1.6-3.6-3.6-3.6s-3.6 1.6-3.6 3.6 1.6 3.6 3.6 3.6 3.6-1.6 3.6-3.6z" class="g0"/><text x="362" y="1058" class="s1">0</text><path d="M299.3 1095.7c0-2-1.6-3.6-3.6-3.6s-3.6 1.6-3.6 3.6 1.6 3.6 3.6 3.6 3.6-1.6 3.6-3.6z" class="g0"/><text x="303" y="1113" class="s1">1</text><path d="M462 1115.9c0-1.9-1.6-3.5-3.5-3.5-2 0-3.6 1.6-3.6 3.5 0 2 1.6 3.6 3.6 3.6 1.9 0 3.5-1.6 3.5-3.6z" class="g0"/><text x="466" y="1133" class="s1">2</text><path d="M521.3 1060.3c0-2-1.6-3.6-3.6-3.6s-3.6 1.6-3.6 3.6c0 1.9 1.6 3.6 3.6 3.6s3.6-1.7 3.6-3.6z" class="g0"/><text x="525" y="1078" class="s1">3</text><path d="M358.5 877.2c0-2-1.6-3.6-3.6-3.6s-3.6 1.6-3.6 3.6 1.6 3.6 3.6 3.6 3.6-1.6 3.6-3.6z" class="g0"/><text x="362" y="895" class="s1">4</text><path d="M299.3 932.9c0-2-1.6-3.6-3.6-3.6s-3.6 1.6-3.6 3.6 1.6 3.6 3.6 3.6 3.6-1.6 3.6-3.6z" class="g0"/><text x="303" y="950" class="s1">5</text><path d="M462 953.2c0-2-1.6-3.6-3.5-3.6-2 0-3.6 1.6-3.6 3.6 0 1.9 1.6 3.5 3.6 3.5 1.9 0 3.5-1.6 3.5-3.5z" class="g0"/><text x="466" y="971" class="s1">6</text><path d="M521.3 897.5c0-2-1.6-3.6-3.6-3.6s-3.6 1.6-3.6 3.6 1.6 3.6 3.6 3.6 3.6-1.6 3.6-3.6z" class="g0"/><text x="525" y="915" class="s1">7</text><path d="M328.9 1067.8c0-1.9-1.6-3.5-3.6-3.5s-3.6 1.6-3.6 3.5c0 2 1.6 3.6 3.6 3.6s3.6-1.6 3.6-3.6z" class="g0"/><text x="333" y="1085" class="s1">8</text><path d="M380.7 1105.8c0-2-1.7-3.6-3.6-3.6-2 0-3.6 1.6-3.6 3.6s1.6 3.6 3.6 3.6c1.9 0 3.6-1.6 3.6-3.6z" class="g0"/><text x="385" y="1123" class="s1">9</text><path d="M491.7 1088.1c0-2-1.6-3.6-3.6-3.6s-3.6 1.6-3.6 3.6 1.6 3.6 3.6 3.6 3.6-1.6 3.6-3.6z" class="g0"/><text x="496" y="1106" class="s1">10</text><path d="M439.9 1050.1c0-1.9-1.6-3.6-3.6-3.6s-3.6 1.7-3.6 3.6c0 2 1.6 3.6 3.6 3.6s3.6-1.6 3.6-3.6z" class="g0"/><text x="444" y="1068" class="s1">11</text><path d="M328.9 905.1c0-2-1.6-3.6-3.6-3.6s-3.6 1.6-3.6 3.6c0 1.9 1.6 3.5 3.6 3.5s3.6-1.6 3.6-3.5z" class="g0"/><text x="333" y="923" class="s1">12</text><path d="M380.7 943c0-2-1.7-3.6-3.6-3.6-2 0-3.6 1.6-3.6 3.6s1.6 3.6 3.6 3.6c1.9 0 3.6-1.6 3.6-3.6z" class="g0"/><text x="385" y="961" class="s1">13</text><path d="M491.7 925.3c0-2-1.6-3.6-3.6-3.6s-3.6 1.6-3.6 3.6 1.6 3.6 3.6 3.6 3.6-1.6 3.6-3.6z" class="g0"/><text x="496" y="943" class="s1">14</text><path d="M439.9 887.4c0-2-1.6-3.6-3.6-3.6s-3.6 1.6-3.6 3.6c0 1.9 1.6 3.5 3.6 3.5s3.6-1.6 3.6-3.5z" class="g0"/><text x="444" y="905" class="s1">15</text><path d="M358.5 958.6c0-2-1.6-3.6-3.6-3.6s-3.6 1.6-3.6 3.6 1.6 3.6 3.6 3.6 3.6-1.6 3.6-3.6z" class="g0"/><text x="362" y="976" class="s1">16</text><path d="M299.3 1014.3c0-2-1.6-3.6-3.6-3.6s-3.6 1.6-3.6 3.6 1.6 3.6 3.6 3.6 3.6-1.6 3.6-3.6z" class="g0"/><text x="303" y="1032" class="s1">17</text><path d="M462 1034.5c0-1.9-1.6-3.5-3.5-3.5-2 0-3.6 1.6-3.6 3.5 0 2 1.6 3.6 3.6 3.6 1.9 0 3.5-1.6 3.5-3.6z" class="g0"/><text x="466" y="1052" class="s1">18</text><path d="M521.3 978.9c0-2-1.6-3.6-3.6-3.6s-3.6 1.6-3.6 3.6 1.6 3.6 3.6 3.6 3.6-1.6 3.6-3.6z" class="g0"/><text x="525" y="996" class="s1">19</text><path d="M439.9 968.7c0-1.9-1.6-3.5-3.6-3.5s-3.6 1.6-3.6 3.5c0 2 1.6 3.6 3.6 3.6s3.6-1.6 3.6-3.6z" class="g0"/><text x="444" y="986" class="s1">20</text><path d="M380.7 1024.4c0-2-1.7-3.6-3.6-3.6-2 0-3.6 1.6-3.6 3.6s1.6 3.6 3.6 3.6c1.9 0 3.6-1.6 3.6-3.6z" class="g0"/><text x="385" y="1042" class="s1">21</text><path d="M328.9 986.4c0-1.9-1.6-3.5-3.6-3.5s-3.6 1.6-3.6 3.5c0 2 1.6 3.6 3.6 3.6s3.6-1.6 3.6-3.6z" class="g0"/><text x="333" y="1004" class="s1">22</text><path d="M491.7 1006.7c0-2-1.6-3.6-3.6-3.6s-3.6 1.6-3.6 3.6 1.6 3.6 3.6 3.6 3.6-1.6 3.6-3.6z" class="g0"/><text x="496" y="1024" class="s1">23</text><path d="M352.2 1042.6l-24.2 22.7m-5.4 5.1l-24.2 22.7m1 3l74 9.2m7.4 1l73.9 9.2m6.5-2.1l24.2-22.7m5.4-5.2l24.2-22.7m-1-3l-74-9.2m-7.4-.9l-74-9.2m-6.4-160.7L328 902.5m-5.4 5.1l-24.2 22.7m1 3.1l74 9.2m7.4.9l73.9 9.2m6.5-2.1l24.2-22.7m5.4-5.1L515 900m-1-3l-74-9.2m-7.4-.9l-74-9.2m-3.7 158.6v-73.9m0-7.5V881m-59.2 210.9V1018m0-7.5v-73.9m162.8 175.6v-73.9m0-7.5v-73.9m59.2 99.6v-73.9m0-7.5v-73.9" class="g1"/><path d="M636.1 1040c0-2-1.6-3.6-3.6-3.6s-3.6 1.6-3.6 3.6 1.6 3.6 3.6 3.6 3.6-1.6 3.6-3.6z" class="g0"/><text x="640" y="1058" class="s1">0</text><path d="M576.8 1095.7c0-2-1.6-3.6-3.6-3.6-1.9 0-3.5 1.6-3.5 3.6s1.6 3.6 3.5 3.6c2 0 3.6-1.6 3.6-3.6z" class="g0"/><text x="581" y="1113" class="s1">1</text><path d="M739.6 1115.9c0-1.9-1.6-3.5-3.6-3.5-1.9 0-3.6 1.6-3.6 3.5 0 2 1.7 3.6 3.6 3.6 2 0 3.6-1.6 3.6-3.6z" class="g0"/><text x="744" y="1133" class="s1">2</text><path d="M798.9 1060.3c0-2-1.6-3.6-3.6-3.6s-3.6 1.6-3.6 3.6c0 1.9 1.6 3.6 3.6 3.6s3.6-1.7 3.6-3.6z" class="g0"/><text x="803" y="1078" class="s1">3</text><path d="M636.1 877.2c0-2-1.6-3.6-3.6-3.6s-3.6 1.6-3.6 3.6 1.6 3.6 3.6 3.6 3.6-1.6 3.6-3.6z" class="g0"/><text x="640" y="895" class="s1">4</text><path d="M576.8 932.9c0-2-1.6-3.6-3.6-3.6-1.9 0-3.5 1.6-3.5 3.6s1.6 3.6 3.5 3.6c2 0 3.6-1.6 3.6-3.6z" class="g0"/><text x="581" y="950" class="s1">5</text><path d="M739.6 953.2c0-2-1.6-3.6-3.6-3.6-1.9 0-3.6 1.6-3.6 3.6 0 1.9 1.7 3.5 3.6 3.5 2 0 3.6-1.6 3.6-3.5z" class="g0"/><text x="744" y="971" class="s1">6</text><path d="M798.9 897.5c0-2-1.6-3.6-3.6-3.6s-3.6 1.6-3.6 3.6 1.6 3.6 3.6 3.6 3.6-1.6 3.6-3.6z" class="g0"/><text x="803" y="915" class="s1">7</text><path d="M606.5 1067.8c0-1.9-1.6-3.5-3.6-3.5s-3.6 1.6-3.6 3.5c0 2 1.6 3.6 3.6 3.6s3.6-1.6 3.6-3.6z" class="g0"/><text x="610" y="1085" class="s1">8</text><path d="M658.2 1105.8c0-2-1.6-3.6-3.6-3.6-1.9 0-3.5 1.6-3.5 3.6s1.6 3.6 3.5 3.6c2 0 3.6-1.6 3.6-3.6z" class="g0"/><text x="662" y="1123" class="s1">9</text><path d="M769.2 1088.1c0-2-1.6-3.6-3.5-3.6-2 0-3.6 1.6-3.6 3.6s1.6 3.6 3.6 3.6c1.9 0 3.5-1.6 3.5-3.6z" class="g0"/><text x="773" y="1106" class="s1">10</text><path d="M717.5 1050.1c0-1.9-1.6-3.6-3.6-3.6s-3.6 1.7-3.6 3.6c0 2 1.6 3.6 3.6 3.6s3.6-1.6 3.6-3.6z" class="g0"/><text x="721" y="1068" class="s1">11</text><path d="M606.5 905.1c0-2-1.6-3.6-3.6-3.6s-3.6 1.6-3.6 3.6c0 1.9 1.6 3.5 3.6 3.5s3.6-1.6 3.6-3.5z" class="g0"/><text x="610" y="923" class="s1">12</text><path d="M658.2 943c0-2-1.6-3.6-3.6-3.6-1.9 0-3.5 1.6-3.5 3.6s1.6 3.6 3.5 3.6c2 0 3.6-1.6 3.6-3.6z" class="g0"/><text x="662" y="961" class="s1">13</text><path d="M769.2 925.3c0-2-1.6-3.6-3.5-3.6-2 0-3.6 1.6-3.6 3.6s1.6 3.6 3.6 3.6c1.9 0 3.5-1.6 3.5-3.6z" class="g0"/><text x="773" y="943" class="s1">14</text><path d="M717.5 887.4c0-2-1.6-3.6-3.6-3.6s-3.6 1.6-3.6 3.6c0 1.9 1.6 3.5 3.6 3.5s3.6-1.6 3.6-3.5z" class="g0"/><text x="721" y="905" class="s1">15</text><path d="M636.1 958.6c0-2-1.6-3.6-3.6-3.6s-3.6 1.6-3.6 3.6 1.6 3.6 3.6 3.6 3.6-1.6 3.6-3.6z" class="g0"/><text x="640" y="976" class="s1">16</text><path d="M576.8 1014.3c0-2-1.6-3.6-3.6-3.6-1.9 0-3.5 1.6-3.5 3.6s1.6 3.6 3.5 3.6c2 0 3.6-1.6 3.6-3.6z" class="g0"/><text x="581" y="1032" class="s1">17</text><path d="M739.6 1034.5c0-1.9-1.6-3.5-3.6-3.5-1.9 0-3.6 1.6-3.6 3.5 0 2 1.7 3.6 3.6 3.6 2 0 3.6-1.6 3.6-3.6z" class="g0"/><text x="744" y="1052" class="s1">18</text><path d="M798.9 978.9c0-2-1.6-3.6-3.6-3.6s-3.6 1.6-3.6 3.6 1.6 3.6 3.6 3.6 3.6-1.6 3.6-3.6z" class="g0"/><text x="803" y="996" class="s1">19</text><path d="M717.5 968.7c0-1.9-1.6-3.5-3.6-3.5s-3.6 1.6-3.6 3.5c0 2 1.6 3.6 3.6 3.6s3.6-1.6 3.6-3.6z" class="g0"/><text x="721" y="986" class="s1">20</text><path d="M658.2 1024.4c0-2-1.6-3.6-3.6-3.6-1.9 0-3.5 1.6-3.5 3.6s1.6 3.6 3.5 3.6c2 0 3.6-1.6 3.6-3.6z" class="g0"/><text x="662" y="1042" class="s1">21</text><path d="M606.5 986.4c0-1.9-1.6-3.5-3.6-3.5s-3.6 1.6-3.6 3.5c0 2 1.6 3.6 3.6 3.6s3.6-1.6 3.6-3.6z" class="g0"/><text x="610" y="1004" class="s1">22</text><path d="M769.2 1006.7c0-2-1.6-3.6-3.5-3.6-2 0-3.6 1.6-3.6 3.6s1.6 3.6 3.6 3.6c1.9 0 3.5-1.6 3.5-3.6z" class="g0"/><text x="773" y="1024" class="s1">23</text><path d="M687.9 1078c0-2-1.7-3.6-3.6-3.6-2 0-3.6 1.6-3.6 3.6s1.6 3.6 3.6 3.6c1.9 0 3.6-1.6 3.6-3.6z" class="g0"/><text x="692" y="1095" class="s1">24</text><path d="M687.9 915.2c0-2-1.7-3.6-3.6-3.6-2 0-3.6 1.6-3.6 3.6s1.6 3.6 3.6 3.6c1.9 0 3.6-1.6 3.6-3.6z" class="g0"/><text x="692" y="933" class="s1">25</text><path d="M687.9 996.6c0-2-1.7-3.6-3.6-3.6-2 0-3.6 1.6-3.6 3.6s1.6 3.6 3.6 3.6c1.9 0 3.6-1.6 3.6-3.6z" class="g0"/><text x="692" y="1014" class="s1">26</text><path d="M629.8 1042.6l-24.2 22.7m-5.5 5.1l-24.1 22.7m1 3l73.9 9.2m7.5 1l73.9 9.2m6.5-2.1l24.1-22.7m5.5-5.2l24.2-22.7m-1-3l-74-9.2m-7.4-.9l-74-9.2m-6.4-160.7l-24.2 22.7m-5.5 5.1L576 930.3m1 3.1l73.9 9.2m7.5.9l73.9 9.2m6.5-2.1l24.1-22.7m5.5-5.1l24.2-22.8m-1-3l-74-9.2m-7.4-.9l-74-9.2m-3.7 158.6v-73.9m0-7.5V881m-59.3 210.9V1018m0-7.5v-73.9M736 1112.2v-73.9m0-7.5v-73.9m59.3 99.6v-73.9m0-7.5v-73.9" class="g1"/><text x="119" y="1172" dx="0,-.4,0,0,0" class="s1">wedge</text><text x="389" y="1172" dx="0,-.4,0,0,0,0,0" class="s1">wedge12</text><text x="666" y="1172" dx="0,-.4,0,0,0,0,0" class="s1">wedge15</text><path d="M84.7 1344.7c0-2-1.6-3.6-3.5-3.6-2 0-3.6 1.6-3.6 3.6 0 1.9 1.6 3.5 3.6 3.5 1.9 0 3.5-1.6 3.5-3.5z" class="g0"/><text x="89" y="1362" class="s1">0</text><path d="M25.5 1400.3c0-2-1.6-3.6-3.6-3.6s-3.6 1.6-3.6 3.6 1.6 3.6 3.6 3.6 3.6-1.6 3.6-3.6z" class="g0"/><text x="29" y="1418" class="s1">1</text><path d="M247.5 1364.9c0-2-1.6-3.6-3.6-3.6-1.9 0-3.6 1.6-3.6 3.6s1.7 3.6 3.6 3.6c2 0 3.6-1.6 3.6-3.6z" class="g0"/><text x="251" y="1382" class="s1">2</text><path d="M84.7 1181.9c0-2-1.6-3.6-3.5-3.6-2 0-3.6 1.6-3.6 3.6 0 1.9 1.6 3.6 3.6 3.6 1.9 0 3.5-1.7 3.5-3.6z" class="g0"/><text x="89" y="1199" class="s1">3</text><path d="M25.5 1237.5c0-1.9-1.6-3.5-3.6-3.5s-3.6 1.6-3.6 3.5c0 2 1.6 3.6 3.6 3.6s3.6-1.6 3.6-3.6z" class="g0"/><text x="29" y="1255" class="s1">4</text><path d="M247.5 1202.1c0-1.9-1.6-3.6-3.6-3.6-1.9 0-3.6 1.7-3.6 3.6 0 2 1.7 3.6 3.6 3.6 2 0 3.6-1.6 3.6-3.6z" class="g0"/><text x="251" y="1220" class="s1">5</text><path d="M78.4 1347.2l-53.8 50.6m1 1.9l214.6-34.2m0-1l-155.3-19.4m-6.5-160.7L24.6 1235m1 2l214.6-34.3m0-1l-155.3-19.4m-3.7 158.6v-155.3m-59.3 211v-155.3m222 119.9v-155.3" class="g1"/><path d="M362.3 1344.7c0-2-1.6-3.6-3.6-3.6s-3.6 1.6-3.6 3.6c0 1.9 1.6 3.5 3.6 3.5s3.6-1.6 3.6-3.5z" class="g0"/><text x="366" y="1362" class="s1">0</text><path d="M303.1 1400.3c0-2-1.6-3.6-3.6-3.6s-3.6 1.6-3.6 3.6 1.6 3.6 3.6 3.6 3.6-1.6 3.6-3.6z" class="g0"/><text x="307" y="1418" class="s1">1</text><path d="M525.1 1364.9c0-2-1.6-3.6-3.6-3.6s-3.6 1.6-3.6 3.6 1.6 3.6 3.6 3.6 3.6-1.6 3.6-3.6z" class="g0"/><text x="529" y="1382" class="s1">2</text><path d="M362.3 1181.9c0-2-1.6-3.6-3.6-3.6s-3.6 1.6-3.6 3.6c0 1.9 1.6 3.6 3.6 3.6s3.6-1.7 3.6-3.6z" class="g0"/><text x="366" y="1199" class="s1">3</text><path d="M303.1 1237.5c0-1.9-1.6-3.5-3.6-3.5s-3.6 1.6-3.6 3.5c0 2 1.6 3.6 3.6 3.6s3.6-1.6 3.6-3.6z" class="g0"/><text x="307" y="1255" class="s1">4</text><path d="M525.1 1202.1c0-1.9-1.6-3.6-3.6-3.6s-3.6 1.7-3.6 3.6c0 2 1.6 3.6 3.6 3.6s3.6-1.6 3.6-3.6z" class="g0"/><text x="529" y="1220" class="s1">5</text><path d="M332.7 1372.5c0-2-1.6-3.6-3.6-3.6s-3.6 1.6-3.6 3.6 1.6 3.6 3.6 3.6 3.6-1.6 3.6-3.6z" class="g0"/><text x="337" y="1390" class="s1">6</text><path d="M414.1 1382.6c0-2-1.6-3.6-3.6-3.6s-3.6 1.6-3.6 3.6 1.6 3.6 3.6 3.6 3.6-1.6 3.6-3.6z" class="g0"/><text x="418" y="1400" class="s1">7</text><path d="M443.7 1354.8c0-2-1.6-3.6-3.6-3.6s-3.6 1.6-3.6 3.6 1.6 3.6 3.6 3.6 3.6-1.6 3.6-3.6z" class="g0"/><text x="448" y="1372" class="s1">8</text><path d="M332.7 1209.7c0-2-1.6-3.6-3.6-3.6s-3.6 1.6-3.6 3.6 1.6 3.6 3.6 3.6 3.6-1.6 3.6-3.6z" class="g0"/><text x="337" y="1227" class="s1">9</text><path d="M414.1 1219.8c0-1.9-1.6-3.6-3.6-3.6s-3.6 1.7-3.6 3.6c0 2 1.6 3.6 3.6 3.6s3.6-1.6 3.6-3.6z" class="g0"/><text x="418" y="1237" class="s1">10</text><path d="M443.7 1192c0-2-1.6-3.6-3.6-3.6s-3.6 1.6-3.6 3.6 1.6 3.6 3.6 3.6 3.6-1.6 3.6-3.6z" class="g0"/><text x="448" y="1210" class="s1">11</text><path d="M356 1347.2l-24.2 22.7m-5.4 5.2l-24.2 22.7m1 1.9l103.6-16.5m7.4-1.2l103.6-16.5m0-1l-74-9.3m-7.4-.9l-74-9.2m-6.4-160.7l-24.2 22.7m-5.4 5.2l-24.2 22.7m1 2l103.6-16.6m7.4-1.2l103.6-16.5m0-1l-74-9.2m-7.4-1l-74-9.2m-3.7 158.6v-155.3m-59.2 211v-155.3m222 119.9v-155.3" class="g1"/><path d="M636.1 1344.7c0-2-1.6-3.6-3.6-3.6s-3.6 1.6-3.6 3.6c0 1.9 1.6 3.5 3.6 3.5s3.6-1.6 3.6-3.5z" class="g0"/><text x="640" y="1362" class="s1">0</text><path d="M576.8 1400.3c0-2-1.6-3.6-3.6-3.6-1.9 0-3.5 1.6-3.5 3.6s1.6 3.6 3.5 3.6c2 0 3.6-1.6 3.6-3.6z" class="g0"/><text x="581" y="1418" class="s1">1</text><path d="M798.9 1364.9c0-2-1.6-3.6-3.6-3.6s-3.6 1.6-3.6 3.6 1.6 3.6 3.6 3.6 3.6-1.6 3.6-3.6z" class="g0"/><text x="803" y="1382" class="s1">2</text><path d="M636.1 1181.9c0-2-1.6-3.6-3.6-3.6s-3.6 1.6-3.6 3.6c0 1.9 1.6 3.6 3.6 3.6s3.6-1.7 3.6-3.6z" class="g0"/><text x="640" y="1199" class="s1">3</text><path d="M576.8 1237.5c0-1.9-1.6-3.5-3.6-3.5-1.9 0-3.5 1.6-3.5 3.5 0 2 1.6 3.6 3.5 3.6 2 0 3.6-1.6 3.6-3.6z" class="g0"/><text x="581" y="1255" class="s1">4</text><path d="M798.9 1202.1c0-1.9-1.6-3.6-3.6-3.6s-3.6 1.7-3.6 3.6c0 2 1.6 3.6 3.6 3.6s3.6-1.6 3.6-3.6z" class="g0"/><text x="803" y="1220" class="s1">5</text><path d="M606.5 1372.5c0-2-1.6-3.6-3.6-3.6s-3.6 1.6-3.6 3.6 1.6 3.6 3.6 3.6 3.6-1.6 3.6-3.6z" class="g0"/><text x="610" y="1390" class="s1">6</text><path d="M687.9 1382.6c0-2-1.7-3.6-3.6-3.6-2 0-3.6 1.6-3.6 3.6s1.6 3.6 3.6 3.6c1.9 0 3.6-1.6 3.6-3.6z" class="g0"/><text x="692" y="1400" class="s1">7</text><path d="M717.5 1354.8c0-2-1.6-3.6-3.6-3.6s-3.6 1.6-3.6 3.6 1.6 3.6 3.6 3.6 3.6-1.6 3.6-3.6z" class="g0"/><text x="721" y="1372" class="s1">8</text><path d="M606.5 1209.7c0-2-1.6-3.6-3.6-3.6s-3.6 1.6-3.6 3.6 1.6 3.6 3.6 3.6 3.6-1.6 3.6-3.6z" class="g0"/><text x="610" y="1227" class="s1">9</text><path d="M687.9 1219.8c0-1.9-1.7-3.6-3.6-3.6-2 0-3.6 1.7-3.6 3.6 0 2 1.6 3.6 3.6 3.6 1.9 0 3.6-1.6 3.6-3.6z" class="g0"/><text x="692" y="1237" class="s1">10</text><path d="M717.5 1192c0-2-1.6-3.6-3.6-3.6s-3.6 1.6-3.6 3.6 1.6 3.6 3.6 3.6 3.6-1.6 3.6-3.6z" class="g0"/><text x="721" y="1210" class="s1">11</text><path d="M636.1 1263.3c0-2-1.6-3.6-3.6-3.6s-3.6 1.6-3.6 3.6c0 1.9 1.6 3.5 3.6 3.5s3.6-1.6 3.6-3.5z" class="g0"/><text x="640" y="1281" class="s1">12</text><path d="M576.8 1318.9c0-1.9-1.6-3.6-3.6-3.6-1.9 0-3.5 1.7-3.5 3.6 0 2 1.6 3.6 3.5 3.6 2 0 3.6-1.6 3.6-3.6z" class="g0"/><text x="581" y="1336" class="s1">13</text><path d="M798.9 1283.5c0-2-1.6-3.6-3.6-3.6s-3.6 1.6-3.6 3.6 1.6 3.6 3.6 3.6 3.6-1.6 3.6-3.6z" class="g0"/><text x="803" y="1301" class="s1">14</text><path d="M629.8 1347.2l-24.2 22.7m-5.5 5.2l-24.1 22.7m.9 1.9l103.7-16.5m7.4-1.2l103.6-16.5m0-1l-74-9.3m-7.4-.9l-74-9.2m-6.4-160.7l-24.2 22.7m-5.5 5.2L576 1235m.9 2l103.7-16.6m7.4-1.2l103.6-16.5m0-1l-74-9.2m-7.4-1l-74-9.2m-3.7 158.6V1267m0-7.5v-73.9m-59.3 211v-73.9m0-7.5v-73.9m222.1 119.9v-73.9m0-7.5v-73.9" class="g1"/><text x="113" y="1456" dx="0,-.4,0,0,0,0,0" class="s1">pyramid</text><text x="383" y="1456" dx="0,-.4,0,0,0,0,0,0,0" class="s1">pyramid13</text><text x="661" y="1456" dx="0,-.4,0,0,0,0,0,0,0" class="s1">pyramid14</text><path d="M84.7 1597.2c0-1.9-1.6-3.5-3.5-3.5-2 0-3.6 1.6-3.6 3.5 0 2 1.6 3.6 3.6 3.6 1.9 0 3.5-1.6 3.5-3.6z" class="g0"/><text x="89" y="1615" class="s1">0</text><path d="M25.5 1652.9c0-2-1.6-3.6-3.6-3.6s-3.6 1.6-3.6 3.6 1.6 3.6 3.6 3.6 3.6-1.6 3.6-3.6z" class="g0"/><text x="29" y="1670" class="s1">1</text><path d="M188.3 1673.2c0-2-1.6-3.6-3.6-3.6s-3.6 1.6-3.6 3.6 1.6 3.6 3.6 3.6 3.6-1.6 3.6-3.6z" class="g0"/><text x="192" y="1691" class="s1">2</text><path d="M247.5 1617.5c0-2-1.6-3.6-3.6-3.6-1.9 0-3.6 1.6-3.6 3.6s1.7 3.6 3.6 3.6c2 0 3.6-1.6 3.6-3.6z" class="g0"/><text x="251" y="1635" class="s1">3</text><path d="M136.5 1472.4c0-2-1.6-3.6-3.6-3.6s-3.6 1.6-3.6 3.6 1.6 3.6 3.6 3.6 3.6-1.6 3.6-3.6z" class="g0"/><text x="142" y="1477" class="s1">4</text><path d="M78.4 1599.8l-53.8 50.6m1 3l155.4 19.3m6.4-2.1l53.8-50.5m-1-3.1l-155.3-19.3m-2.3-3.9l48.9-117.9M23.9 1649.7L131 1475.6m52.8 194L133.9 1476m107.8 138.5l-106.5-139.1" class="g1"/><path d="M362.3 1597.2c0-1.9-1.6-3.5-3.6-3.5s-3.6 1.6-3.6 3.5c0 2 1.6 3.6 3.6 3.6s3.6-1.6 3.6-3.6z" class="g0"/><text x="366" y="1615" class="s1">0</text><path d="M303.1 1652.9c0-2-1.6-3.6-3.6-3.6s-3.6 1.6-3.6 3.6 1.6 3.6 3.6 3.6 3.6-1.6 3.6-3.6z" class="g0"/><text x="307" y="1670" class="s1">1</text><path d="M465.9 1673.2c0-2-1.7-3.6-3.6-3.6-2 0-3.6 1.6-3.6 3.6s1.6 3.6 3.6 3.6c1.9 0 3.6-1.6 3.6-3.6z" class="g0"/><text x="470" y="1691" class="s1">2</text><path d="M525.1 1617.5c0-2-1.6-3.6-3.6-3.6s-3.6 1.6-3.6 3.6 1.6 3.6 3.6 3.6 3.6-1.6 3.6-3.6z" class="g0"/><text x="529" y="1635" class="s1">3</text><path d="M414.1 1472.4c0-2-1.6-3.6-3.6-3.6s-3.6 1.6-3.6 3.6 1.6 3.6 3.6 3.6 3.6-1.6 3.6-3.6z" class="g0"/><text x="419" y="1477" class="s1">4</text><path d="M332.7 1625.1c0-2-1.6-3.6-3.6-3.6s-3.6 1.6-3.6 3.6 1.6 3.6 3.6 3.6 3.6-1.6 3.6-3.6z" class="g0"/><text x="337" y="1643" class="s1">5</text><path d="M384.5 1663c0-1.9-1.6-3.5-3.6-3.5s-3.6 1.6-3.6 3.5c0 2 1.6 3.6 3.6 3.6s3.6-1.6 3.6-3.6z" class="g0"/><text x="388" y="1681" class="s1">6</text><path d="M495.5 1645.3c0-1.9-1.6-3.5-3.6-3.5s-3.6 1.6-3.6 3.5c0 2 1.6 3.6 3.6 3.6s3.6-1.6 3.6-3.6z" class="g0"/><text x="499" y="1663" class="s1">7</text><path d="M443.7 1607.4c0-2-1.6-3.6-3.6-3.6s-3.6 1.6-3.6 3.6 1.6 3.6 3.6 3.6 3.6-1.6 3.6-3.6z" class="g0"/><text x="448" y="1625" class="s1">8</text><path d="M388.2 1534.8c0-1.9-1.6-3.6-3.6-3.6s-3.6 1.7-3.6 3.6c0 2 1.6 3.6 3.6 3.6s3.6-1.6 3.6-3.6z" class="g0"/><text x="392" y="1552" class="s1">9</text><path d="M358.6 1562.7c0-2-1.6-3.6-3.6-3.6s-3.6 1.6-3.6 3.6 1.6 3.6 3.6 3.6 3.6-1.6 3.6-3.6z" class="g0"/><text x="363" y="1580" class="s1">10</text><path d="M440 1572.8c0-2-1.6-3.6-3.6-3.6s-3.6 1.6-3.6 3.6 1.6 3.6 3.6 3.6 3.6-1.6 3.6-3.6z" class="g0"/><text x="444" y="1590" class="s1">11</text><path d="M469.6 1545c0-2-1.6-3.6-3.6-3.6s-3.6 1.6-3.6 3.6c0 1.9 1.6 3.6 3.6 3.6s3.6-1.7 3.6-3.6z" class="g0"/><text x="475" y="1549" class="s1">12</text><path d="M356 1599.8l-24.2 22.7m-5.4 5.1l-24.2 22.8m1 3l74 9.2m7.4.9l74 9.2m6.4-2.1l24.2-22.7m5.4-5.1l24.2-22.7m-1-3.1l-74-9.2m-7.4-.9l-74-9.2m-2.2-3.9l23-55.5m2.8-6.9l23.1-55.5m-107.7 173.8l51.6-83.8m3.9-6.4l51.6-83.9m52.8 194l-24-93.2m-1.9-7.2l-24-93.2m107.8 138.5l-50.9-66.6m-4.6-5.9l-50.9-66.6" class="g1"/><path d="M639.9 1597.2c0-1.9-1.6-3.5-3.6-3.5s-3.6 1.6-3.6 3.5c0 2 1.6 3.6 3.6 3.6s3.6-1.6 3.6-3.6z" class="g0"/><text x="644" y="1615" class="s1">0</text><path d="M580.6 1652.9c0-2-1.6-3.6-3.5-3.6-2 0-3.6 1.6-3.6 3.6s1.6 3.6 3.6 3.6c1.9 0 3.5-1.6 3.5-3.6z" class="g0"/><text x="585" y="1670" class="s1">1</text><path d="M743.4 1673.2c0-2-1.6-3.6-3.6-3.6-1.9 0-3.5 1.6-3.5 3.6s1.6 3.6 3.5 3.6c2 0 3.6-1.6 3.6-3.6z" class="g0"/><text x="747" y="1691" class="s1">2</text><path d="M802.7 1617.5c0-2-1.6-3.6-3.6-3.6s-3.6 1.6-3.6 3.6 1.6 3.6 3.6 3.6 3.6-1.6 3.6-3.6z" class="g0"/><text x="807" y="1635" class="s1">3</text><path d="M691.7 1472.4c0-2-1.6-3.6-3.6-3.6s-3.6 1.6-3.6 3.6 1.6 3.6 3.6 3.6 3.6-1.6 3.6-3.6z" class="g0"/><text x="697" y="1477" class="s1">4</text><path d="M610.3 1625.1c0-2-1.6-3.6-3.6-3.6s-3.6 1.6-3.6 3.6 1.6 3.6 3.6 3.6 3.6-1.6 3.6-3.6z" class="g0"/><text x="614" y="1643" class="s1">5</text><path d="M662 1663c0-1.9-1.6-3.5-3.6-3.5-1.9 0-3.5 1.6-3.5 3.5 0 2 1.6 3.6 3.5 3.6 2 0 3.6-1.6 3.6-3.6z" class="g0"/><text x="666" y="1681" class="s1">8</text><path d="M773.1 1645.3c0-1.9-1.7-3.5-3.6-3.5-2 0-3.6 1.6-3.6 3.5 0 2 1.6 3.6 3.6 3.6 1.9 0 3.6-1.6 3.6-3.6z" class="g0"/><text x="777" y="1663" class="s1">10</text><path d="M721.3 1607.4c0-2-1.6-3.6-3.6-3.6s-3.6 1.6-3.6 3.6 1.6 3.6 3.6 3.6 3.6-1.6 3.6-3.6z" class="g0"/><text x="725" y="1625" class="s1">6</text><path d="M665.8 1534.8c0-1.9-1.6-3.6-3.6-3.6s-3.6 1.7-3.6 3.6c0 2 1.6 3.6 3.6 3.6s3.6-1.6 3.6-3.6z" class="g0"/><text x="670" y="1552" class="s1">7</text><path d="M636.2 1562.7c0-2-1.7-3.6-3.6-3.6-2 0-3.6 1.6-3.6 3.6s1.6 3.6 3.6 3.6c1.9 0 3.6-1.6 3.6-3.6z" class="g0"/><text x="640" y="1580" class="s1">9</text><path d="M717.5 1572.8c0-2-1.6-3.6-3.5-3.6-2 0-3.6 1.6-3.6 3.6s1.6 3.6 3.6 3.6c1.9 0 3.5-1.6 3.5-3.6z" class="g0"/><text x="721" y="1590" class="s1">11</text><path d="M747.2 1545c0-2-1.6-3.6-3.6-3.6s-3.6 1.6-3.6 3.6c0 1.9 1.6 3.6 3.6 3.6s3.6-1.7 3.6-3.6z" class="g0"/><text x="752" y="1549" class="s1">12</text><path d="M691.7 1635.2c0-2-1.6-3.6-3.6-3.6s-3.6 1.6-3.6 3.6 1.6 3.6 3.6 3.6 3.6-1.6 3.6-3.6z" class="g0"/><text x="696" y="1653" class="s1">13</text><path d="M633.6 1599.8l-24.2 22.7m-5.4 5.1l-24.2 22.8m1 3l73.9 9.2m7.5.9l73.9 9.2m6.5-2.1l24.1-22.7m5.5-5.1l24.2-22.7m-1-3.1l-74-9.2m-7.4-.9l-74-9.2m-2.3-3.9l23.1-55.5m2.8-6.9l23-55.5M579 1649.7l51.6-83.8m3.9-6.4l51.6-83.9m52.8 194l-24-93.2m-1.9-7.2l-24-93.2m107.8 138.5l-50.9-66.6m-4.6-5.9l-51-66.6" class="g1"/></g><style>@font-face{font-family:LMSans10-Regular_g;src:url(fonts/LMSans10-Regular_g.woff) format(&quot;woff&quot;)}</style></svg>