<svg height="470.076" viewBox="0 0 404.923 352.557" width="539.898" xmlns="http://www.w3.org/2000/svg" xmlns:xlink="http://www.w3.org/1999/xlink"><defs><style>*{stroke-linecap:butt;stroke-linejoin:round}</style></defs><g id="figure_1"><path d="M0 352.557h404.923V0H0z" fill="none" id="patch_1"/><g id="axes_1"><path d="M40.603 288.43h357.12V22.318H40.603z" fill="none" id="patch_2"/><path clip-path="url(#p51398d2d3a)" d="M21.738 195.5h384.185" fill="none" stroke="#d62728" stroke-linecap="square" stroke-width="2" id="line2d_1"/><path clip-path="url(#p51398d2d3a)" d="M56.836 288.43h17.549v-53.862h-17.55z" fill="#1f77b4" id="patch_3"/><path clip-path="url(#p51398d2d3a)" d="M78.772 288.43h17.549v-71.103H78.772z" fill="#1f77b4" id="patch_4"/><path clip-path="url(#p51398d2d3a)" d="M100.708 288.43h17.549v-92.94h-17.549z" fill="#1f77b4" id="patch_5"/><path clip-path="url(#p51398d2d3a)" d="M122.644 288.43h17.55v-92.987h-17.55z" fill="#1f77b4" id="patch_6"/><path clip-path="url(#p51398d2d3a)" d="M144.58 288.43h17.55v-92.994h-17.55z" fill="#1f77b4" id="patch_7"/><path clip-path="url(#p51398d2d3a)" d="M166.516 288.43h17.55v-96.735h-17.55z" fill="#1f77b4" id="patch_8"/><path clip-path="url(#p51398d2d3a)" d="M188.453 288.43H206V188.421h-17.548z" fill="#1f77b4" id="patch_9"/><path clip-path="url(#p51398d2d3a)" d="M210.389 288.43h17.549V185.546h-17.55z" fill="#1f77b4" id="patch_10"/><path clip-path="url(#p51398d2d3a)" d="M232.325 288.43h17.549V184.14h-17.55z" fill="#1f77b4" id="patch_11"/><path clip-path="url(#p51398d2d3a)" d="M254.26 288.43h17.55V169.728h-17.55z" fill="#1f77b4" id="patch_12"/><path clip-path="url(#p51398d2d3a)" d="M276.197 288.43h17.549V164.303h-17.549z" fill="#1f77b4" id="patch_13"/><path clip-path="url(#p51398d2d3a)" d="M298.133 288.43h17.549V135.113h-17.549z" fill="#1f77b4" id="patch_14"/><path clip-path="url(#p51398d2d3a)" d="M320.07 288.43h17.548V114.555H320.07z" fill="#1f77b4" id="patch_15"/><path clip-path="url(#p51398d2d3a)" d="M342.005 288.43h17.55V107.747h-17.55z" fill="#1f77b4" id="patch_16"/><path clip-path="url(#p51398d2d3a)" d="M363.942 288.43h17.548V34.99h-17.548z" fill="#1f77b4" id="patch_17"/><g id="matplotlib.axis_1"><g id="xtick_1"><path clip-path="url(#p51398d2d3a)" d="M65.61 288.43V22.318" fill="none" stroke="#b0b0b0" stroke-linecap="square" stroke-width=".8" id="line2d_2"/><g id="line2d_3"><defs><path d="M0 0v3.5" id="m853c52a913" stroke="#000" stroke-width=".8"/></defs><use x="65.61" xlink:href="#m853c52a913" y="288.43" stroke="#000" stroke-width=".8"/></g><g id="text_1"><defs><path d="M2.984 54.688H12.5L29.594 8.797l17.093 45.89h9.516L35.687 0H23.485z" id="DejaVuSans-118"/><path d="M18.313 70.219V54.688h18.5v-6.985h-18.5V18.016q0-6.688 1.828-8.594 1.828-1.906 7.453-1.906h9.218V0h-9.218q-10.407 0-14.36 3.875-3.953 3.89-3.953 14.14v29.688H2.687v6.984h6.594V70.22z" id="DejaVuSans-116"/><path d="M8.5 21.578v33.11h8.984V21.922q0-7.766 3.016-11.656 3.031-3.875 9.094-3.875 7.265 0 11.484 4.64 4.234 4.64 4.234 12.656v31h8.985V0h-8.984v8.406Q42.047 3.422 37.718 1q-4.313-2.422-10.032-2.422-9.421 0-14.312 5.86Q8.5 10.296 8.5 21.578zM31.11 56z" id="DejaVuSans-117"/></defs><g transform="matrix(0 -.1 -.1 0 68.37 311.607)"><use xlink:href="#DejaVuSans-118"/><use x="59.18" xlink:href="#DejaVuSans-116"/><use x="98.389" xlink:href="#DejaVuSans-117"/></g></g></g><g id="xtick_2"><path clip-path="url(#p51398d2d3a)" d="M87.546 288.43V22.318" fill="none" stroke="#b0b0b0" stroke-linecap="square" stroke-width=".8" id="line2d_4"/><use x="87.546" xlink:href="#m853c52a913" y="288.43" stroke="#000" stroke-width=".8" id="line2d_5"/><g id="text_2"><defs><path d="M9.078 75.984h9.031V31.11l26.813 23.578H56.39l-29-25.578L57.625 0H45.906L18.11 26.703V0H9.08z" id="DejaVuSans-107"/></defs><g transform="matrix(0 -.1 -.1 0 90.306 311.06)"><use xlink:href="#DejaVuSans-118"/><use x="59.18" xlink:href="#DejaVuSans-116"/><use x="98.389" xlink:href="#DejaVuSans-107"/></g></g></g><g id="xtick_3"><path clip-path="url(#p51398d2d3a)" d="M109.483 288.43V22.318" fill="none" stroke="#b0b0b0" stroke-linecap="square" stroke-width=".8" id="line2d_6"/><use x="109.483" xlink:href="#m853c52a913" y="288.43" stroke="#000" stroke-width=".8" id="line2d_7"/><g id="text_3"><defs><path d="M54.89 54.688l-19.78-26.61L55.905 0H45.313L29.39 21.484 13.484 0H2.875l21.25 28.61L4.687 54.687h10.594l14.5-19.485 14.5 19.484z" id="DejaVuSans-120"/><path d="M45.406 46.39v29.594h8.985V0h-8.985v8.203Q42.578 3.328 38.25.953q-4.313-2.375-10.375-2.375-9.906 0-16.14 7.906-6.22 7.922-6.22 20.813 0 12.89 6.22 20.797Q17.968 56 27.874 56q6.063 0 10.375-2.375 4.328-2.36 7.156-7.234zm-30.61-19.093q0-9.906 4.079-15.547 4.078-5.64 11.203-5.64 7.125 0 11.219 5.64 4.11 5.64 4.11 15.547 0 9.906-4.11 15.547-4.094 5.64-11.219 5.64-7.125 0-11.203-5.64-4.078-5.64-4.078-15.547z" id="DejaVuSans-100"/><path d="M52 44.188q3.375 6.062 8.063 8.937Q64.75 56 71.093 56q8.548 0 13.188-5.984 4.64-5.97 4.64-17V0h-9.03v32.719q0 7.86-2.797 11.656-2.781 3.813-8.485 3.813-6.984 0-11.046-4.641-4.047-4.625-4.047-12.64V0h-9.032v32.719q0 7.906-2.78 11.687-2.782 3.782-8.595 3.782-6.89 0-10.953-4.657-4.047-4.656-4.047-12.625V0H9.08v54.688h9.03v-8.5q3.078 5.03 7.375 7.421Q29.781 56 35.687 56q5.97 0 10.141-3.031Q50 49.953 52 44.187z" id="DejaVuSans-109"/><path d="M37.11 75.984V68.5h-8.594q-4.828 0-6.72-1.953-1.874-1.953-1.874-7.031v-4.828h14.797v-6.985H19.922V0H10.89v47.703H2.297v6.984h8.594V58.5q0 9.125 4.25 13.297 4.25 4.187 13.468 4.187z" id="DejaVuSans-102"/></defs><g transform="matrix(0 -.1 -.1 0 112.242 320.958)"><use xlink:href="#DejaVuSans-120"/><use x="59.18" xlink:href="#DejaVuSans-100"/><use x="122.656" xlink:href="#DejaVuSans-109"/><use x="220.068" xlink:href="#DejaVuSans-102"/></g></g></g><g id="xtick_4"><path clip-path="url(#p51398d2d3a)" d="M131.419 288.43V22.318" fill="none" stroke="#b0b0b0" stroke-linecap="square" stroke-width=".8" id="line2d_8"/><use x="131.419" xlink:href="#m853c52a913" y="288.43" stroke="#000" stroke-width=".8" id="line2d_9"/><g id="text_4"><defs><path d="M56.203 29.594v-4.39H14.891q.593-9.282 5.593-14.142 5-4.859 13.938-4.859 5.172 0 10.031 1.266 4.86 1.265 9.656 3.812v-8.5Q49.266.734 44.187-.344 39.11-1.422 33.892-1.422q-13.094 0-20.735 7.61-7.64 7.625-7.64 20.625 0 13.421 7.25 21.296Q20.016 56 32.328 56q11.031 0 17.453-7.11 6.422-7.093 6.422-19.296zm-8.984 2.64q-.094 7.36-4.125 11.75-4.032 4.407-10.672 4.407-7.516 0-12.031-4.25-4.516-4.25-5.203-11.97z" id="DejaVuSans-101"/></defs><g transform="matrix(0 -.1 -.1 0 134.178 317.672)"><use xlink:href="#DejaVuSans-109"/><use x="97.412" xlink:href="#DejaVuSans-101"/><use x="158.936" xlink:href="#DejaVuSans-100"/></g></g></g><g id="xtick_5"><path clip-path="url(#p51398d2d3a)" d="M153.355 288.43V22.318" fill="none" stroke="#b0b0b0" stroke-linecap="square" stroke-width=".8" id="line2d_10"/><use x="153.355" xlink:href="#m853c52a913" y="288.43" stroke="#000" stroke-width=".8" id="line2d_11"/><g id="text_5"><defs><path d="M48.781 52.594v-8.407q-3.812 2.11-7.64 3.157-3.828 1.047-7.735 1.047-8.75 0-13.593-5.547-4.829-5.532-4.829-15.547 0-10.016 4.829-15.563 4.843-5.53 13.593-5.53 3.907 0 7.735 1.046 3.828 1.047 7.64 3.156V2.094Q45.016.344 40.984-.531q-4.015-.89-8.562-.89-12.36 0-19.64 7.765-7.266 7.765-7.266 20.953 0 13.375 7.343 21.031Q20.22 56 33.016 56q4.14 0 8.093-.86 3.953-.843 7.672-2.546z" id="DejaVuSans-99"/><path d="M45.406 27.984q0 9.766-4.031 15.125-4.016 5.375-11.297 5.375-7.219 0-11.25-5.375-4.031-5.359-4.031-15.125 0-9.718 4.031-15.093t11.25-5.375q7.281 0 11.297 5.375 4.031 5.375 4.031 15.093zm8.985-21.203q0-13.953-6.203-20.765Q42-20.797 29.203-20.797q-4.734 0-8.937.703-4.203.703-8.157 2.172v8.735q3.954-2.141 7.813-3.157 3.86-1.031 7.86-1.031 8.843 0 13.234 4.61 4.39 4.609 4.39 13.937v4.453q-2.781-4.844-7.125-7.234Q33.938 0 27.875 0 17.828 0 11.672 7.656q-6.156 7.672-6.156 20.328 0 12.688 6.156 20.344Q17.828 56 27.875 56q6.063 0 10.406-2.39 4.344-2.391 7.125-7.22v8.297h8.985z" id="DejaVuSans-103"/><path d="M54.89 33.016V0h-8.984v32.719q0 7.765-3.031 11.61-3.031 3.858-9.078 3.858-7.281 0-11.484-4.64-4.204-4.625-4.204-12.64V0H9.08v54.688h9.03v-8.5q3.235 4.937 7.594 7.374Q30.078 56 35.797 56q9.422 0 14.25-5.828 4.844-5.828 4.844-17.156z" id="DejaVuSans-110"/><path d="M44.281 53.078v-8.5q-3.797 1.953-7.906 2.922-4.094.984-8.5.984-6.688 0-10.031-2.047-3.344-2.046-3.344-6.156 0-3.125 2.39-4.906 2.391-1.781 9.626-3.39l3.078-.688q9.562-2.047 13.593-5.781 4.032-3.735 4.032-10.422 0-7.625-6.032-12.078-6.03-4.438-16.578-4.438-4.39 0-9.156.86Q10.688.296 5.422 2v9.281q4.984-2.594 9.812-3.89 4.829-1.282 9.579-1.282 6.343 0 9.75 2.172 3.421 2.172 3.421 6.125 0 3.656-2.468 5.61-2.453 1.953-10.813 3.765l-3.125.735q-8.344 1.75-12.062 5.39-3.704 3.64-3.704 9.985 0 7.718 5.47 11.906Q16.75 56 26.811 56q4.97 0 9.36-.734 4.406-.72 8.11-2.188z" id="DejaVuSans-115"/></defs><g transform="matrix(0 -.1 -.1 0 156.114 318.824)"><use xlink:href="#DejaVuSans-99"/><use x="54.98" xlink:href="#DejaVuSans-103"/><use x="118.457" xlink:href="#DejaVuSans-110"/><use x="181.836" xlink:href="#DejaVuSans-115"/></g></g></g><g id="xtick_6"><path clip-path="url(#p51398d2d3a)" d="M175.29 288.43V22.318" fill="none" stroke="#b0b0b0" stroke-linecap="square" stroke-width=".8" id="line2d_12"/><use x="175.291" xlink:href="#m853c52a913" y="288.43" stroke="#000" stroke-width=".8" id="line2d_13"/><g id="text_6"><defs><path d="M30.61 48.39q-7.22 0-11.422-5.64-4.204-5.64-4.204-15.453 0-9.813 4.172-15.453 4.188-5.64 11.453-5.64 7.188 0 11.375 5.655 4.203 5.672 4.203 15.438 0 9.719-4.203 15.406-4.187 5.688-11.375 5.688zm0 7.61q11.718 0 18.406-7.625 6.703-7.61 6.703-21.078 0-13.422-6.703-21.078-6.688-7.64-18.407-7.64-11.765 0-18.437 7.64-6.656 7.656-6.656 21.078 0 13.469 6.656 21.078Q18.844 56 30.609 56z" id="DejaVuSans-111"/><path d="M34.281 27.484q-10.89 0-15.093-2.484-4.204-2.484-4.204-8.5 0-4.781 3.157-7.594 3.156-2.797 8.562-2.797 7.485 0 12 5.297 4.516 5.297 4.516 14.078v2zm17.922 3.72V0H43.22v8.297Q40.14 3.328 35.547.953q-4.594-2.375-11.234-2.375-8.391 0-13.36 4.719Q6 8.016 6 15.922q0 9.219 6.172 13.906 6.187 4.688 18.437 4.688h12.61v.89q0 6.203-4.078 9.594-4.078 3.39-11.453 3.39-4.688 0-9.141-1.124-4.438-1.125-8.531-3.375v8.312q4.921 1.906 9.562 2.844 4.64.953 9.031.953 11.875 0 17.735-6.156 5.86-6.14 5.86-18.64z" id="DejaVuSans-97"/><path d="M48.688 27.297q0 9.906-4.079 15.547-4.078 5.64-11.203 5.64-7.14 0-11.218-5.64-4.079-5.64-4.079-15.547 0-9.906 4.078-15.547 4.079-5.64 11.22-5.64 7.124 0 11.202 5.64t4.078 15.547zM18.108 46.39q2.844 4.875 7.157 7.234Q29.594 56 35.594 56q9.968 0 16.187-7.906 6.235-7.907 6.235-20.797T51.78 6.484q-6.218-7.906-16.187-7.906-6 0-10.328 2.375-4.313 2.375-7.157 7.25V0H9.08v75.984h9.03z" id="DejaVuSans-98"/></defs><g transform="matrix(0 -.1 -.1 0 178.05 323.766)"><use xlink:href="#DejaVuSans-109"/><use x="97.412" xlink:href="#DejaVuSans-111"/><use x="158.594" xlink:href="#DejaVuSans-97"/><use x="219.873" xlink:href="#DejaVuSans-98"/></g></g></g><g id="xtick_7"><path clip-path="url(#p51398d2d3a)" d="M197.227 288.43V22.318" fill="none" stroke="#b0b0b0" stroke-linecap="square" stroke-width=".8" id="line2d_14"/><use x="197.227" xlink:href="#m853c52a913" y="288.43" stroke="#000" stroke-width=".8" id="line2d_15"/><g id="text_7"><defs><path d="M9.422 54.688h8.984V0H9.422zm0 21.296h8.984v-11.39H9.422z" id="DejaVuSans-105"/></defs><g transform="matrix(0 -.1 -.1 0 199.986 324.37)"><use xlink:href="#DejaVuSans-109"/><use x="97.412" xlink:href="#DejaVuSans-101"/><use x="158.936" xlink:href="#DejaVuSans-100"/><use x="222.412" xlink:href="#DejaVuSans-105"/><use x="250.195" xlink:href="#DejaVuSans-116"/></g></g></g><g id="xtick_8"><path clip-path="url(#p51398d2d3a)" d="M219.163 288.43V22.318" fill="none" stroke="#b0b0b0" stroke-linecap="square" stroke-width=".8" id="line2d_16"/><use x="219.163" xlink:href="#m853c52a913" y="288.43" stroke="#000" stroke-width=".8" id="line2d_17"/><g id="text_8"><defs><path d="M18.11 8.203v-29H9.077v75.484h9.031v-8.296q2.844 4.875 7.157 7.234Q29.594 56 35.594 56q9.968 0 16.187-7.906 6.235-7.907 6.235-20.797T51.78 6.484q-6.218-7.906-16.187-7.906-6 0-10.328 2.375-4.313 2.375-7.157 7.25zm30.578 19.094q0 9.906-4.079 15.547-4.078 5.64-11.203 5.64-7.14 0-11.218-5.64-4.079-5.64-4.079-15.547 0-9.906 4.078-15.547 4.079-5.64 11.22-5.64 7.124 0 11.202 5.64t4.078 15.547z" id="DejaVuSans-112"/><path d="M41.11 46.297q-1.516.875-3.297 1.281Q36.03 48 33.89 48q-7.625 0-11.703-4.953-4.079-4.953-4.079-14.234V0H9.08v54.688h9.03v-8.5q2.844 4.984 7.375 7.39Q30.031 56 36.531 56q.922 0 2.047-.125 1.125-.11 2.484-.36z" id="DejaVuSans-114"/></defs><g transform="matrix(0 -.1 -.1 0 221.923 333.12)"><use xlink:href="#DejaVuSans-112"/><use x="63.477" xlink:href="#DejaVuSans-101"/><use x="125" xlink:href="#DejaVuSans-114"/><use x="166.098" xlink:href="#DejaVuSans-109"/><use x="263.51" xlink:href="#DejaVuSans-97"/><use x="324.789" xlink:href="#DejaVuSans-115"/></g></g></g><g id="xtick_9"><path clip-path="url(#p51398d2d3a)" d="M241.1 288.43V22.318" fill="none" stroke="#b0b0b0" stroke-linecap="square" stroke-width=".8" id="line2d_18"/><use x="241.099" xlink:href="#m853c52a913" y="288.43" stroke="#000" stroke-width=".8" id="line2d_19"/><g id="text_9"><defs><path d="M14.797 27.297q0-9.906 4.078-15.547 4.078-5.64 11.203-5.64 7.125 0 11.219 5.64 4.11 5.64 4.11 15.547 0 9.906-4.11 15.547-4.094 5.64-11.219 5.64-7.125 0-11.203-5.64-4.078-5.64-4.078-15.547zm30.61-19.094q-2.83-4.875-7.157-7.25-4.313-2.375-10.375-2.375-9.906 0-16.14 7.906-6.22 7.922-6.22 20.813 0 12.89 6.22 20.797Q17.968 56 27.874 56q6.063 0 10.375-2.375 4.328-2.36 7.156-7.234v8.297h8.985v-75.485h-8.985z" id="DejaVuSans-113"/></defs><g transform="matrix(0 -.1 -.1 0 243.859 331.93)"><use xlink:href="#DejaVuSans-97"/><use x="61.279" xlink:href="#DejaVuSans-98"/><use x="124.756" xlink:href="#DejaVuSans-97"/><use x="186.035" xlink:href="#DejaVuSans-113"/><use x="249.512" xlink:href="#DejaVuSans-117"/><use x="312.891" xlink:href="#DejaVuSans-115"/></g></g></g><g id="xtick_10"><path clip-path="url(#p51398d2d3a)" d="M263.035 288.43V22.318" fill="none" stroke="#b0b0b0" stroke-linecap="square" stroke-width=".8" id="line2d_20"/><use x="263.035" xlink:href="#m853c52a913" y="288.43" stroke="#000" stroke-width=".8" id="line2d_21"/><g transform="matrix(0 -.1 -.1 0 265.795 328.263)" id="text_10"><use xlink:href="#DejaVuSans-116"/><use x="39.209" xlink:href="#DejaVuSans-101"/><use x="100.732" xlink:href="#DejaVuSans-116"/><use x="139.941" xlink:href="#DejaVuSans-103"/><use x="203.418" xlink:href="#DejaVuSans-101"/><use x="264.941" xlink:href="#DejaVuSans-110"/></g></g><g id="xtick_11"><path clip-path="url(#p51398d2d3a)" d="M284.971 288.43V22.318" fill="none" stroke="#b0b0b0" stroke-linecap="square" stroke-width=".8" id="line2d_22"/><use x="284.971" xlink:href="#m853c52a913" y="288.43" stroke="#000" stroke-width=".8" id="line2d_23"/><g id="text_11"><defs><path d="M54.89 33.016V0h-8.984v32.719q0 7.765-3.031 11.61-3.031 3.858-9.078 3.858-7.281 0-11.484-4.64-4.204-4.625-4.204-12.64V0H9.08v75.984h9.03V46.188q3.235 4.937 7.594 7.374Q30.078 56 35.797 56q9.422 0 14.25-5.828 4.844-5.828 4.844-17.156z" id="DejaVuSans-104"/></defs><g transform="matrix(0 -.1 -.1 0 287.73 323.066)"><use xlink:href="#DejaVuSans-103"/><use x="63.477" xlink:href="#DejaVuSans-109"/><use x="160.889" xlink:href="#DejaVuSans-115"/><use x="212.988" xlink:href="#DejaVuSans-104"/></g></g></g><g id="xtick_12"><path clip-path="url(#p51398d2d3a)" d="M306.908 288.43V22.318" fill="none" stroke="#b0b0b0" stroke-linecap="square" stroke-width=".8" id="line2d_24"/><use x="306.908" xlink:href="#m853c52a913" y="288.43" stroke="#000" stroke-width=".8" id="line2d_25"/><g transform="matrix(0 -.1 -.1 0 309.667 323.996)" id="text_12"><use xlink:href="#DejaVuSans-109"/><use x="97.412" xlink:href="#DejaVuSans-100"/><use x="160.889" xlink:href="#DejaVuSans-112"/><use x="224.365" xlink:href="#DejaVuSans-97"/></g></g><g id="xtick_13"><path clip-path="url(#p51398d2d3a)" d="M328.844 288.43V22.318" fill="none" stroke="#b0b0b0" stroke-linecap="square" stroke-width=".8" id="line2d_26"/><use x="328.844" xlink:href="#m853c52a913" y="288.43" stroke="#000" stroke-width=".8" id="line2d_27"/><g id="text_13"><defs><path d="M9.422 75.984h8.984V0H9.422z" id="DejaVuSans-108"/><path d="M40.578 39.313Q47.656 37.797 51.625 33q3.984-4.781 3.984-11.813 0-10.78-7.422-16.703-7.421-5.906-21.093-5.906-4.578 0-9.438.906-4.86.907-10.031 2.72v9.515q4.094-2.39 8.969-3.61 4.89-1.218 10.218-1.218 9.266 0 14.125 3.656 4.86 3.656 4.86 10.64 0 6.454-4.516 10.079-4.515 3.64-12.562 3.64h-8.5v8.11h8.89q7.266 0 11.125 2.906 3.86 2.906 3.86 8.375 0 5.61-3.985 8.61-3.968 3.015-11.39 3.015-4.063 0-8.703-.89-4.641-.876-10.203-2.72v8.782q5.624 1.562 10.53 2.344 4.907.78 9.25.78 11.235 0 17.766-5.109 6.547-5.093 6.547-13.78 0-6.063-3.468-10.235-3.47-4.172-9.86-5.782z" id="DejaVuSans-51"/></defs><g transform="matrix(0 -.1 -.1 0 331.603 326.066)"><use xlink:href="#DejaVuSans-102"/><use x="35.205" xlink:href="#DejaVuSans-108"/><use x="62.988" xlink:href="#DejaVuSans-97"/><use x="124.268" xlink:href="#DejaVuSans-99"/><use x="179.248" xlink:href="#DejaVuSans-51"/><use x="242.871" xlink:href="#DejaVuSans-100"/></g></g></g><g id="xtick_14"><path clip-path="url(#p51398d2d3a)" d="M350.78 288.43V22.318" fill="none" stroke="#b0b0b0" stroke-linecap="square" stroke-width=".8" id="line2d_28"/><use x="350.78" xlink:href="#m853c52a913" y="288.43" stroke="#000" stroke-width=".8" id="line2d_29"/><g transform="matrix(0 -.1 -.1 0 353.54 333.602)" id="text_14"><use xlink:href="#DejaVuSans-110"/><use x="63.379" xlink:href="#DejaVuSans-97"/><use x="124.658" xlink:href="#DejaVuSans-115"/><use x="176.758" xlink:href="#DejaVuSans-116"/><use x="215.967" xlink:href="#DejaVuSans-114"/><use x="257.08" xlink:href="#DejaVuSans-97"/><use x="318.359" xlink:href="#DejaVuSans-110"/></g></g><g id="xtick_15"><path clip-path="url(#p51398d2d3a)" d="M372.716 288.43V22.318" fill="none" stroke="#b0b0b0" stroke-linecap="square" stroke-width=".8" id="line2d_30"/><use x="372.716" xlink:href="#m853c52a913" y="288.43" stroke="#000" stroke-width=".8" id="line2d_31"/><g id="text_15"><defs><path d="M4.89 31.39h26.313v-8H4.891z" id="DejaVuSans-45"/></defs><g transform="matrix(0 -.1 -.1 0 375.475 345.357)"><use xlink:href="#DejaVuSans-100"/><use x="63.477" xlink:href="#DejaVuSans-111"/><use x="124.658" xlink:href="#DejaVuSans-108"/><use x="152.441" xlink:href="#DejaVuSans-102"/><use x="187.646" xlink:href="#DejaVuSans-105"/><use x="215.43" xlink:href="#DejaVuSans-110"/><use x="278.809" xlink:href="#DejaVuSans-45"/><use x="314.893" xlink:href="#DejaVuSans-120"/><use x="374.072" xlink:href="#DejaVuSans-109"/><use x="471.484" xlink:href="#DejaVuSans-108"/></g></g></g></g><g id="matplotlib.axis_2"><g id="ytick_1"><path clip-path="url(#p51398d2d3a)" d="M40.603 288.43h357.12" fill="none" stroke="#b0b0b0" stroke-linecap="square" stroke-width=".8" id="line2d_32"/><g id="line2d_33"><defs><path d="M0 0h-3.5" id="m9b167b150a" stroke="#000" stroke-width=".8"/></defs><use x="40.603" xlink:href="#m9b167b150a" y="288.43" stroke="#000" stroke-width=".8"/></g><g id="text_16"><defs><path d="M31.781 66.406q-7.61 0-11.453-7.5Q16.5 51.422 16.5 36.375q0-14.984 3.828-22.484 3.844-7.5 11.453-7.5 7.672 0 11.5 7.5 3.844 7.5 3.844 22.484 0 15.047-3.844 22.531-3.828 7.5-11.5 7.5zm0 7.813q12.266 0 18.735-9.703 6.468-9.688 6.468-28.141 0-18.406-6.468-28.11-6.47-9.687-18.735-9.687-12.25 0-18.718 9.688-6.47 9.703-6.47 28.109 0 18.453 6.47 28.14Q19.53 74.22 31.78 74.22z" id="DejaVuSans-48"/></defs><use xlink:href="#DejaVuSans-48" transform="matrix(.1 0 0 -.1 27.24 292.23)"/></g></g><g id="ytick_2"><path clip-path="url(#p51398d2d3a)" d="M40.603 245.338h357.12" fill="none" stroke="#b0b0b0" stroke-linecap="square" stroke-width=".8" id="line2d_34"/><use x="40.603" xlink:href="#m9b167b150a" y="245.338" stroke="#000" stroke-width=".8" id="line2d_35"/><g id="text_17"><defs><path d="M12.406 8.297h16.11v55.625l-17.532-3.516v8.985l17.438 3.515h9.86V8.296H54.39V0H12.406z" id="DejaVuSans-49"/></defs><g transform="matrix(.1 0 0 -.1 20.878 249.137)"><use xlink:href="#DejaVuSans-49"/><use x="63.623" xlink:href="#DejaVuSans-48"/></g></g></g><g id="ytick_3"><path clip-path="url(#p51398d2d3a)" d="M40.603 202.245h357.12" fill="none" stroke="#b0b0b0" stroke-linecap="square" stroke-width=".8" id="line2d_36"/><use x="40.603" xlink:href="#m9b167b150a" y="202.245" stroke="#000" stroke-width=".8" id="line2d_37"/><g id="text_18"><defs><path d="M19.188 8.297h34.421V0H7.33v8.297q5.609 5.812 15.296 15.594 9.703 9.797 12.188 12.64 4.734 5.313 6.609 9 1.89 3.688 1.89 7.25 0 5.813-4.078 9.469-4.078 3.672-10.625 3.672-4.64 0-9.797-1.61-5.14-1.609-11-4.89v9.969Q13.767 71.78 18.938 73q5.188 1.219 9.485 1.219 11.328 0 18.062-5.672 6.735-5.656 6.735-15.125 0-4.5-1.688-8.531-1.672-4.016-6.125-9.485-1.218-1.422-7.765-8.187-6.532-6.766-18.453-18.922z" id="DejaVuSans-50"/></defs><g transform="matrix(.1 0 0 -.1 20.878 206.045)"><use xlink:href="#DejaVuSans-50"/><use x="63.623" xlink:href="#DejaVuSans-48"/></g></g></g><g id="ytick_4"><path clip-path="url(#p51398d2d3a)" d="M40.603 159.153h357.12" fill="none" stroke="#b0b0b0" stroke-linecap="square" stroke-width=".8" id="line2d_38"/><use x="40.603" xlink:href="#m9b167b150a" y="159.153" stroke="#000" stroke-width=".8" id="line2d_39"/><g transform="matrix(.1 0 0 -.1 20.878 162.952)" id="text_19"><use xlink:href="#DejaVuSans-51"/><use x="63.623" xlink:href="#DejaVuSans-48"/></g></g><g id="ytick_5"><path clip-path="url(#p51398d2d3a)" d="M40.603 116.06h357.12" fill="none" stroke="#b0b0b0" stroke-linecap="square" stroke-width=".8" id="line2d_40"/><use x="40.603" xlink:href="#m9b167b150a" y="116.061" stroke="#000" stroke-width=".8" id="line2d_41"/><g id="text_20"><defs><path d="M37.797 64.313L12.89 25.39h24.906zm-2.594 8.593H47.61V25.391h10.407v-8.203H47.609V0h-9.812v17.188H4.89v9.515z" id="DejaVuSans-52"/></defs><g transform="matrix(.1 0 0 -.1 20.878 119.86)"><use xlink:href="#DejaVuSans-52"/><use x="63.623" xlink:href="#DejaVuSans-48"/></g></g></g><g id="ytick_6"><path clip-path="url(#p51398d2d3a)" d="M40.603 72.968h357.12" fill="none" stroke="#b0b0b0" stroke-linecap="square" stroke-width=".8" id="line2d_42"/><use x="40.603" xlink:href="#m9b167b150a" y="72.968" stroke="#000" stroke-width=".8" id="line2d_43"/><g id="text_21"><defs><path d="M10.797 72.906h38.719v-8.312H19.828v-17.86q2.14.735 4.281 1.094 2.157.36 4.313.36 12.203 0 19.328-6.688 7.14-6.688 7.14-18.11 0-11.765-7.328-18.296-7.328-6.516-20.656-6.516-4.593 0-9.36.781-4.75.782-9.827 2.344v9.922q4.39-2.39 9.078-3.563 4.687-1.171 9.906-1.171 8.453 0 13.375 4.437 4.938 4.438 4.938 12.063 0 7.609-4.938 12.047-4.922 4.453-13.375 4.453-3.953 0-7.89-.875-3.922-.875-8.016-2.735z" id="DejaVuSans-53"/></defs><g transform="matrix(.1 0 0 -.1 20.878 76.767)"><use xlink:href="#DejaVuSans-53"/><use x="63.623" xlink:href="#DejaVuSans-48"/></g></g></g><g id="ytick_7"><path clip-path="url(#p51398d2d3a)" d="M40.603 29.876h357.12" fill="none" stroke="#b0b0b0" stroke-linecap="square" stroke-width=".8" id="line2d_44"/><use x="40.603" xlink:href="#m9b167b150a" y="29.876" stroke="#000" stroke-width=".8" id="line2d_45"/><g id="text_22"><defs><path d="M33.016 40.375q-6.641 0-10.532-4.547-3.875-4.531-3.875-12.437 0-7.86 3.875-12.438 3.891-4.562 10.532-4.562 6.64 0 10.515 4.562 3.875 4.578 3.875 12.438 0 7.906-3.875 12.437-3.875 4.547-10.515 4.547zm19.578 30.922v-8.984q-3.719 1.75-7.5 2.671-3.782.938-7.5.938-9.766 0-14.922-6.594-5.14-6.594-5.875-19.922 2.875 4.25 7.219 6.516 4.359 2.266 9.578 2.266 10.984 0 17.36-6.672 6.374-6.657 6.374-18.125 0-11.235-6.64-18.032-6.641-6.78-17.672-6.78-12.657 0-19.344 9.687-6.688 9.703-6.688 28.109 0 17.281 8.204 27.563 8.203 10.28 22.015 10.28 3.719 0 7.5-.734t7.89-2.187z" id="DejaVuSans-54"/></defs><g transform="matrix(.1 0 0 -.1 20.878 33.675)"><use xlink:href="#DejaVuSans-54"/><use x="63.623" xlink:href="#DejaVuSans-48"/></g></g></g><g id="text_23"><defs><path d="M5.516 54.688h42.672v-8.204L14.406 7.172h33.782V0H4.297v8.203l33.797 39.313H5.516z" id="DejaVuSans-122"/><path d="M8.594 75.984h20.703V69H17.578V-6.203h11.719v-6.984H8.594z" id="DejaVuSans-91"/><path d="M9.813 72.906h14.703l18.593-49.61 18.703 49.61h14.704V0H66.89v64.016l-18.797-50h-9.907l-18.796 50V0H9.813z" id="DejaVuSans-77"/><path d="M19.672 34.813V8.108H35.5q7.953 0 11.781 3.297 3.844 3.297 3.844 10.078 0 6.844-3.844 10.078-3.828 3.25-11.781 3.25zm0 29.984V42.828h14.61q7.218 0 10.75 2.703 3.546 2.719 3.546 8.282 0 5.515-3.547 8.25-3.531 2.734-10.75 2.734zm-9.86 8.11h25.204q11.28 0 17.375-4.688Q58.5 63.53 58.5 54.89q0-6.703-3.125-10.657-3.125-3.953-9.188-4.922 7.282-1.562 11.313-6.53 4.031-4.954 4.031-12.376 0-9.765-6.64-15.093Q48.25 0 35.984 0H9.812z" id="DejaVuSans-66"/><path d="M30.422 75.984v-89.171H9.719v6.984H21.39V69H9.719v6.984z" id="DejaVuSans-93"/></defs><g transform="matrix(0 -.1 -.1 0 14.798 187.508)"><use xlink:href="#DejaVuSans-102"/><use x="35.205" xlink:href="#DejaVuSans-105"/><use x="62.988" xlink:href="#DejaVuSans-108"/><use x="90.771" xlink:href="#DejaVuSans-101"/><use x="152.295" xlink:href="#DejaVuSans-32"/><use x="184.082" xlink:href="#DejaVuSans-115"/><use x="236.182" xlink:href="#DejaVuSans-105"/><use x="263.965" xlink:href="#DejaVuSans-122"/><use x="316.455" xlink:href="#DejaVuSans-101"/><use x="377.979" xlink:href="#DejaVuSans-32"/><use x="409.766" xlink:href="#DejaVuSans-91"/><use x="448.779" xlink:href="#DejaVuSans-77"/><use x="535.059" xlink:href="#DejaVuSans-66"/><use x="603.662" xlink:href="#DejaVuSans-93"/></g></g></g><path d="M40.603 288.43V22.318" fill="none" stroke="#000" stroke-linecap="square" stroke-width=".8" id="patch_18"/><path d="M397.723 288.43V22.318" fill="none" stroke="#000" stroke-linecap="square" stroke-width=".8" id="patch_19"/><path d="M40.603 288.43h357.12" fill="none" stroke="#000" stroke-linecap="square" stroke-width=".8" id="patch_20"/><path d="M40.603 22.318h357.12" fill="none" stroke="#000" stroke-linecap="square" stroke-width=".8" id="patch_21"/><g transform="matrix(.12 0 0 -.12 193.36 16.318)" id="text_24"><use xlink:href="#DejaVuSans-102"/><use x="35.205" xlink:href="#DejaVuSans-105"/><use x="62.988" xlink:href="#DejaVuSans-108"/><use x="90.771" xlink:href="#DejaVuSans-101"/><use x="152.295" xlink:href="#DejaVuSans-32"/><use x="184.082" xlink:href="#DejaVuSans-115"/><use x="236.182" xlink:href="#DejaVuSans-105"/><use x="263.965" xlink:href="#DejaVuSans-122"/><use x="316.455" xlink:href="#DejaVuSans-101"/><use x="377.979" xlink:href="#DejaVuSans-115"/></g></g></g><defs><clipPath id="p51398d2d3a"><path d="M40.603 22.318h357.12V288.43H40.603z"/></clipPath></defs></svg>