<svg height="434.649" viewBox="0 0 521.309 325.986" width="695.079" xmlns="http://www.w3.org/2000/svg" xmlns:xlink="http://www.w3.org/1999/xlink"><defs><style>*{stroke-linecap:butt;stroke-linejoin:round}</style></defs><g id="figure_1"><path d="M0 325.986h521.31V0H0z" fill="none" id="patch_1"/><g id="axes_1"><path d="M156.99 288.43h357.12V22.318H156.99z" fill="none" id="patch_2"/><path clip-path="url(#pbf1194a5aa)" d="M196.86 21.425v276.016" fill="none" stroke="#d62728" stroke-linecap="square" stroke-width="2" id="line2d_1"/><path clip-path="url(#pbf1194a5aa)" d="M156.99 34.414h14.164v6.495H156.99z" fill="#1f77b4" id="patch_3"/><path clip-path="url(#pbf1194a5aa)" d="M156.99 42.532h14.247v6.495H156.99z" fill="#1f77b4" id="patch_4"/><path clip-path="url(#pbf1194a5aa)" d="M156.99 50.65h15.023v6.495h-15.024z" fill="#1f77b4" id="patch_5"/><path clip-path="url(#pbf1194a5aa)" d="M156.99 58.768h17.247v6.495h-17.248z" fill="#1f77b4" id="patch_6"/><path clip-path="url(#pbf1194a5aa)" d="M156.99 66.887h24.336v6.494H156.99z" fill="#1f77b4" id="patch_7"/><path clip-path="url(#pbf1194a5aa)" d="M156.99 75.005h35.44v6.494h-35.44z" fill="#1f77b4" id="patch_8"/><path clip-path="url(#pbf1194a5aa)" d="M156.99 83.123h39.87v6.494h-39.87z" fill="#1f77b4" id="patch_9"/><path clip-path="url(#pbf1194a5aa)" d="M156.99 91.241h39.87v6.494h-39.87z" fill="#1f77b4" id="patch_10"/><path clip-path="url(#pbf1194a5aa)" d="M156.99 99.36h39.883v6.494H156.99z" fill="#1f77b4" id="patch_11"/><path clip-path="url(#pbf1194a5aa)" d="M156.99 107.477h48.73v6.495h-48.73z" fill="#1f77b4" id="patch_12"/><path clip-path="url(#pbf1194a5aa)" d="M156.99 115.595h53.16v6.495h-53.16z" fill="#1f77b4" id="patch_13"/><path clip-path="url(#pbf1194a5aa)" d="M156.99 123.713h55.374v6.495H156.99z" fill="#1f77b4" id="patch_14"/><path clip-path="url(#pbf1194a5aa)" d="M156.99 131.832h57.054v6.494h-57.055z" fill="#1f77b4" id="patch_15"/><path clip-path="url(#pbf1194a5aa)" d="M156.99 139.95h57.881v6.494H156.99z" fill="#1f77b4" id="patch_16"/><path clip-path="url(#pbf1194a5aa)" d="M156.99 148.068h57.881v6.494H156.99z" fill="#1f77b4" id="patch_17"/><path clip-path="url(#pbf1194a5aa)" d="M156.99 156.186h58.989v6.494h-58.99z" fill="#1f77b4" id="patch_18"/><path clip-path="url(#pbf1194a5aa)" d="M156.99 164.304h58.989v6.495h-58.99z" fill="#1f77b4" id="patch_19"/><path clip-path="url(#pbf1194a5aa)" d="M156.99 172.422h60.096v6.495H156.99z" fill="#1f77b4" id="patch_20"/><path clip-path="url(#pbf1194a5aa)" d="M156.99 180.54h60.224v6.495H156.99z" fill="#1f77b4" id="patch_21"/><path clip-path="url(#pbf1194a5aa)" d="M156.99 188.658h63.547v6.495h-63.548z" fill="#1f77b4" id="patch_22"/><path clip-path="url(#pbf1194a5aa)" d="M156.99 196.777h64.426v6.494H156.99z" fill="#1f77b4" id="patch_23"/><path clip-path="url(#pbf1194a5aa)" d="M156.99 204.895h67.65v6.494h-67.65z" fill="#1f77b4" id="patch_24"/><path clip-path="url(#pbf1194a5aa)" d="M156.99 213.013h73.87v6.494h-73.87z" fill="#1f77b4" id="patch_25"/><path clip-path="url(#pbf1194a5aa)" d="M156.99 221.13h74.295v6.495H156.99z" fill="#1f77b4" id="patch_26"/><path clip-path="url(#pbf1194a5aa)" d="M156.99 229.249h76.786v6.495H156.99z" fill="#1f77b4" id="patch_27"/><path clip-path="url(#pbf1194a5aa)" d="M156.99 237.367h77.192v6.495H156.99z" fill="#1f77b4" id="patch_28"/><path clip-path="url(#pbf1194a5aa)" d="M156.99 245.485h77.192v6.495H156.99z" fill="#1f77b4" id="patch_29"/><path clip-path="url(#pbf1194a5aa)" d="M156.99 253.603h91.036v6.495h-91.037z" fill="#1f77b4" id="patch_30"/><path clip-path="url(#pbf1194a5aa)" d="M156.99 261.722h134.655v6.494H156.989z" fill="#1f77b4" id="patch_31"/><path clip-path="url(#pbf1194a5aa)" d="M156.99 269.84h340.113v6.494H156.99z" fill="#1f77b4" id="patch_32"/><g id="matplotlib.axis_1"><g id="xtick_1"><path clip-path="url(#pbf1194a5aa)" d="M156.99 288.43V22.318" fill="none" stroke="#b0b0b0" stroke-linecap="square" stroke-width=".8" id="line2d_2"/><g id="line2d_3"><defs><path d="M0 0v3.5" id="m46233dd780" stroke="#000" stroke-width=".8"/></defs><use x="156.989" xlink:href="#m46233dd780" y="288.43" stroke="#000" stroke-width=".8"/></g><g id="text_1"><defs><path d="M31.781 66.406q-7.61 0-11.453-7.5Q16.5 51.422 16.5 36.375q0-14.984 3.828-22.484 3.844-7.5 11.453-7.5 7.672 0 11.5 7.5 3.844 7.5 3.844 22.484 0 15.047-3.844 22.531-3.828 7.5-11.5 7.5zm0 7.813q12.266 0 18.735-9.703 6.468-9.688 6.468-28.141 0-18.406-6.468-28.11-6.47-9.687-18.735-9.687-12.25 0-18.718 9.688-6.47 9.703-6.47 28.109 0 18.453 6.47 28.14Q19.53 74.22 31.78 74.22z" id="DejaVuSans-48"/></defs><use xlink:href="#DejaVuSans-48" transform="matrix(.1 0 0 -.1 153.808 303.029)"/></g></g><g id="xtick_2"><path clip-path="url(#pbf1194a5aa)" d="M221.506 288.43V22.318" fill="none" stroke="#b0b0b0" stroke-linecap="square" stroke-width=".8" id="line2d_4"/><use x="221.506" xlink:href="#m46233dd780" y="288.43" stroke="#000" stroke-width=".8" id="line2d_5"/><g id="text_2"><defs><path d="M12.406 8.297h16.11v55.625l-17.532-3.516v8.985l17.438 3.515h9.86V8.296H54.39V0H12.406z" id="DejaVuSans-49"/></defs><g transform="matrix(.1 0 0 -.1 211.962 303.029)"><use xlink:href="#DejaVuSans-49"/><use x="63.623" xlink:href="#DejaVuSans-48"/><use x="127.246" xlink:href="#DejaVuSans-48"/></g></g></g><g id="xtick_3"><path clip-path="url(#pbf1194a5aa)" d="M286.023 288.43V22.318" fill="none" stroke="#b0b0b0" stroke-linecap="square" stroke-width=".8" id="line2d_6"/><use x="286.023" xlink:href="#m46233dd780" y="288.43" stroke="#000" stroke-width=".8" id="line2d_7"/><g id="text_3"><defs><path d="M19.188 8.297h34.421V0H7.33v8.297q5.609 5.812 15.296 15.594 9.703 9.797 12.188 12.64 4.734 5.313 6.609 9 1.89 3.688 1.89 7.25 0 5.813-4.078 9.469-4.078 3.672-10.625 3.672-4.64 0-9.797-1.61-5.14-1.609-11-4.89v9.969Q13.767 71.78 18.938 73q5.188 1.219 9.485 1.219 11.328 0 18.062-5.672 6.735-5.656 6.735-15.125 0-4.5-1.688-8.531-1.672-4.016-6.125-9.485-1.218-1.422-7.765-8.187-6.532-6.766-18.453-18.922z" id="DejaVuSans-50"/></defs><g transform="matrix(.1 0 0 -.1 276.479 303.029)"><use xlink:href="#DejaVuSans-50"/><use x="63.623" xlink:href="#DejaVuSans-48"/><use x="127.246" xlink:href="#DejaVuSans-48"/></g></g></g><g id="xtick_4"><path clip-path="url(#pbf1194a5aa)" d="M350.54 288.43V22.318" fill="none" stroke="#b0b0b0" stroke-linecap="square" stroke-width=".8" id="line2d_8"/><use x="350.539" xlink:href="#m46233dd780" y="288.43" stroke="#000" stroke-width=".8" id="line2d_9"/><g id="text_4"><defs><path d="M40.578 39.313Q47.656 37.797 51.625 33q3.984-4.781 3.984-11.813 0-10.78-7.422-16.703-7.421-5.906-21.093-5.906-4.578 0-9.438.906-4.86.907-10.031 2.72v9.515q4.094-2.39 8.969-3.61 4.89-1.218 10.218-1.218 9.266 0 14.125 3.656 4.86 3.656 4.86 10.64 0 6.454-4.516 10.079-4.515 3.64-12.562 3.64h-8.5v8.11h8.89q7.266 0 11.125 2.906 3.86 2.906 3.86 8.375 0 5.61-3.985 8.61-3.968 3.015-11.39 3.015-4.063 0-8.703-.89-4.641-.876-10.203-2.72v8.782q5.624 1.562 10.53 2.344 4.907.78 9.25.78 11.235 0 17.766-5.109 6.547-5.093 6.547-13.78 0-6.063-3.468-10.235-3.47-4.172-9.86-5.782z" id="DejaVuSans-51"/></defs><g transform="matrix(.1 0 0 -.1 340.996 303.029)"><use xlink:href="#DejaVuSans-51"/><use x="63.623" xlink:href="#DejaVuSans-48"/><use x="127.246" xlink:href="#DejaVuSans-48"/></g></g></g><g id="xtick_5"><path clip-path="url(#pbf1194a5aa)" d="M415.056 288.43V22.318" fill="none" stroke="#b0b0b0" stroke-linecap="square" stroke-width=".8" id="line2d_10"/><use x="415.056" xlink:href="#m46233dd780" y="288.43" stroke="#000" stroke-width=".8" id="line2d_11"/><g id="text_5"><defs><path d="M37.797 64.313L12.89 25.39h24.906zm-2.594 8.593H47.61V25.391h10.407v-8.203H47.609V0h-9.812v17.188H4.89v9.515z" id="DejaVuSans-52"/></defs><g transform="matrix(.1 0 0 -.1 405.512 303.029)"><use xlink:href="#DejaVuSans-52"/><use x="63.623" xlink:href="#DejaVuSans-48"/><use x="127.246" xlink:href="#DejaVuSans-48"/></g></g></g><g id="xtick_6"><path clip-path="url(#pbf1194a5aa)" d="M479.573 288.43V22.318" fill="none" stroke="#b0b0b0" stroke-linecap="square" stroke-width=".8" id="line2d_12"/><use x="479.573" xlink:href="#m46233dd780" y="288.43" stroke="#000" stroke-width=".8" id="line2d_13"/><g id="text_6"><defs><path d="M10.797 72.906h38.719v-8.312H19.828v-17.86q2.14.735 4.281 1.094 2.157.36 4.313.36 12.203 0 19.328-6.688 7.14-6.688 7.14-18.11 0-11.765-7.328-18.296-7.328-6.516-20.656-6.516-4.593 0-9.36.781-4.75.782-9.827 2.344v9.922q4.39-2.39 9.078-3.563 4.687-1.171 9.906-1.171 8.453 0 13.375 4.437 4.938 4.438 4.938 12.063 0 7.609-4.938 12.047-4.922 4.453-13.375 4.453-3.953 0-7.89-.875-3.922-.875-8.016-2.735z" id="DejaVuSans-53"/></defs><g transform="matrix(.1 0 0 -.1 470.03 303.029)"><use xlink:href="#DejaVuSans-53"/><use x="63.623" xlink:href="#DejaVuSans-48"/><use x="127.246" xlink:href="#DejaVuSans-48"/></g></g></g><g id="text_7"><defs><path d="M37.11 75.984V68.5h-8.594q-4.828 0-6.72-1.953-1.874-1.953-1.874-7.031v-4.828h14.797v-6.985H19.922V0H10.89v47.703H2.297v6.984h8.594V58.5q0 9.125 4.25 13.297 4.25 4.187 13.468 4.187z" id="DejaVuSans-102"/><path d="M9.422 54.688h8.984V0H9.422zm0 21.296h8.984v-11.39H9.422z" id="DejaVuSans-105"/><path d="M9.422 75.984h8.984V0H9.422z" id="DejaVuSans-108"/><path d="M56.203 29.594v-4.39H14.891q.593-9.282 5.593-14.142 5-4.859 13.938-4.859 5.172 0 10.031 1.266 4.86 1.265 9.656 3.812v-8.5Q49.266.734 44.187-.344 39.11-1.422 33.892-1.422q-13.094 0-20.735 7.61-7.64 7.625-7.64 20.625 0 13.421 7.25 21.296Q20.016 56 32.328 56q11.031 0 17.453-7.11 6.422-7.093 6.422-19.296zm-8.984 2.64q-.094 7.36-4.125 11.75-4.032 4.407-10.672 4.407-7.516 0-12.031-4.25-4.516-4.25-5.203-11.97z" id="DejaVuSans-101"/><path d="M44.281 53.078v-8.5q-3.797 1.953-7.906 2.922-4.094.984-8.5.984-6.688 0-10.031-2.047-3.344-2.046-3.344-6.156 0-3.125 2.39-4.906 2.391-1.781 9.626-3.39l3.078-.688q9.562-2.047 13.593-5.781 4.032-3.735 4.032-10.422 0-7.625-6.032-12.078-6.03-4.438-16.578-4.438-4.39 0-9.156.86Q10.688.296 5.422 2v9.281q4.984-2.594 9.812-3.89 4.829-1.282 9.579-1.282 6.343 0 9.75 2.172 3.421 2.172 3.421 6.125 0 3.656-2.468 5.61-2.453 1.953-10.813 3.765l-3.125.735q-8.344 1.75-12.062 5.39-3.704 3.64-3.704 9.985 0 7.718 5.47 11.906Q16.75 56 26.811 56q4.97 0 9.36-.734 4.406-.72 8.11-2.188z" id="DejaVuSans-115"/><path d="M5.516 54.688h42.672v-8.204L14.406 7.172h33.782V0H4.297v8.203l33.797 39.313H5.516z" id="DejaVuSans-122"/><path d="M8.594 75.984h20.703V69H17.578V-6.203h11.719v-6.984H8.594z" id="DejaVuSans-91"/><path d="M9.813 72.906h14.703l18.593-49.61 18.703 49.61h14.704V0H66.89v64.016l-18.797-50h-9.907l-18.796 50V0H9.813z" id="DejaVuSans-77"/><path d="M19.672 34.813V8.108H35.5q7.953 0 11.781 3.297 3.844 3.297 3.844 10.078 0 6.844-3.844 10.078-3.828 3.25-11.781 3.25zm0 29.984V42.828h14.61q7.218 0 10.75 2.703 3.546 2.719 3.546 8.282 0 5.515-3.547 8.25-3.531 2.734-10.75 2.734zm-9.86 8.11h25.204q11.28 0 17.375-4.688Q58.5 63.53 58.5 54.89q0-6.703-3.125-10.657-3.125-3.953-9.188-4.922 7.282-1.562 11.313-6.53 4.031-4.954 4.031-12.376 0-9.765-6.64-15.093Q48.25 0 35.984 0H9.812z" id="DejaVuSans-66"/><path d="M30.422 75.984v-89.171H9.719v6.984H21.39V69H9.719v6.984z" id="DejaVuSans-93"/></defs><g transform="matrix(.1 0 0 -.1 303.415 316.707)"><use xlink:href="#DejaVuSans-102"/><use x="35.205" xlink:href="#DejaVuSans-105"/><use x="62.988" xlink:href="#DejaVuSans-108"/><use x="90.771" xlink:href="#DejaVuSans-101"/><use x="152.295" xlink:href="#DejaVuSans-32"/><use x="184.082" xlink:href="#DejaVuSans-115"/><use x="236.182" xlink:href="#DejaVuSans-105"/><use x="263.965" xlink:href="#DejaVuSans-122"/><use x="316.455" xlink:href="#DejaVuSans-101"/><use x="377.979" xlink:href="#DejaVuSans-32"/><use x="409.766" xlink:href="#DejaVuSans-91"/><use x="448.779" xlink:href="#DejaVuSans-77"/><use x="535.059" xlink:href="#DejaVuSans-66"/><use x="603.662" xlink:href="#DejaVuSans-93"/></g></g></g><g id="matplotlib.axis_2"><g id="ytick_1"><path clip-path="url(#pbf1194a5aa)" d="M156.99 37.661h357.12" fill="none" stroke="#b0b0b0" stroke-linecap="square" stroke-width=".8" id="line2d_14"/><g id="line2d_15"><defs><path d="M0 0h-3.5" id="mbea388faff" stroke="#000" stroke-width=".8"/></defs><use x="156.989" xlink:href="#mbea388faff" y="37.661" stroke="#000" stroke-width=".8"/></g><g id="text_8"><defs><path d="M6.297 72.906H16.89l18.125-27.11 18.203 27.11h10.593L40.376 37.891 65.375 0H54.781l-20.5 31L13.625 0H2.985L29 38.922z" id="DejaVuSans-88"/><path d="M19.672 64.797V8.109h11.922q15.093 0 22.093 6.829 7 6.843 7 21.593 0 14.64-7 21.453-7 6.813-22.093 6.813zm-9.86 8.11h20.266q21.188 0 31.094-8.813 9.922-8.813 9.922-27.563 0-18.86-9.969-27.703Q51.172 0 30.078 0H9.813z" id="DejaVuSans-68"/><path d="M9.813 72.906h41.89v-8.312H19.672V43.109h28.906v-8.297H19.672V0h-9.86z" id="DejaVuSans-70"/><path d="M31 75.875q-6.531-11.219-9.719-22.219-3.172-10.984-3.172-22.265 0-11.266 3.203-22.328Q24.517-2 31-13.188h-7.813Q15.875-1.704 12.235 9.375q-3.64 11.078-3.64 22.016 0 10.89 3.61 21.922 3.624 11.046 10.983 22.562z" id="DejaVuSans-40"/><path d="M9.813 72.906h9.859v-29.89h35.844v29.89h9.859V0h-9.86v34.719H19.673V0h-9.86z" id="DejaVuSans-72"/><path d="M11.719 12.406h10.297V4l-8-15.625H7.719l4 15.625z" id="DejaVuSans-44"/><path d="M59.516 10.406v19.578h-16.11v8.11h25.875V6.78Q63.578 2.734 56.687.656 49.813-1.422 42-1.422q-17.094 0-26.75 9.985-9.64 10-9.64 27.812 0 17.875 9.64 27.86 9.656 9.984 26.75 9.984 7.125 0 13.547-1.766 6.422-1.75 11.844-5.172v-10.5q-5.47 4.64-11.625 6.985-6.157 2.343-12.938 2.343-13.39 0-20.11-7.468-6.702-7.47-6.702-22.266 0-14.75 6.703-22.219 6.718-7.469 20.11-7.469 5.218 0 9.312.907 4.109.906 7.375 2.812z" id="DejaVuSans-71"/><path d="M5.61 72.906h57.28v-7.531L16.798 8.297h47.219V0H4.5v7.516l46.094 57.078H5.609z" id="DejaVuSans-90"/><path d="M9.813 72.906h9.859V0h-9.86z" id="DejaVuSans-73"/><path d="M19.672 64.797v-27.39h12.406q6.89 0 10.64 3.562 3.766 3.562 3.766 10.156 0 6.547-3.765 10.11-3.75 3.562-10.64 3.562zm-9.86 8.11h22.266q12.266 0 18.531-5.548 6.282-5.546 6.282-16.234 0-10.797-6.282-16.313-6.265-5.515-18.53-5.515H19.671V0h-9.86z" id="DejaVuSans-80"/><path d="M8.016 75.875h7.812q7.313-11.516 10.953-22.563 3.64-11.03 3.64-21.921 0-10.938-3.64-22.016-3.64-11.078-10.953-22.563H8.016Q14.5-2 17.703 9.063q3.203 11.063 3.203 22.329 0 11.28-3.203 22.265-3.203 11-9.687 22.219z" id="DejaVuSans-41"/></defs><g transform="matrix(.1 0 0 -.1 59.172 41.46)"><use xlink:href="#DejaVuSans-88"/><use x="68.506" xlink:href="#DejaVuSans-68"/><use x="145.508" xlink:href="#DejaVuSans-77"/><use x="231.787" xlink:href="#DejaVuSans-70"/><use x="289.307" xlink:href="#DejaVuSans-32"/><use x="321.094" xlink:href="#DejaVuSans-40"/><use x="360.107" xlink:href="#DejaVuSans-72"/><use x="435.303" xlink:href="#DejaVuSans-68"/><use x="512.305" xlink:href="#DejaVuSans-70"/><use x="569.824" xlink:href="#DejaVuSans-44"/><use x="601.611" xlink:href="#DejaVuSans-32"/><use x="633.398" xlink:href="#DejaVuSans-71"/><use x="710.889" xlink:href="#DejaVuSans-90"/><use x="779.395" xlink:href="#DejaVuSans-73"/><use x="808.887" xlink:href="#DejaVuSans-80"/><use x="869.189" xlink:href="#DejaVuSans-41"/></g></g></g><g id="ytick_2"><path clip-path="url(#pbf1194a5aa)" d="M156.99 45.78h357.12" fill="none" stroke="#b0b0b0" stroke-linecap="square" stroke-width=".8" id="line2d_16"/><use x="156.989" xlink:href="#mbea388faff" y="45.779" stroke="#000" stroke-width=".8" id="line2d_17"/><g id="text_9"><defs><path d="M9.813 72.906h46.093v-8.312H19.672V43.016H54.39v-8.297H19.67V8.297h37.11V0H9.813z" id="DejaVuSans-69"/></defs><g transform="matrix(.1 0 0 -.1 127.342 49.579)"><use xlink:href="#DejaVuSans-77"/><use x="86.279" xlink:href="#DejaVuSans-69"/><use x="149.463" xlink:href="#DejaVuSans-68"/></g></g></g><g id="ytick_3"><path clip-path="url(#pbf1194a5aa)" d="M156.99 53.898h357.12" fill="none" stroke="#b0b0b0" stroke-linecap="square" stroke-width=".8" id="line2d_18"/><use x="156.989" xlink:href="#mbea388faff" y="53.898" stroke="#000" stroke-width=".8" id="line2d_19"/><g id="text_10"><defs><path d="M39.406 66.219q-10.75 0-17.078-8.016-6.312-8-6.312-21.828 0-13.766 6.312-21.781 6.328-8 17.078-8 10.735 0 17.016 8 6.281 8.015 6.281 21.781 0 13.828-6.281 21.828-6.281 8.016-17.016 8.016zm0 8q15.328 0 24.5-10.281 9.188-10.282 9.188-27.563 0-17.234-9.188-27.516-9.172-10.28-24.5-10.28-15.375 0-24.593 10.25-9.204 10.265-9.204 27.546t9.204 27.563q9.218 10.28 24.593 10.28z" id="DejaVuSans-79"/><path d="M34.188 63.188L20.797 26.906h26.812zm-5.579 9.718h11.188L67.578 0h-10.25l-6.64 18.703h-32.86L11.188 0H.78z" id="DejaVuSans-65"/></defs><g transform="matrix(.1 0 0 -.1 119.79 57.697)"><use xlink:href="#DejaVuSans-77"/><use x="86.279" xlink:href="#DejaVuSans-79"/><use x="164.975" xlink:href="#DejaVuSans-65"/><use x="233.383" xlink:href="#DejaVuSans-66"/></g></g></g><g id="ytick_4"><path clip-path="url(#pbf1194a5aa)" d="M156.99 62.016h357.12" fill="none" stroke="#b0b0b0" stroke-linecap="square" stroke-width=".8" id="line2d_20"/><use x="156.989" xlink:href="#mbea388faff" y="62.016" stroke="#000" stroke-width=".8" id="line2d_21"/><g id="text_11"><defs><path d="M28.61 0L.78 72.906h10.297l23.11-61.375 23.14 61.375h10.25L39.797 0z" id="DejaVuSans-86"/><path d="M-.297 72.906h61.672v-8.312H35.5V0h-9.906v64.594H-.296z" id="DejaVuSans-84"/><path d="M8.688 72.906h9.921V28.61q0-11.718 4.235-16.875 4.25-5.14 13.781-5.14 9.469 0 13.719 5.14 4.25 5.157 4.25 16.875v44.297H64.5V27.391q0-14.25-7.063-21.532-7.046-7.28-20.812-7.28-13.828 0-20.89 7.28-7.047 7.282-7.047 21.532z" id="DejaVuSans-85"/><path d="M48.688 27.297q0 9.906-4.079 15.547-4.078 5.64-11.203 5.64-7.14 0-11.218-5.64-4.079-5.64-4.079-15.547 0-9.906 4.078-15.547 4.079-5.64 11.22-5.64 7.124 0 11.202 5.64t4.078 15.547zM18.108 46.39q2.844 4.875 7.157 7.234Q29.594 56 35.594 56q9.968 0 16.187-7.906 6.235-7.907 6.235-20.797T51.78 6.484q-6.218-7.906-16.187-7.906-6 0-10.328 2.375-4.313 2.375-7.157 7.25V0H9.08v75.984h9.03z" id="DejaVuSans-98"/><path d="M54.89 33.016V0h-8.984v32.719q0 7.765-3.031 11.61-3.031 3.858-9.078 3.858-7.281 0-11.484-4.64-4.204-4.625-4.204-12.64V0H9.08v54.688h9.03v-8.5q3.235 4.937 7.594 7.374Q30.078 56 35.797 56q9.422 0 14.25-5.828 4.844-5.828 4.844-17.156z" id="DejaVuSans-110"/><path d="M34.281 27.484q-10.89 0-15.093-2.484-4.204-2.484-4.204-8.5 0-4.781 3.157-7.594 3.156-2.797 8.562-2.797 7.485 0 12 5.297 4.516 5.297 4.516 14.078v2zm17.922 3.72V0H43.22v8.297Q40.14 3.328 35.547.953q-4.594-2.375-11.234-2.375-8.391 0-13.36 4.719Q6 8.016 6 15.922q0 9.219 6.172 13.906 6.187 4.688 18.437 4.688h12.61v.89q0 6.203-4.078 9.594-4.078 3.39-11.453 3.39-4.688 0-9.141-1.124-4.438-1.125-8.531-3.375v8.312q4.921 1.906 9.562 2.844 4.64.953 9.031.953 11.875 0 17.735-6.156 5.86-6.14 5.86-18.64z" id="DejaVuSans-97"/><path d="M41.11 46.297q-1.516.875-3.297 1.281Q36.03 48 33.89 48q-7.625 0-11.703-4.953-4.079-4.953-4.079-14.234V0H9.08v54.688h9.03v-8.5q2.844 4.984 7.375 7.39Q30.031 56 36.531 56q.922 0 2.047-.125 1.125-.11 2.484-.36z" id="DejaVuSans-114"/><path d="M32.172-5.078q-3.797-9.766-7.422-12.735-3.61-2.984-9.656-2.984H7.906v7.516h5.282q3.703 0 5.75 1.765Q21-9.766 23.483-3.219l1.61 4.094-22.11 53.813H12.5l17.094-42.766 17.093 42.766h9.516z" id="DejaVuSans-121"/><path d="M9.813 72.906h9.859V8.296h35.5V0H9.812z" id="DejaVuSans-76"/></defs><g transform="matrix(.1 0 0 -.1 52.872 65.815)"><use xlink:href="#DejaVuSans-86"/><use x="68.408" xlink:href="#DejaVuSans-84"/><use x="129.492" xlink:href="#DejaVuSans-85"/><use x="202.686" xlink:href="#DejaVuSans-32"/><use x="234.473" xlink:href="#DejaVuSans-40"/><use x="273.486" xlink:href="#DejaVuSans-98"/><use x="336.963" xlink:href="#DejaVuSans-105"/><use x="364.746" xlink:href="#DejaVuSans-110"/><use x="428.125" xlink:href="#DejaVuSans-97"/><use x="489.404" xlink:href="#DejaVuSans-114"/><use x="530.518" xlink:href="#DejaVuSans-121"/><use x="589.697" xlink:href="#DejaVuSans-44"/><use x="621.484" xlink:href="#DejaVuSans-32"/><use x="653.271" xlink:href="#DejaVuSans-76"/><use x="708.984" xlink:href="#DejaVuSans-90"/><use x="777.49" xlink:href="#DejaVuSans-77"/><use x="863.77" xlink:href="#DejaVuSans-65"/><use x="932.178" xlink:href="#DejaVuSans-41"/></g></g></g><g id="ytick_5"><path clip-path="url(#pbf1194a5aa)" d="M156.99 70.134h357.12" fill="none" stroke="#b0b0b0" stroke-linecap="square" stroke-width=".8" id="line2d_22"/><use x="156.989" xlink:href="#mbea388faff" y="70.134" stroke="#000" stroke-width=".8" id="line2d_23"/><g transform="matrix(.1 0 0 -.1 63.61 73.933)" id="text_12"><use xlink:href="#DejaVuSans-86"/><use x="68.408" xlink:href="#DejaVuSans-84"/><use x="129.492" xlink:href="#DejaVuSans-85"/><use x="202.686" xlink:href="#DejaVuSans-32"/><use x="234.473" xlink:href="#DejaVuSans-40"/><use x="273.486" xlink:href="#DejaVuSans-98"/><use x="336.963" xlink:href="#DejaVuSans-105"/><use x="364.746" xlink:href="#DejaVuSans-110"/><use x="428.125" xlink:href="#DejaVuSans-97"/><use x="489.404" xlink:href="#DejaVuSans-114"/><use x="530.518" xlink:href="#DejaVuSans-121"/><use x="589.697" xlink:href="#DejaVuSans-44"/><use x="621.484" xlink:href="#DejaVuSans-32"/><use x="653.271" xlink:href="#DejaVuSans-122"/><use x="705.762" xlink:href="#DejaVuSans-108"/><use x="733.545" xlink:href="#DejaVuSans-105"/><use x="761.328" xlink:href="#DejaVuSans-98"/><use x="824.805" xlink:href="#DejaVuSans-41"/></g></g><g id="ytick_6"><path clip-path="url(#pbf1194a5aa)" d="M156.99 78.252h357.12" fill="none" stroke="#b0b0b0" stroke-linecap="square" stroke-width=".8" id="line2d_24"/><use x="156.989" xlink:href="#mbea388faff" y="78.252" stroke="#000" stroke-width=".8" id="line2d_25"/><g id="text_13"><defs><path d="M9.813 72.906h9.859V42.094L52.39 72.906h12.703L28.906 38.922 67.672 0H54.688L19.672 35.11V0h-9.86z" id="DejaVuSans-75"/></defs><g transform="matrix(.1 0 0 -.1 87.88 82.051)"><use xlink:href="#DejaVuSans-86"/><use x="68.408" xlink:href="#DejaVuSans-84"/><use x="129.492" xlink:href="#DejaVuSans-75"/><use x="195.068" xlink:href="#DejaVuSans-32"/><use x="226.855" xlink:href="#DejaVuSans-40"/><use x="265.869" xlink:href="#DejaVuSans-98"/><use x="329.346" xlink:href="#DejaVuSans-105"/><use x="357.129" xlink:href="#DejaVuSans-110"/><use x="420.508" xlink:href="#DejaVuSans-97"/><use x="481.787" xlink:href="#DejaVuSans-114"/><use x="522.9" xlink:href="#DejaVuSans-121"/><use x="582.08" xlink:href="#DejaVuSans-41"/></g></g></g><g id="ytick_7"><path clip-path="url(#pbf1194a5aa)" d="M156.99 86.37h357.12" fill="none" stroke="#b0b0b0" stroke-linecap="square" stroke-width=".8" id="line2d_26"/><use x="156.989" xlink:href="#mbea388faff" y="86.37" stroke="#000" stroke-width=".8" id="line2d_27"/><g transform="matrix(.1 0 0 -.1 78.456 90.17)" id="text_14"><use xlink:href="#DejaVuSans-88"/><use x="68.506" xlink:href="#DejaVuSans-68"/><use x="145.508" xlink:href="#DejaVuSans-77"/><use x="231.787" xlink:href="#DejaVuSans-70"/><use x="289.307" xlink:href="#DejaVuSans-32"/><use x="321.094" xlink:href="#DejaVuSans-40"/><use x="360.107" xlink:href="#DejaVuSans-98"/><use x="423.584" xlink:href="#DejaVuSans-105"/><use x="451.367" xlink:href="#DejaVuSans-110"/><use x="514.746" xlink:href="#DejaVuSans-97"/><use x="576.025" xlink:href="#DejaVuSans-114"/><use x="617.139" xlink:href="#DejaVuSans-121"/><use x="676.318" xlink:href="#DejaVuSans-41"/></g></g><g id="ytick_8"><path clip-path="url(#pbf1194a5aa)" d="M156.99 94.488h357.12" fill="none" stroke="#b0b0b0" stroke-linecap="square" stroke-width=".8" id="line2d_28"/><use x="156.989" xlink:href="#mbea388faff" y="94.488" stroke="#000" stroke-width=".8" id="line2d_29"/><g id="text_15"><defs><path d="M8.5 21.578v33.11h8.984V21.922q0-7.766 3.016-11.656 3.031-3.875 9.094-3.875 7.265 0 11.484 4.64 4.234 4.64 4.234 12.656v31h8.985V0h-8.984v8.406Q42.047 3.422 37.718 1q-4.313-2.422-10.032-2.422-9.421 0-14.312 5.86Q8.5 10.296 8.5 21.578zM31.11 56z" id="DejaVuSans-117"/><path d="M48.781 52.594v-8.407q-3.812 2.11-7.64 3.157-3.828 1.047-7.735 1.047-8.75 0-13.593-5.547-4.829-5.532-4.829-15.547 0-10.016 4.829-15.563 4.843-5.53 13.593-5.53 3.907 0 7.735 1.046 3.828 1.047 7.64 3.156V2.094Q45.016.344 40.984-.531q-4.015-.89-8.562-.89-12.36 0-19.64 7.765-7.266 7.765-7.266 20.953 0 13.375 7.343 21.031Q20.22 56 33.016 56q4.14 0 8.093-.86 3.953-.843 7.672-2.546z" id="DejaVuSans-99"/><path d="M30.61 48.39q-7.22 0-11.422-5.64-4.204-5.64-4.204-15.453 0-9.813 4.172-15.453 4.188-5.64 11.453-5.64 7.188 0 11.375 5.655 4.203 5.672 4.203 15.438 0 9.719-4.203 15.406-4.187 5.688-11.375 5.688zm0 7.61q11.718 0 18.406-7.625 6.703-7.61 6.703-21.078 0-13.422-6.703-21.078-6.688-7.64-18.407-7.64-11.765 0-18.437 7.64-6.656 7.656-6.656 21.078 0 13.469 6.656 21.078Q18.844 56 30.609 56z" id="DejaVuSans-111"/><path d="M52 44.188q3.375 6.062 8.063 8.937Q64.75 56 71.093 56q8.548 0 13.188-5.984 4.64-5.97 4.64-17V0h-9.03v32.719q0 7.86-2.797 11.656-2.781 3.813-8.485 3.813-6.984 0-11.046-4.641-4.047-4.625-4.047-12.64V0h-9.032v32.719q0 7.906-2.78 11.687-2.782 3.782-8.595 3.782-6.89 0-10.953-4.657-4.047-4.656-4.047-12.625V0H9.08v54.688h9.03v-8.5q3.078 5.03 7.375 7.421Q29.781 56 35.687 56q5.97 0 10.141-3.031Q50 49.953 52 44.187z" id="DejaVuSans-109"/><path d="M18.11 8.203v-29H9.077v75.484h9.031v-8.296q2.844 4.875 7.157 7.234Q29.594 56 35.594 56q9.968 0 16.187-7.906 6.235-7.907 6.235-20.797T51.78 6.484q-6.218-7.906-16.187-7.906-6 0-10.328 2.375-4.313 2.375-7.157 7.25zm30.578 19.094q0 9.906-4.079 15.547-4.078 5.64-11.203 5.64-7.14 0-11.218-5.64-4.079-5.64-4.079-15.547 0-9.906 4.078-15.547 4.079-5.64 11.22-5.64 7.124 0 11.202 5.64t4.078 15.547z" id="DejaVuSans-112"/><path d="M45.406 46.39v29.594h8.985V0h-8.985v8.203Q42.578 3.328 38.25.953q-4.313-2.375-10.375-2.375-9.906 0-16.14 7.906-6.22 7.922-6.22 20.813 0 12.89 6.22 20.797Q17.968 56 27.874 56q6.063 0 10.375-2.375 4.328-2.36 7.156-7.234zm-30.61-19.093q0-9.906 4.079-15.547 4.078-5.64 11.203-5.64 7.125 0 11.219 5.64 4.11 5.64 4.11 15.547 0 9.906-4.11 15.547-4.094 5.64-11.219 5.64-7.125 0-11.203-5.64-4.078-5.64-4.078-15.547z" id="DejaVuSans-100"/></defs><g transform="matrix(.1 0 0 -.1 9.188 98.287)"><use xlink:href="#DejaVuSans-88"/><use x="68.506" xlink:href="#DejaVuSans-68"/><use x="145.508" xlink:href="#DejaVuSans-77"/><use x="231.787" xlink:href="#DejaVuSans-70"/><use x="289.307" xlink:href="#DejaVuSans-32"/><use x="321.094" xlink:href="#DejaVuSans-40"/><use x="360.107" xlink:href="#DejaVuSans-72"/><use x="435.303" xlink:href="#DejaVuSans-68"/><use x="512.305" xlink:href="#DejaVuSans-70"/><use x="569.824" xlink:href="#DejaVuSans-44"/><use x="601.611" xlink:href="#DejaVuSans-32"/><use x="633.398" xlink:href="#DejaVuSans-117"/><use x="696.777" xlink:href="#DejaVuSans-110"/><use x="760.156" xlink:href="#DejaVuSans-99"/><use x="815.137" xlink:href="#DejaVuSans-111"/><use x="876.318" xlink:href="#DejaVuSans-109"/><use x="973.73" xlink:href="#DejaVuSans-112"/><use x="1037.207" xlink:href="#DejaVuSans-114"/><use x="1078.289" xlink:href="#DejaVuSans-101"/><use x="1139.813" xlink:href="#DejaVuSans-115"/><use x="1191.912" xlink:href="#DejaVuSans-115"/><use x="1244.012" xlink:href="#DejaVuSans-101"/><use x="1305.535" xlink:href="#DejaVuSans-100"/><use x="1369.012" xlink:href="#DejaVuSans-41"/></g></g></g><g id="ytick_9"><path clip-path="url(#pbf1194a5aa)" d="M156.99 102.606h357.12" fill="none" stroke="#b0b0b0" stroke-linecap="square" stroke-width=".8" id="line2d_30"/><use x="156.989" xlink:href="#mbea388faff" y="102.606" stroke="#000" stroke-width=".8" id="line2d_31"/><g id="text_16"><defs><path d="M54.89 54.688l-19.78-26.61L55.905 0H45.313L29.39 21.484 13.484 0H2.875l21.25 28.61L4.687 54.687h10.594l14.5-19.485 14.5 19.484z" id="DejaVuSans-120"/></defs><g transform="matrix(.1 0 0 -.1 113.742 106.406)"><use xlink:href="#DejaVuSans-69"/><use x="63.184" xlink:href="#DejaVuSans-120"/><use x="122.316" xlink:href="#DejaVuSans-111"/><use x="183.498" xlink:href="#DejaVuSans-100"/><use x="246.975" xlink:href="#DejaVuSans-117"/><use x="310.354" xlink:href="#DejaVuSans-115"/></g></g></g><g id="ytick_10"><path clip-path="url(#pbf1194a5aa)" d="M156.99 110.724h357.12" fill="none" stroke="#b0b0b0" stroke-linecap="square" stroke-width=".8" id="line2d_32"/><use x="156.989" xlink:href="#mbea388faff" y="110.724" stroke="#000" stroke-width=".8" id="line2d_33"/><g id="text_17"><defs><path d="M-.203 72.906h10.61l20.202-29.984 20.078 29.984h10.594L35.5 34.72V0h-9.906v34.719z" id="DejaVuSans-89"/></defs><g transform="matrix(.1 0 0 -.1 89.697 114.524)"><use xlink:href="#DejaVuSans-80"/><use x="60.303" xlink:href="#DejaVuSans-76"/><use x="115.813" xlink:href="#DejaVuSans-89"/><use x="176.896" xlink:href="#DejaVuSans-32"/><use x="208.684" xlink:href="#DejaVuSans-40"/><use x="247.697" xlink:href="#DejaVuSans-98"/><use x="311.174" xlink:href="#DejaVuSans-105"/><use x="338.957" xlink:href="#DejaVuSans-110"/><use x="402.336" xlink:href="#DejaVuSans-97"/><use x="463.615" xlink:href="#DejaVuSans-114"/><use x="504.729" xlink:href="#DejaVuSans-121"/><use x="563.908" xlink:href="#DejaVuSans-41"/></g></g></g><g id="ytick_11"><path clip-path="url(#pbf1194a5aa)" d="M156.99 118.843h357.12" fill="none" stroke="#b0b0b0" stroke-linecap="square" stroke-width=".8" id="line2d_34"/><use x="156.989" xlink:href="#mbea388faff" y="118.843" stroke="#000" stroke-width=".8" id="line2d_35"/><g id="text_18"><defs><path d="M54.89 33.016V0h-8.984v32.719q0 7.765-3.031 11.61-3.031 3.858-9.078 3.858-7.281 0-11.484-4.64-4.204-4.625-4.204-12.64V0H9.08v75.984h9.03V46.188q3.235 4.937 7.594 7.374Q30.078 56 35.797 56q9.422 0 14.25-5.828 4.844-5.828 4.844-17.156z" id="DejaVuSans-104"/><path d="M10.688 12.406H21V0H10.687z" id="DejaVuSans-46"/></defs><g transform="matrix(.1 0 0 -.1 59.269 122.642)"><use xlink:href="#DejaVuSans-71"/><use x="77.49" xlink:href="#DejaVuSans-109"/><use x="174.902" xlink:href="#DejaVuSans-115"/><use x="227.002" xlink:href="#DejaVuSans-104"/><use x="290.381" xlink:href="#DejaVuSans-32"/><use x="322.168" xlink:href="#DejaVuSans-52"/><use x="385.791" xlink:href="#DejaVuSans-46"/><use x="417.578" xlink:href="#DejaVuSans-49"/><use x="481.201" xlink:href="#DejaVuSans-32"/><use x="512.988" xlink:href="#DejaVuSans-40"/><use x="552.002" xlink:href="#DejaVuSans-98"/><use x="615.479" xlink:href="#DejaVuSans-105"/><use x="643.262" xlink:href="#DejaVuSans-110"/><use x="706.641" xlink:href="#DejaVuSans-97"/><use x="767.92" xlink:href="#DejaVuSans-114"/><use x="809.033" xlink:href="#DejaVuSans-121"/><use x="868.213" xlink:href="#DejaVuSans-41"/></g></g></g><g id="ytick_12"><path clip-path="url(#pbf1194a5aa)" d="M156.99 126.96h357.12" fill="none" stroke="#b0b0b0" stroke-linecap="square" stroke-width=".8" id="line2d_36"/><use x="156.989" xlink:href="#mbea388faff" y="126.961" stroke="#000" stroke-width=".8" id="line2d_37"/><g id="text_19"><defs><path d="M53.516 70.516V60.89q-5.61 2.687-10.594 4-4.984 1.328-9.625 1.328-8.047 0-12.422-3.125t-4.375-8.89q0-4.845 2.906-7.313 2.907-2.453 11.016-3.97l5.953-1.218q11.031-2.11 16.281-7.406 5.25-5.297 5.25-14.172 0-10.61-7.11-16.078-7.093-5.469-20.812-5.469-5.172 0-11.015 1.172Q13.14.922 6.89 3.219v10.156q6-3.36 11.765-5.078 5.766-1.703 11.328-1.703 8.438 0 13.032 3.312 4.593 3.328 4.593 9.485 0 5.359-3.297 8.39-3.296 3.032-10.812 4.547L27.484 33.5q-11.03 2.188-15.968 6.875-4.922 4.688-4.922 13.047 0 9.672 6.812 15.234 6.813 5.563 18.766 5.563 5.14 0 10.453-.938 5.328-.922 10.89-2.765z" id="DejaVuSans-83"/></defs><g transform="matrix(.1 0 0 -.1 89.358 130.76)"><use xlink:href="#DejaVuSans-83"/><use x="63.477" xlink:href="#DejaVuSans-84"/><use x="124.561" xlink:href="#DejaVuSans-76"/><use x="180.273" xlink:href="#DejaVuSans-32"/><use x="212.061" xlink:href="#DejaVuSans-40"/><use x="251.074" xlink:href="#DejaVuSans-98"/><use x="314.551" xlink:href="#DejaVuSans-105"/><use x="342.334" xlink:href="#DejaVuSans-110"/><use x="405.713" xlink:href="#DejaVuSans-97"/><use x="466.992" xlink:href="#DejaVuSans-114"/><use x="508.105" xlink:href="#DejaVuSans-121"/><use x="567.285" xlink:href="#DejaVuSans-41"/></g></g></g><g id="ytick_13"><path clip-path="url(#pbf1194a5aa)" d="M156.99 135.079h357.12" fill="none" stroke="#b0b0b0" stroke-linecap="square" stroke-width=".8" id="line2d_38"/><use x="156.989" xlink:href="#mbea388faff" y="135.079" stroke="#000" stroke-width=".8" id="line2d_39"/><g id="text_20"><defs><path d="M64.406 67.281v-10.39q-4.984 4.64-10.625 6.922-5.64 2.296-11.984 2.296-12.5 0-19.14-7.64-6.641-7.64-6.641-22.094 0-14.406 6.64-22.047 6.64-7.64 19.14-7.64 6.345 0 11.985 2.296 5.64 2.297 10.625 6.938V5.609Q59.234 2.094 53.437.33q-5.78-1.75-12.218-1.75-16.563 0-26.094 10.124-9.516 10.14-9.516 27.672 0 17.578 9.516 27.703 9.531 10.14 26.094 10.14 6.531 0 12.312-1.734 5.797-1.734 10.875-5.203z" id="DejaVuSans-67"/></defs><g transform="matrix(.1 0 0 -.1 83.42 138.878)"><use xlink:href="#DejaVuSans-65"/><use x="68.408" xlink:href="#DejaVuSans-110"/><use x="131.787" xlink:href="#DejaVuSans-115"/><use x="183.887" xlink:href="#DejaVuSans-121"/><use x="243.066" xlink:href="#DejaVuSans-115"/><use x="295.166" xlink:href="#DejaVuSans-32"/><use x="326.953" xlink:href="#DejaVuSans-40"/><use x="365.967" xlink:href="#DejaVuSans-65"/><use x="434.375" xlink:href="#DejaVuSans-83"/><use x="497.852" xlink:href="#DejaVuSans-67"/><use x="567.676" xlink:href="#DejaVuSans-73"/><use x="597.168" xlink:href="#DejaVuSans-73"/><use x="626.66" xlink:href="#DejaVuSans-41"/></g></g></g><g id="ytick_14"><path clip-path="url(#pbf1194a5aa)" d="M156.99 143.197h357.12" fill="none" stroke="#b0b0b0" stroke-linecap="square" stroke-width=".8" id="line2d_40"/><use x="156.989" xlink:href="#mbea388faff" y="143.197" stroke="#000" stroke-width=".8" id="line2d_41"/><g transform="matrix(.1 0 0 -.1 130.614 146.996)" id="text_21"><use xlink:href="#DejaVuSans-79"/><use x="78.711" xlink:href="#DejaVuSans-70"/><use x="136.23" xlink:href="#DejaVuSans-70"/></g></g><g id="ytick_15"><path clip-path="url(#pbf1194a5aa)" d="M156.99 151.315h357.12" fill="none" stroke="#b0b0b0" stroke-linecap="square" stroke-width=".8" id="line2d_42"/><use x="156.989" xlink:href="#mbea388faff" y="151.315" stroke="#000" stroke-width=".8" id="line2d_43"/><g transform="matrix(.1 0 0 -.1 95.247 155.114)" id="text_22"><use xlink:href="#DejaVuSans-80"/><use x="60.303" xlink:href="#DejaVuSans-76"/><use x="115.813" xlink:href="#DejaVuSans-89"/><use x="176.896" xlink:href="#DejaVuSans-32"/><use x="208.684" xlink:href="#DejaVuSans-40"/><use x="247.697" xlink:href="#DejaVuSans-65"/><use x="316.105" xlink:href="#DejaVuSans-83"/><use x="379.582" xlink:href="#DejaVuSans-67"/><use x="449.406" xlink:href="#DejaVuSans-73"/><use x="478.898" xlink:href="#DejaVuSans-73"/><use x="508.391" xlink:href="#DejaVuSans-41"/></g></g><g id="ytick_16"><path clip-path="url(#pbf1194a5aa)" d="M156.99 159.433h357.12" fill="none" stroke="#b0b0b0" stroke-linecap="square" stroke-width=".8" id="line2d_44"/><use x="156.989" xlink:href="#mbea388faff" y="159.433" stroke="#000" stroke-width=".8" id="line2d_45"/><g id="text_23"><defs><path d="M3.328 72.906h9.953L28.61 11.281l15.282 61.625h11.093l15.328-61.625 15.282 61.625h10.015L77.297 0H64.89L49.516 63.281 33.984 0H21.578z" id="DejaVuSans-87"/><path d="M2.984 54.688H12.5L29.594 8.797l17.093 45.89h9.516L35.687 0H23.485z" id="DejaVuSans-118"/><path d="M18.313 70.219V54.688h18.5v-6.985h-18.5V18.016q0-6.688 1.828-8.594 1.828-1.906 7.453-1.906h9.218V0h-9.218q-10.407 0-14.36 3.875-3.953 3.89-3.953 14.14v29.688H2.687v6.984h6.594V70.22z" id="DejaVuSans-116"/><path d="M9.422 54.688h8.984V-.984q0-10.438-3.984-15.125-3.969-4.688-12.813-4.688h-3.421v7.61H.594q5.125 0 6.968 2.374 1.86 2.36 1.86 9.829zm0 21.296h8.984v-11.39H9.422z" id="DejaVuSans-106"/></defs><g transform="matrix(.1 0 0 -.1 76.305 163.232)"><use xlink:href="#DejaVuSans-87"/><use x="98.783" xlink:href="#DejaVuSans-97"/><use x="160.063" xlink:href="#DejaVuSans-118"/><use x="219.242" xlink:href="#DejaVuSans-101"/><use x="280.766" xlink:href="#DejaVuSans-102"/><use x="315.971" xlink:href="#DejaVuSans-114"/><use x="357.053" xlink:href="#DejaVuSans-111"/><use x="418.234" xlink:href="#DejaVuSans-110"/><use x="481.613" xlink:href="#DejaVuSans-116"/><use x="520.822" xlink:href="#DejaVuSans-32"/><use x="552.609" xlink:href="#DejaVuSans-46"/><use x="584.396" xlink:href="#DejaVuSans-111"/><use x="645.578" xlink:href="#DejaVuSans-98"/><use x="709.055" xlink:href="#DejaVuSans-106"/></g></g></g><g id="ytick_17"><path clip-path="url(#pbf1194a5aa)" d="M156.99 167.551h357.12" fill="none" stroke="#b0b0b0" stroke-linecap="square" stroke-width=".8" id="line2d_46"/><use x="156.989" xlink:href="#mbea388faff" y="167.551" stroke="#000" stroke-width=".8" id="line2d_47"/><g id="text_24"><defs><path d="M9.813 72.906h9.859V5.078q0-13.187-5-19.14-5-5.954-16.094-5.954h-3.75v8.297h3.078q6.531 0 9.219 3.672Q9.813-4.39 9.813 5.078z" id="DejaVuSans-74"/></defs><g transform="matrix(.1 0 0 -.1 132.306 171.35)"><use xlink:href="#DejaVuSans-79"/><use x="78.711" xlink:href="#DejaVuSans-66"/><use x="147.314" xlink:href="#DejaVuSans-74"/></g></g></g><g id="ytick_18"><path clip-path="url(#pbf1194a5aa)" d="M156.99 175.67h357.12" fill="none" stroke="#b0b0b0" stroke-linecap="square" stroke-width=".8" id="line2d_48"/><use x="156.989" xlink:href="#mbea388faff" y="175.669" stroke="#000" stroke-width=".8" id="line2d_49"/><g transform="matrix(.1 0 0 -.1 93.43 179.469)" id="text_25"><use xlink:href="#DejaVuSans-86"/><use x="68.408" xlink:href="#DejaVuSans-84"/><use x="129.492" xlink:href="#DejaVuSans-75"/><use x="195.068" xlink:href="#DejaVuSans-32"/><use x="226.855" xlink:href="#DejaVuSans-40"/><use x="265.869" xlink:href="#DejaVuSans-65"/><use x="334.277" xlink:href="#DejaVuSans-83"/><use x="397.754" xlink:href="#DejaVuSans-67"/><use x="467.578" xlink:href="#DejaVuSans-73"/><use x="497.07" xlink:href="#DejaVuSans-73"/><use x="526.563" xlink:href="#DejaVuSans-41"/></g></g><g id="ytick_19"><path clip-path="url(#pbf1194a5aa)" d="M156.99 183.788h357.12" fill="none" stroke="#b0b0b0" stroke-linecap="square" stroke-width=".8" id="line2d_50"/><use x="156.989" xlink:href="#mbea388faff" y="183.788" stroke="#000" stroke-width=".8" id="line2d_51"/><g transform="matrix(.1 0 0 -.1 89.028 187.587)" id="text_26"><use xlink:href="#DejaVuSans-88"/><use x="68.506" xlink:href="#DejaVuSans-68"/><use x="145.508" xlink:href="#DejaVuSans-77"/><use x="231.787" xlink:href="#DejaVuSans-70"/><use x="289.307" xlink:href="#DejaVuSans-32"/><use x="321.094" xlink:href="#DejaVuSans-40"/><use x="360.107" xlink:href="#DejaVuSans-88"/><use x="428.613" xlink:href="#DejaVuSans-77"/><use x="514.893" xlink:href="#DejaVuSans-76"/><use x="570.605" xlink:href="#DejaVuSans-41"/></g></g><g id="ytick_20"><path clip-path="url(#pbf1194a5aa)" d="M156.99 191.906h357.12" fill="none" stroke="#b0b0b0" stroke-linecap="square" stroke-width=".8" id="line2d_52"/><use x="156.989" xlink:href="#mbea388faff" y="191.906" stroke="#000" stroke-width=".8" id="line2d_53"/><g transform="matrix(.1 0 0 -.1 122.16 195.705)" id="text_27"><use xlink:href="#DejaVuSans-77"/><use x="86.279" xlink:href="#DejaVuSans-101"/><use x="147.803" xlink:href="#DejaVuSans-100"/><use x="211.279" xlink:href="#DejaVuSans-105"/><use x="239.063" xlink:href="#DejaVuSans-116"/></g></g><g id="ytick_21"><path clip-path="url(#pbf1194a5aa)" d="M156.99 200.024h357.12" fill="none" stroke="#b0b0b0" stroke-linecap="square" stroke-width=".8" id="line2d_54"/><use x="156.989" xlink:href="#mbea388faff" y="200.024" stroke="#000" stroke-width=".8" id="line2d_55"/><g transform="matrix(.1 0 0 -.1 92.669 203.823)" id="text_28"><use xlink:href="#DejaVuSans-86"/><use x="68.408" xlink:href="#DejaVuSans-84"/><use x="129.492" xlink:href="#DejaVuSans-85"/><use x="202.686" xlink:href="#DejaVuSans-32"/><use x="234.473" xlink:href="#DejaVuSans-40"/><use x="273.486" xlink:href="#DejaVuSans-65"/><use x="341.895" xlink:href="#DejaVuSans-83"/><use x="405.371" xlink:href="#DejaVuSans-67"/><use x="475.195" xlink:href="#DejaVuSans-73"/><use x="504.688" xlink:href="#DejaVuSans-73"/><use x="534.18" xlink:href="#DejaVuSans-41"/></g></g><g id="ytick_22"><path clip-path="url(#pbf1194a5aa)" d="M156.99 208.142h357.12" fill="none" stroke="#b0b0b0" stroke-linecap="square" stroke-width=".8" id="line2d_56"/><use x="156.989" xlink:href="#mbea388faff" y="208.142" stroke="#000" stroke-width=".8" id="line2d_57"/><g transform="matrix(.1 0 0 -.1 112.623 211.941)" id="text_29"><use xlink:href="#DejaVuSans-80"/><use x="60.256" xlink:href="#DejaVuSans-101"/><use x="121.779" xlink:href="#DejaVuSans-114"/><use x="162.877" xlink:href="#DejaVuSans-109"/><use x="260.289" xlink:href="#DejaVuSans-97"/><use x="321.568" xlink:href="#DejaVuSans-115"/></g></g><g id="ytick_23"><path clip-path="url(#pbf1194a5aa)" d="M156.99 216.26h357.12" fill="none" stroke="#b0b0b0" stroke-linecap="square" stroke-width=".8" id="line2d_58"/><use x="156.989" xlink:href="#mbea388faff" y="216.26" stroke="#000" stroke-width=".8" id="line2d_59"/><g id="text_30"><defs><path d="M14.797 27.297q0-9.906 4.078-15.547 4.078-5.64 11.203-5.64 7.125 0 11.219 5.64 4.11 5.64 4.11 15.547 0 9.906-4.11 15.547-4.094 5.64-11.219 5.64-7.125 0-11.203-5.64-4.078-5.64-4.078-15.547zm30.61-19.094Q42.577 3.328 38.25.953q-4.313-2.375-10.375-2.375-9.906 0-16.14 7.906-6.22 7.922-6.22 20.813 0 12.89 6.22 20.797Q17.968 56 27.874 56q6.063 0 10.375-2.375 4.328-2.36 7.156-7.234v8.297h8.985v-75.485h-8.985z" id="DejaVuSans-113"/></defs><g transform="matrix(.1 0 0 -.1 112.777 220.06)"><use xlink:href="#DejaVuSans-65"/><use x="68.408" xlink:href="#DejaVuSans-98"/><use x="131.885" xlink:href="#DejaVuSans-97"/><use x="193.164" xlink:href="#DejaVuSans-113"/><use x="256.641" xlink:href="#DejaVuSans-117"/><use x="320.02" xlink:href="#DejaVuSans-115"/></g></g></g><g id="ytick_24"><path clip-path="url(#pbf1194a5aa)" d="M156.99 224.378h357.12" fill="none" stroke="#b0b0b0" stroke-linecap="square" stroke-width=".8" id="line2d_60"/><use x="156.989" xlink:href="#mbea388faff" y="224.378" stroke="#000" stroke-width=".8" id="line2d_61"/><g id="text_31"><defs><path d="M4.89 31.39h26.313v-8H4.891z" id="DejaVuSans-45"/></defs><g transform="matrix(.1 0 0 -.1 104.36 228.177)"><use xlink:href="#DejaVuSans-65"/><use x="68.314" xlink:href="#DejaVuSans-86"/><use x="136.723" xlink:href="#DejaVuSans-83"/><use x="200.199" xlink:href="#DejaVuSans-45"/><use x="236.283" xlink:href="#DejaVuSans-85"/><use x="309.477" xlink:href="#DejaVuSans-67"/><use x="379.301" xlink:href="#DejaVuSans-68"/></g></g></g><g id="ytick_25"><path clip-path="url(#pbf1194a5aa)" d="M156.99 232.496h357.12" fill="none" stroke="#b0b0b0" stroke-linecap="square" stroke-width=".8" id="line2d_62"/><use x="156.989" xlink:href="#mbea388faff" y="232.496" stroke="#000" stroke-width=".8" id="line2d_63"/><g transform="matrix(.1 0 0 -.1 7.2 236.295)" id="text_32"><use xlink:href="#DejaVuSans-86"/><use x="68.408" xlink:href="#DejaVuSans-84"/><use x="129.492" xlink:href="#DejaVuSans-85"/><use x="202.686" xlink:href="#DejaVuSans-32"/><use x="234.473" xlink:href="#DejaVuSans-40"/><use x="273.486" xlink:href="#DejaVuSans-98"/><use x="336.963" xlink:href="#DejaVuSans-105"/><use x="364.746" xlink:href="#DejaVuSans-110"/><use x="428.125" xlink:href="#DejaVuSans-97"/><use x="489.404" xlink:href="#DejaVuSans-114"/><use x="530.518" xlink:href="#DejaVuSans-121"/><use x="589.697" xlink:href="#DejaVuSans-44"/><use x="621.484" xlink:href="#DejaVuSans-32"/><use x="653.271" xlink:href="#DejaVuSans-117"/><use x="716.65" xlink:href="#DejaVuSans-110"/><use x="780.029" xlink:href="#DejaVuSans-99"/><use x="835.01" xlink:href="#DejaVuSans-111"/><use x="896.191" xlink:href="#DejaVuSans-109"/><use x="993.604" xlink:href="#DejaVuSans-112"/><use x="1057.08" xlink:href="#DejaVuSans-114"/><use x="1098.162" xlink:href="#DejaVuSans-101"/><use x="1159.686" xlink:href="#DejaVuSans-115"/><use x="1211.785" xlink:href="#DejaVuSans-115"/><use x="1263.885" xlink:href="#DejaVuSans-101"/><use x="1325.408" xlink:href="#DejaVuSans-100"/><use x="1388.885" xlink:href="#DejaVuSans-41"/></g></g><g id="ytick_26"><path clip-path="url(#pbf1194a5aa)" d="M156.99 240.614h357.12" fill="none" stroke="#b0b0b0" stroke-linecap="square" stroke-width=".8" id="line2d_64"/><use x="156.989" xlink:href="#mbea388faff" y="240.614" stroke="#000" stroke-width=".8" id="line2d_65"/><g transform="matrix(.1 0 0 -.1 64.819 244.414)" id="text_33"><use xlink:href="#DejaVuSans-71"/><use x="77.49" xlink:href="#DejaVuSans-109"/><use x="174.902" xlink:href="#DejaVuSans-115"/><use x="227.002" xlink:href="#DejaVuSans-104"/><use x="290.381" xlink:href="#DejaVuSans-32"/><use x="322.168" xlink:href="#DejaVuSans-52"/><use x="385.791" xlink:href="#DejaVuSans-46"/><use x="417.578" xlink:href="#DejaVuSans-49"/><use x="481.201" xlink:href="#DejaVuSans-32"/><use x="512.988" xlink:href="#DejaVuSans-40"/><use x="552.002" xlink:href="#DejaVuSans-65"/><use x="620.41" xlink:href="#DejaVuSans-83"/><use x="683.887" xlink:href="#DejaVuSans-67"/><use x="753.711" xlink:href="#DejaVuSans-73"/><use x="783.203" xlink:href="#DejaVuSans-73"/><use x="812.695" xlink:href="#DejaVuSans-41"/></g></g><g id="ytick_27"><path clip-path="url(#pbf1194a5aa)" d="M156.99 248.733h357.12" fill="none" stroke="#b0b0b0" stroke-linecap="square" stroke-width=".8" id="line2d_66"/><use x="156.989" xlink:href="#mbea388faff" y="248.733" stroke="#000" stroke-width=".8" id="line2d_67"/><g transform="matrix(.1 0 0 -.1 120.8 252.532)" id="text_34"><use xlink:href="#DejaVuSans-77"/><use x="86.279" xlink:href="#DejaVuSans-68"/><use x="163.281" xlink:href="#DejaVuSans-80"/><use x="223.49" xlink:href="#DejaVuSans-65"/></g></g><g id="ytick_28"><path clip-path="url(#pbf1194a5aa)" d="M156.99 256.85h357.12" fill="none" stroke="#b0b0b0" stroke-linecap="square" stroke-width=".8" id="line2d_68"/><use x="156.989" xlink:href="#mbea388faff" y="256.851" stroke="#000" stroke-width=".8" id="line2d_69"/><g id="text_35"><defs><path d="M9.813 72.906h13.28l32.329-60.984v60.984h9.562V0h-13.28L19.39 60.984V0H9.813z" id="DejaVuSans-78"/></defs><g transform="matrix(.1 0 0 -.1 110.673 260.65)"><use xlink:href="#DejaVuSans-78"/><use x="74.805" xlink:href="#DejaVuSans-97"/><use x="136.084" xlink:href="#DejaVuSans-115"/><use x="188.184" xlink:href="#DejaVuSans-116"/><use x="227.393" xlink:href="#DejaVuSans-114"/><use x="268.506" xlink:href="#DejaVuSans-97"/><use x="329.785" xlink:href="#DejaVuSans-110"/></g></g></g><g id="ytick_29"><path clip-path="url(#pbf1194a5aa)" d="M156.99 264.969h357.12" fill="none" stroke="#b0b0b0" stroke-linecap="square" stroke-width=".8" id="line2d_70"/><use x="156.989" xlink:href="#mbea388faff" y="264.969" stroke="#000" stroke-width=".8" id="line2d_71"/><g transform="matrix(.1 0 0 -.1 96.106 268.768)" id="text_36"><use xlink:href="#DejaVuSans-68"/><use x="77.002" xlink:href="#DejaVuSans-111"/><use x="138.184" xlink:href="#DejaVuSans-108"/><use x="165.967" xlink:href="#DejaVuSans-102"/><use x="201.172" xlink:href="#DejaVuSans-105"/><use x="228.955" xlink:href="#DejaVuSans-110"/><use x="292.334" xlink:href="#DejaVuSans-45"/><use x="328.34" xlink:href="#DejaVuSans-88"/><use x="396.846" xlink:href="#DejaVuSans-77"/><use x="483.125" xlink:href="#DejaVuSans-76"/></g></g><g id="ytick_30"><path clip-path="url(#pbf1194a5aa)" d="M156.99 273.087h357.12" fill="none" stroke="#b0b0b0" stroke-linecap="square" stroke-width=".8" id="line2d_72"/><use x="156.989" xlink:href="#mbea388faff" y="273.087" stroke="#000" stroke-width=".8" id="line2d_73"/><g transform="matrix(.1 0 0 -.1 94.908 276.886)" id="text_37"><use xlink:href="#DejaVuSans-83"/><use x="63.477" xlink:href="#DejaVuSans-84"/><use x="124.561" xlink:href="#DejaVuSans-76"/><use x="180.273" xlink:href="#DejaVuSans-32"/><use x="212.061" xlink:href="#DejaVuSans-40"/><use x="251.074" xlink:href="#DejaVuSans-65"/><use x="319.482" xlink:href="#DejaVuSans-83"/><use x="382.959" xlink:href="#DejaVuSans-67"/><use x="452.783" xlink:href="#DejaVuSans-73"/><use x="482.275" xlink:href="#DejaVuSans-73"/><use x="511.768" xlink:href="#DejaVuSans-41"/></g></g></g><path d="M156.99 288.43V22.318" fill="none" stroke="#000" stroke-linecap="square" stroke-width=".8" id="patch_33"/><path d="M514.11 288.43V22.318" fill="none" stroke="#000" stroke-linecap="square" stroke-width=".8" id="patch_34"/><path d="M156.99 288.43h357.12" fill="none" stroke="#000" stroke-linecap="square" stroke-width=".8" id="patch_35"/><path d="M156.99 22.318h357.12" fill="none" stroke="#000" stroke-linecap="square" stroke-width=".8" id="patch_36"/><g transform="matrix(.12 0 0 -.12 309.745 16.318)" id="text_38"><use xlink:href="#DejaVuSans-102"/><use x="35.205" xlink:href="#DejaVuSans-105"/><use x="62.988" xlink:href="#DejaVuSans-108"/><use x="90.771" xlink:href="#DejaVuSans-101"/><use x="152.295" xlink:href="#DejaVuSans-32"/><use x="184.082" xlink:href="#DejaVuSans-115"/><use x="236.182" xlink:href="#DejaVuSans-105"/><use x="263.965" xlink:href="#DejaVuSans-122"/><use x="316.455" xlink:href="#DejaVuSans-101"/><use x="377.979" xlink:href="#DejaVuSans-115"/></g></g></g><defs><clipPath id="pbf1194a5aa"><path d="M156.989 22.318h357.12V288.43h-357.12z"/></clipPath></defs></svg>