<svg xmlns="http://www.w3.org/2000/svg" id="svg460" width="3.613" height="1.015"><style id="style2">polygon{fill:none;stroke:#000;stroke-width:2%}</style><path id="polygon4" fill="#00dda0" stroke="#000" stroke-width=".015" stroke-linejoin="bevel" d="M.764.104L.847.076l.011.079z"/><path id="polygon6" fill="#00dda0" stroke="#000" stroke-width=".015" stroke-linejoin="bevel" d="M.208.807L.142.757l.02.108z"/><path id="polygon8" fill="#00dda0" stroke="#000" stroke-width=".015" stroke-linejoin="bevel" d="M.657.907L.563.945l.045.064z"/><path id="polygon10" fill="#00dda0" stroke="#000" stroke-width=".015" stroke-linejoin="bevel" d="M.764.104l.043.104.051-.053z"/><path id="polygon12" fill="#00dda0" stroke="#000" stroke-width=".015" stroke-linejoin="bevel" d="M.253.912l-.085.03L.16.866z"/><path id="polygon14" fill="#00dda0" stroke="#000" stroke-width=".015" stroke-linejoin="bevel" d="M.287.542l.07-.035.03.1z"/><path id="polygon16" fill="#00dda0" stroke="#000" stroke-width=".015" stroke-linejoin="bevel" d="M.858.154l-.05.054L.9.26z"/><path id="polygon18" fill="#00dda0" stroke="#000" stroke-width=".015" stroke-linejoin="bevel" d="M.357.108L.454.07.408.008z"/><path id="polygon20" fill="#00dda0" stroke="#000" stroke-width=".015" stroke-linejoin="bevel" d="M.233.408l-.07.048.058.051z"/><path id="polygon22" fill="#00dda0" stroke="#000" stroke-width=".015" stroke-linejoin="bevel" d="M.858.154l.079.024L.9.26z"/><path id="polygon24" fill="#00dda0" stroke="#000" stroke-width=".015" stroke-linejoin="bevel" d="M.777.607L.811.54.718.557z"/><path id="polygon26" fill="#00dda0" stroke="#000" stroke-width=".015" stroke-linejoin="bevel" d="M.233.408l-.012.1.074-.05z"/><path id="polygon28" fill="#00dda0" stroke="#000" stroke-width=".015" stroke-linejoin="bevel" d="M.657.907l-.05.1h.1z"/><path id="polygon30" fill="#00dda0" stroke="#000" stroke-width=".015" stroke-linejoin="bevel" d="M.108.307L.077.242l-.07.066z"/><path id="polygon32" fill="#00dda0" stroke="#000" stroke-width=".015" stroke-linejoin="bevel" d="M.408.007h-.1l.05.1z"/><path id="polygon34" fill="#00dda0" stroke="#000" stroke-width=".015" stroke-linejoin="bevel" d="M.9.26l.042.083-.069.022z"/><path id="polygon36" fill="#00dda0" stroke="#000" stroke-width=".015" stroke-linejoin="bevel" d="M.9.26l.042.083.066-.036z"/><path id="polygon38" fill="#00dda0" stroke="#000" stroke-width=".015" stroke-linejoin="bevel" d="M.777.607L.873.582.813.54z"/><path id="polygon40" fill="#00dda0" stroke="#000" stroke-width=".015" stroke-linejoin="bevel" d="M.295.158L.212.132l.02.076z"/><path id="polygon42" fill="#00dda0" stroke="#000" stroke-width=".015" stroke-linejoin="bevel" d="M.287.542l.01.065h.09z"/><path id="polygon44" fill="#00dda0" stroke="#000" stroke-width=".015" stroke-linejoin="bevel" d="M.388.607l.02-.055-.05-.045z"/><path id="polygon46" fill="#00dda0" stroke="#000" stroke-width=".015" stroke-linejoin="bevel" d="M.807.307v.1L.873.367z"/><path id="polygon48" fill="#00dda0" stroke="#000" stroke-width=".015" stroke-linejoin="bevel" d="M.773.478L.811.54.866.476z"/><path id="polygon50" fill="#00dda0" stroke="#000" stroke-width=".015" stroke-linejoin="bevel" d="M.108.307L.1.41.17.358z"/><path id="polygon52" fill="#00dda0" stroke="#000" stroke-width=".015" stroke-linejoin="bevel" d="M.807.307L.9.262.807.208z"/><path id="polygon54" fill="#00dda0" stroke="#000" stroke-width=".015" stroke-linejoin="bevel" d="M.144.65l.064.057-.066.05z"/><path id="polygon56" fill="#00dda0" stroke="#000" stroke-width=".015" stroke-linejoin="bevel" d="M.208.807l.045.105.044-.105z"/><path id="polygon58" fill="#00dda0" stroke="#000" stroke-width=".015" stroke-linejoin="bevel" d="M.807.208L.764.104.717.208z"/><path id="polygon60" fill="#00dda0" stroke="#000" stroke-width=".015" stroke-linejoin="bevel" d="M.142.756H.069L.075.67z"/><path id="polygon62" fill="#00dda0" stroke="#000" stroke-width=".015" stroke-linejoin="bevel" d="M.007.707l.061.05L.076.67z"/><path id="polygon64" fill="#00dda0" stroke="#000" stroke-width=".015" stroke-linejoin="bevel" d="M1.008.607L.938.64l.07.068z"/><path id="polygon66" fill="#00dda0" stroke="#000" stroke-width=".015" stroke-linejoin="bevel" d="M.253.912L.208.807.162.866z"/><path id="polygon68" fill="#00dda0" stroke="#000" stroke-width=".015" stroke-linejoin="bevel" d="M1.008.707L.94.767l.068.04z"/><path id="polygon70" fill="#00dda0" stroke="#000" stroke-width=".015" stroke-linejoin="bevel" d="M.717.408l.056.07.034-.07z"/><path id="polygon72" fill="#00dda0" stroke="#000" stroke-width=".015" stroke-linejoin="bevel" d="M.208.707v-.1L.144.65z"/><path id="polygon74" fill="#00dda0" stroke="#000" stroke-width=".015" stroke-linejoin="bevel" d="M.745.94l.063.068L.843.95z"/><path id="polygon76" fill="#00dda0" stroke="#000" stroke-width=".015" stroke-linejoin="bevel" d="M.211.132L.146.188l.087.02z"/><path id="polygon78" fill="#00dda0" stroke="#000" stroke-width=".015" stroke-linejoin="bevel" d="M.208.607L.287.542.222.507z"/><path id="polygon80" fill="#00dda0" stroke="#000" stroke-width=".015" stroke-linejoin="bevel" d="M.627.208L.597.136l-.06.072z"/><path id="polygon82" fill="#00dda0" stroke="#000" stroke-width=".015" stroke-linejoin="bevel" d="M.388.807l.03.072.06-.072z"/><path id="polygon84" fill="#00dda0" stroke="#000" stroke-width=".015" stroke-linejoin="bevel" d="M1.008.307L.943.343l.065.065z"/><path id="polygon86" fill="#00dda0" stroke="#000" stroke-width=".015" stroke-linejoin="bevel" d="M.222.507L.162.455.15.547z"/><path id="polygon88" fill="#00dda0" stroke="#000" stroke-width=".015" stroke-linejoin="bevel" d="M.707.007l.057.097.043-.096z"/><path id="polygon90" fill="#00dda0" stroke="#000" stroke-width=".015" stroke-linejoin="bevel" d="M.307 1.008L.254.913l-.045.095z"/><path id="polygon92" fill="#00dda0" stroke="#000" stroke-width=".015" stroke-linejoin="bevel" d="M1.008.208L.9.26l.107.046z"/><path id="polygon94" fill="#00dda0" stroke="#000" stroke-width=".015" stroke-linejoin="bevel" d="M.007.807l.061-.05-.06-.05z"/><path id="polygon96" fill="#00dda0" stroke="#000" stroke-width=".015" stroke-linejoin="bevel" d="M.297.607L.287.542l-.08.065z"/><path id="polygon98" fill="#00dda0" stroke="#000" stroke-width=".015" stroke-linejoin="bevel" d="M.657.907L.595.872.563.945z"/><path id="polygon100" fill="#00dda0" stroke="#000" stroke-width=".015" stroke-linejoin="bevel" d="M.9.26L.807.307l.066.058z"/><path id="polygon102" fill="#00dda0" stroke="#000" stroke-width=".015" stroke-linejoin="bevel" d="M.707 1.008L.745.94.657.908z"/><path id="polygon104" fill="#00dda0" stroke="#000" stroke-width=".015" stroke-linejoin="bevel" d="M.307.007L.272.076l.086.033z"/><path id="polygon106" fill="#00dda0" stroke="#000" stroke-width=".015" stroke-linejoin="bevel" d="M.007.307l.07-.065-.07-.034z"/><path id="polygon108" fill="#00dda0" stroke="#000" stroke-width=".015" stroke-linejoin="bevel" d="M.007.707L.076.671.008.607z"/><path id="polygon110" fill="#00dda0" stroke="#000" stroke-width=".015" stroke-linejoin="bevel" d="M.607 1.008L.563.945l-.055.063z"/><path id="polygon112" fill="#00dda0" stroke="#000" stroke-width=".015" stroke-linejoin="bevel" d="M.408.007l.045.064.054-.063z"/><path id="polygon114" fill="#00dda0" stroke="#000" stroke-width=".015" stroke-linejoin="bevel" d="M.707.007L.661.072l.103.033z"/><path id="polygon116" fill="#00dda0" stroke="#000" stroke-width=".015" stroke-linejoin="bevel" d="M.307 1.008L.355.945.254.913z"/><path id="polygon118" fill="#00dda0" stroke="#000" stroke-width=".015" stroke-linejoin="bevel" d="M.357.108L.42.143.453.07z"/><path id="polygon120" fill="#00dda0" stroke="#000" stroke-width=".015" stroke-linejoin="bevel" d="M.108.307l-.05.048L.1.41z"/><path id="polygon122" fill="#00dda0" stroke="#000" stroke-width=".015" stroke-linejoin="bevel" d="M.764.104L.689.14l.03.067z"/><path id="polygon124" fill="#00dda0" stroke="#000" stroke-width=".015" stroke-linejoin="bevel" d="M.253.912L.327.874.296.807z"/><path id="polygon126" fill="#00dda0" stroke="#000" stroke-width=".015" stroke-linejoin="bevel" d="M.144.65l-.07.02.068.086z"/><path id="polygon128" fill="#00dda0" stroke="#000" stroke-width=".015" stroke-linejoin="bevel" d="M.745.94L.802.882l.041.07z"/><path id="polygon130" fill="#00dda0" stroke="#000" stroke-width=".015" stroke-linejoin="bevel" d="M.717.857l.086.024L.776.807z"/><path id="polygon132" fill="#00dda0" stroke="#000" stroke-width=".015" stroke-linejoin="bevel" d="M.764.104L.66.07l.028.07z"/><path id="polygon134" fill="#00dda0" stroke="#000" stroke-width=".015" stroke-linejoin="bevel" d="M.253.912l.102.032-.028-.07z"/><path id="polygon136" fill="#00dda0" stroke="#000" stroke-width=".015" stroke-linejoin="bevel" d="M.897.707L.938.64l-.1.018z"/><path id="polygon138" fill="#00dda0" stroke="#000" stroke-width=".015" stroke-linejoin="bevel" d="M.837.757l.103.01-.042-.06z"/><path id="polygon140" fill="#00dda0" stroke="#000" stroke-width=".015" stroke-linejoin="bevel" d="M.627.208L.688.14.599.136z"/><path id="polygon142" fill="#00dda0" stroke="#000" stroke-width=".015" stroke-linejoin="bevel" d="M.388.807L.327.875l.09.005z"/><path id="polygon144" fill="#00dda0" stroke="#000" stroke-width=".015" stroke-linejoin="bevel" d="M.27.075L.208.008.174.063z"/><path id="polygon146" fill="#00dda0" stroke="#000" stroke-width=".015" stroke-linejoin="bevel" d="M.811.54l.062.042L.865.476z"/><path id="polygon148" fill="#00dda0" stroke="#000" stroke-width=".015" stroke-linejoin="bevel" d="M.595.872L.568.807.51.88z"/><path id="polygon150" fill="#00dda0" stroke="#000" stroke-width=".015" stroke-linejoin="bevel" d="M.936.178L.933.086.859.155z"/><path id="polygon152" fill="#00dda0" stroke="#000" stroke-width=".015" stroke-linejoin="bevel" d="M1.008.108L.934.086l.003.092z"/><path id="polygon154" fill="#00dda0" stroke="#000" stroke-width=".015" stroke-linejoin="bevel" d="M.42.143l.028.065.057-.072z"/><path id="polygon156" fill="#00dda0" stroke="#000" stroke-width=".015" stroke-linejoin="bevel" d="M.208.707v.1L.142.757z"/><path id="polygon158" fill="#00dda0" stroke="#000" stroke-width=".015" stroke-linejoin="bevel" d="M.943.343L.935.44l.071-.032z"/><path id="polygon160" fill="#00dda0" stroke="#000" stroke-width=".015" stroke-linejoin="bevel" d="M.208.007L.27.076.306.008z"/><path id="polygon162" fill="#00dda0" stroke="#000" stroke-width=".015" stroke-linejoin="bevel" d="M.657.807L.595.873l.063.035z"/><path id="polygon164" fill="#00dda0" stroke="#000" stroke-width=".015" stroke-linejoin="bevel" d="M.657.507l-.052.04.052.06z"/><path id="polygon166" fill="#00dda0" stroke="#000" stroke-width=".015" stroke-linejoin="bevel" d="M.595.872L.563.945.51.879z"/><path id="polygon168" fill="#00dda0" stroke="#000" stroke-width=".015" stroke-linejoin="bevel" d="M.42.143L.453.07l.052.065z"/><path id="polygon170" fill="#00dda0" stroke="#000" stroke-width=".015" stroke-linejoin="bevel" d="M.943.343l-.07.022.063.076z"/><path id="polygon172" fill="#00dda0" stroke="#000" stroke-width=".015" stroke-linejoin="bevel" d="M.128.114l.018.074.066-.056z"/><path id="polygon174" fill="#00dda0" stroke="#000" stroke-width=".015" stroke-linejoin="bevel" d="M.469.525l-.06.026.069.056z"/><path id="polygon176" fill="#00dda0" stroke="#000" stroke-width=".015" stroke-linejoin="bevel" d="M.357.507L.41.467.358.407z"/><path id="polygon178" fill="#00dda0" stroke="#000" stroke-width=".015" stroke-linejoin="bevel" d="M.357.208L.42.143.356.108z"/><path id="polygon180" fill="#00dda0" stroke="#000" stroke-width=".015" stroke-linejoin="bevel" d="M.417.88H.51L.478.806z"/><path id="polygon182" fill="#00dda0" stroke="#000" stroke-width=".015" stroke-linejoin="bevel" d="M.597.136H.505l.032.072z"/><path id="polygon184" fill="#00dda0" stroke="#000" stroke-width=".015" stroke-linejoin="bevel" d="M.811.54L.773.477l-.056.08z"/><path id="polygon186" fill="#00dda0" stroke="#000" stroke-width=".015" stroke-linejoin="bevel" d="M.168.943L.08.931l.027.075z"/><path id="polygon188" fill="#00dda0" stroke="#000" stroke-width=".015" stroke-linejoin="bevel" d="M.847.076l.087.01L.906.008z"/><path id="polygon190" fill="#00dda0" stroke="#000" stroke-width=".015" stroke-linejoin="bevel" d="M.545.49l.06-.025L.536.408z"/><path id="polygon192" fill="#00dda0" stroke="#000" stroke-width=".015" stroke-linejoin="bevel" d="M.46.945L.417.88.356.946z"/><path id="polygon194" fill="#00dda0" stroke="#000" stroke-width=".015" stroke-linejoin="bevel" d="M.17.258L.078.241l.03.066z"/><path id="polygon196" fill="#00dda0" stroke="#000" stroke-width=".015" stroke-linejoin="bevel" d="M.935.44l-.07.036.072.063z"/><path id="polygon198" fill="#00dda0" stroke="#000" stroke-width=".015" stroke-linejoin="bevel" d="M.075.67L.079.579l-.071.03z"/><path id="polygon200" fill="#00dda0" stroke="#000" stroke-width=".015" stroke-linejoin="bevel" d="M.162.865l-.08.067.086.01z"/><path id="polygon202" fill="#00dda0" stroke="#000" stroke-width=".015" stroke-linejoin="bevel" d="M.858.154L.934.086.847.076z"/><path id="polygon204" fill="#00dda0" stroke="#000" stroke-width=".015" stroke-linejoin="bevel" d="M.807 1.008L.746.94l-.038.067z"/><path id="polygon206" fill="#00dda0" stroke="#000" stroke-width=".015" stroke-linejoin="bevel" d="M.537.408L.485.46l.06.03z"/><path id="polygon208" fill="#00dda0" stroke="#000" stroke-width=".015" stroke-linejoin="bevel" d="M1.008.208L.937.178.9.26z"/><path id="polygon210" fill="#00dda0" stroke="#000" stroke-width=".015" stroke-linejoin="bevel" d="M.717.208L.69.14.627.208z"/><path id="polygon212" fill="#00dda0" stroke="#000" stroke-width=".015" stroke-linejoin="bevel" d="M.297.807l.03.067.06-.067z"/><path id="polygon214" fill="#00dda0" stroke="#000" stroke-width=".015" stroke-linejoin="bevel" d="M.555.07l.042.066L.661.07z"/><path id="polygon216" fill="#00dda0" stroke="#000" stroke-width=".015" stroke-linejoin="bevel" d="M.477.607L.53.557.468.524z"/><path id="polygon218" fill="#00dda0" stroke="#000" stroke-width=".015" stroke-linejoin="bevel" d="M.007.907l.074.024.003-.089z"/><path id="polygon220" fill="#00dda0" stroke="#000" stroke-width=".015" stroke-linejoin="bevel" d="M.007.607L.078.578l-.07-.07z"/><path id="polygon222" fill="#00dda0" stroke="#000" stroke-width=".015" stroke-linejoin="bevel" d="M.605.547l-.077.01.04.05z"/><path id="polygon224" fill="#00dda0" stroke="#000" stroke-width=".015" stroke-linejoin="bevel" d="M.222.507l.065.035.009-.085z"/><path id="polygon226" fill="#00dda0" stroke="#000" stroke-width=".015" stroke-linejoin="bevel" d="M.545.49L.528.557l.077-.01z"/><path id="polygon228" fill="#00dda0" stroke="#000" stroke-width=".015" stroke-linejoin="bevel" d="M1.008.408L.936.44l.072.067z"/><path id="polygon230" fill="#00dda0" stroke="#000" stroke-width=".015" stroke-linejoin="bevel" d="M1.008.108l-.071.07.07.03z"/><path id="polygon232" fill="#00dda0" stroke="#000" stroke-width=".015" stroke-linejoin="bevel" d="M.084.842l-.003.09.08-.067z"/><path id="polygon234" fill="#00dda0" stroke="#000" stroke-width=".015" stroke-linejoin="bevel" d="M.764.104L.847.076.807.008z"/><path id="polygon236" fill="#00dda0" stroke="#000" stroke-width=".015" stroke-linejoin="bevel" d="M.253.912l-.085.03.04.066z"/><path id="polygon238" fill="#00dda0" stroke="#000" stroke-width=".015" stroke-linejoin="bevel" d="M.295.158L.271.074.21.132z"/><path id="polygon240" fill="#00dda0" stroke="#000" stroke-width=".015" stroke-linejoin="bevel" d="M.469.525L.486.46.41.467z"/><path id="polygon242" fill="#00dda0" stroke="#000" stroke-width=".015" stroke-linejoin="bevel" d="M.935.44l.072.068-.07.03z"/><path id="polygon244" fill="#00dda0" stroke="#000" stroke-width=".015" stroke-linejoin="bevel" d="M.477.807L.51.88.568.807z"/><path id="polygon246" fill="#00dda0" stroke="#000" stroke-width=".015" stroke-linejoin="bevel" d="M.802.881L.87.821.777.808z"/><path id="polygon248" fill="#00dda0" stroke="#000" stroke-width=".015" stroke-linejoin="bevel" d="M.537.208L.505.136.447.208z"/><path id="polygon250" fill="#00dda0" stroke="#000" stroke-width=".015" stroke-linejoin="bevel" d="M.807.408L.873.366l-.008.11z"/><path id="polygon252" fill="#00dda0" stroke="#000" stroke-width=".015" stroke-linejoin="bevel" d="M.938.64L.873.581.837.658z"/><path id="polygon254" fill="#00dda0" stroke="#000" stroke-width=".015" stroke-linejoin="bevel" d="M.41.468L.486.459.448.409z"/><path id="polygon256" fill="#00dda0" stroke="#000" stroke-width=".015" stroke-linejoin="bevel" d="M.563.945H.46l.047.063z"/><path id="polygon258" fill="#00dda0" stroke="#000" stroke-width=".015" stroke-linejoin="bevel" d="M.837.757L.87.821.94.768z"/><path id="polygon260" fill="#00dda0" stroke="#000" stroke-width=".015" stroke-linejoin="bevel" d="M.717.857l.028.084.057-.06z"/><path id="polygon262" fill="#00dda0" stroke="#000" stroke-width=".015" stroke-linejoin="bevel" d="M.075.67L.144.65.079.579z"/><path id="polygon264" fill="#00dda0" stroke="#000" stroke-width=".015" stroke-linejoin="bevel" d="M.507 1.008L.46.945l-.052.063z"/><path id="polygon266" fill="#00dda0" stroke="#000" stroke-width=".015" stroke-linejoin="bevel" d="M1.008.907l-.063.04.063.06z"/><path id="polygon268" fill="#00dda0" stroke="#000" stroke-width=".015" stroke-linejoin="bevel" d="M1.008 1.008L.945.947l-.037.06z"/><path id="polygon270" fill="#00dda0" stroke="#000" stroke-width=".015" stroke-linejoin="bevel" d="M.007.807l.077.035L.068.756z"/><path id="polygon272" fill="#00dda0" stroke="#000" stroke-width=".015" stroke-linejoin="bevel" d="M.453.07h.103L.508.007z"/><path id="polygon274" fill="#00dda0" stroke="#000" stroke-width=".015" stroke-linejoin="bevel" d="M.208 1.008L.168.943l-.06.065z"/><path id="polygon276" fill="#00dda0" stroke="#000" stroke-width=".015" stroke-linejoin="bevel" d="M.807.007l.04.069.06-.068z"/><path id="polygon278" fill="#00dda0" stroke="#000" stroke-width=".015" stroke-linejoin="bevel" d="M.555.07L.608.007.66.072z"/><path id="polygon280" fill="#00dda0" stroke="#000" stroke-width=".015" stroke-linejoin="bevel" d="M.46.945l-.052.063L.356.943z"/><path id="polygon282" fill="#00dda0" stroke="#000" stroke-width=".015" stroke-linejoin="bevel" d="M.007.108l.06-.041-.06-.06z"/><path id="polygon284" fill="#00dda0" stroke="#000" stroke-width=".015" stroke-linejoin="bevel" d="M.007.007l.06.06.04-.06z"/><path id="polygon286" fill="#00dda0" stroke="#000" stroke-width=".015" stroke-linejoin="bevel" d="M.477.607L.41.552.388.607z"/><path id="polygon288" fill="#00dda0" stroke="#000" stroke-width=".015" stroke-linejoin="bevel" d="M.507.007L.555.07.608.007z"/><path id="polygon290" fill="#00dda0" stroke="#000" stroke-width=".015" stroke-linejoin="bevel" d="M.007.307l.05.048.05-.047z"/><path id="polygon292" fill="#00dda0" stroke="#000" stroke-width=".015" stroke-linejoin="bevel" d="M.078.578L.08.486.007.507z"/><path id="polygon294" fill="#00dda0" stroke="#000" stroke-width=".015" stroke-linejoin="bevel" d="M.537.408l.067.057.023-.057z"/><path id="polygon296" fill="#00dda0" stroke="#000" stroke-width=".015" stroke-linejoin="bevel" d="M.007.907L.084.843.007.808z"/><path id="polygon298" fill="#00dda0" stroke="#000" stroke-width=".015" stroke-linejoin="bevel" d="M.773.478l.034-.07.058.068z"/><path id="polygon300" fill="#00dda0" stroke="#000" stroke-width=".015" stroke-linejoin="bevel" d="M.657.907L.745.94.717.858z"/><path id="polygon302" fill="#00dda0" stroke="#000" stroke-width=".015" stroke-linejoin="bevel" d="M.295.458L.287.542l.07-.036z"/><path id="polygon304" fill="#00dda0" stroke="#000" stroke-width=".015" stroke-linejoin="bevel" d="M.17.258L.147.188l-.07.054z"/><path id="polygon306" fill="#00dda0" stroke="#000" stroke-width=".015" stroke-linejoin="bevel" d="M.1.41l.063.046L.17.357z"/><path id="polygon308" fill="#00dda0" stroke="#000" stroke-width=".015" stroke-linejoin="bevel" d="M.7.469l.074.01-.057.079z"/><path id="polygon310" fill="#00dda0" stroke="#000" stroke-width=".015" stroke-linejoin="bevel" d="M.885.895L.87.822l-.067.06z"/><path id="polygon312" fill="#00dda0" stroke="#000" stroke-width=".015" stroke-linejoin="bevel" d="M.873.582L.938.64.936.54z"/><path id="polygon314" fill="#00dda0" stroke="#000" stroke-width=".015" stroke-linejoin="bevel" d="M.935.44L.873.365l-.008.11z"/><path id="polygon316" fill="#00dda0" stroke="#000" stroke-width=".015" stroke-linejoin="bevel" d="M.15.547l.072-.04-.014.1z"/><path id="polygon318" fill="#00dda0" stroke="#000" stroke-width=".015" stroke-linejoin="bevel" d="M.947.853L.886.895.868.822z"/><path id="polygon320" fill="#00dda0" stroke="#000" stroke-width=".015" stroke-linejoin="bevel" d="M.15.547L.143.65.208.607z"/><path id="polygon322" fill="#00dda0" stroke="#000" stroke-width=".015" stroke-linejoin="bevel" d="M.146.189L.128.115l-.06.044z"/><path id="polygon324" fill="#00dda0" stroke="#000" stroke-width=".015" stroke-linejoin="bevel" d="M.007.507L.08.487.007.406z"/><path id="polygon326" fill="#00dda0" stroke="#000" stroke-width=".015" stroke-linejoin="bevel" d="M.357.108L.271.075l.024.083z"/><path id="polygon328" fill="#00dda0" stroke="#000" stroke-width=".015" stroke-linejoin="bevel" d="M.15.547L.08.487.079.577z"/><path id="polygon330" fill="#00dda0" stroke="#000" stroke-width=".015" stroke-linejoin="bevel" d="M.007.408L.08.487.1.41z"/><path id="polygon332" fill="#00dda0" stroke="#000" stroke-width=".015" stroke-linejoin="bevel" d="M.568.807l.027.065.063-.065z"/><path id="polygon334" fill="#00dda0" stroke="#000" stroke-width=".015" stroke-linejoin="bevel" d="M.108.007l.065.056.035-.056z"/><path id="polygon336" fill="#00dda0" stroke="#000" stroke-width=".015" stroke-linejoin="bevel" d="M.448.208L.418.143.358.208z"/><path id="polygon338" fill="#00dda0" stroke="#000" stroke-width=".015" stroke-linejoin="bevel" d="M.211.132L.173.061.128.115z"/><path id="polygon340" fill="#00dda0" stroke="#000" stroke-width=".015" stroke-linejoin="bevel" d="M.27.075L.212.132.173.061z"/><path id="polygon342" fill="#00dda0" stroke="#000" stroke-width=".015" stroke-linejoin="bevel" d="M.08.486L.1.41l.062.046z"/><path id="polygon344" fill="#00dda0" stroke="#000" stroke-width=".015" stroke-linejoin="bevel" d="M.448.408L.484.46.538.408z"/><path id="polygon346" fill="#00dda0" stroke="#000" stroke-width=".015" stroke-linejoin="bevel" d="M.907.007l.026.079.074-.079z"/><path id="polygon348" fill="#00dda0" stroke="#000" stroke-width=".015" stroke-linejoin="bevel" d="M.007 1.008L.081.932.007.908z"/><path id="polygon350" fill="#00dda0" stroke="#000" stroke-width=".015" stroke-linejoin="bevel" d="M.108 1.008L.082.932l-.074.076z"/><path id="polygon352" fill="#00dda0" stroke="#000" stroke-width=".015" stroke-linejoin="bevel" d="M1.008.007L.934.086l.074.022z"/><path id="polygon354" fill="#00dda0" stroke="#000" stroke-width=".015" stroke-linejoin="bevel" d="M.657.607L.605.547l-.037.06z"/><path id="polygon356" fill="#00dda0" stroke="#000" stroke-width=".015" stroke-linejoin="bevel" d="M.568.607l-.04-.05-.05.05z"/><path id="polygon358" fill="#00dda0" stroke="#000" stroke-width=".015" stroke-linejoin="bevel" d="M.357.408l.053.06.038-.06z"/><path id="polygon360" fill="#00dda0" stroke="#000" stroke-width=".015" stroke-linejoin="bevel" d="M.689.14L.66.07.597.137z"/><path id="polygon362" fill="#00dda0" stroke="#000" stroke-width=".015" stroke-linejoin="bevel" d="M.327.874l.028.07L.418.88z"/><path id="polygon364" fill="#00dda0" stroke="#000" stroke-width=".015" stroke-linejoin="bevel" d="M.802.881l.041.07.042-.055z"/><path id="polygon366" fill="#00dda0" stroke="#000" stroke-width=".015" stroke-linejoin="bevel" d="M.907 1.008L.843.952l-.035.056z"/><path id="polygon368" fill="#00dda0" stroke="#000" stroke-width=".015" stroke-linejoin="bevel" d="M.17.357L.163.457l.07-.048z"/><path id="polygon370" fill="#00dda0" stroke="#000" stroke-width=".015" stroke-linejoin="bevel" d="M.837.657L.873.583.777.607z"/><path id="polygon372" fill="#00dda0" stroke="#000" stroke-width=".015" stroke-linejoin="bevel" d="M.777.807L.87.822.837.757z"/><path id="polygon374" fill="#00dda0" stroke="#000" stroke-width=".015" stroke-linejoin="bevel" d="M.657.507L.604.464l.001.083z"/><path id="polygon376" fill="#00dda0" stroke="#000" stroke-width=".015" stroke-linejoin="bevel" d="M.357.507L.41.551V.467z"/><path id="polygon378" fill="#00dda0" stroke="#000" stroke-width=".015" stroke-linejoin="bevel" d="M.007.408l.05-.052-.05-.048z"/><path id="polygon380" fill="#00dda0" stroke="#000" stroke-width=".015" stroke-linejoin="bevel" d="M.627.408L.7.468l.018-.06z"/><path id="polygon382" fill="#00dda0" stroke="#000" stroke-width=".015" stroke-linejoin="bevel" d="M1.008.507L.937.538l.07.07z"/><path id="polygon384" fill="#00dda0" stroke="#000" stroke-width=".015" stroke-linejoin="bevel" d="M1.008.807l-.06.046.06.054z"/><path id="polygon386" fill="#00dda0" stroke="#000" stroke-width=".015" stroke-linejoin="bevel" d="M.233.208L.146.188l.025.07z"/><path id="polygon388" fill="#00dda0" stroke="#000" stroke-width=".015" stroke-linejoin="bevel" d="M.007.208L.068.16.008.108z"/><path id="polygon390" fill="#00dda0" stroke="#000" stroke-width=".015" stroke-linejoin="bevel" d="M.408 1.008L.356.945l-.048.063z"/><path id="polygon392" fill="#00dda0" stroke="#000" stroke-width=".015" stroke-linejoin="bevel" d="M.607.007L.66.072.708.008z"/><path id="polygon394" fill="#00dda0" stroke="#000" stroke-width=".015" stroke-linejoin="bevel" d="M.41.468L.409.551l.06-.026z"/><path id="polygon396" fill="#00dda0" stroke="#000" stroke-width=".015" stroke-linejoin="bevel" d="M.873.582L.865.476l.072.063z"/><path id="polygon398" fill="#00dda0" stroke="#000" stroke-width=".015" stroke-linejoin="bevel" d="M.08.486l.07.062.012-.092z"/><path id="polygon400" fill="#00dda0" stroke="#000" stroke-width=".015" stroke-linejoin="bevel" d="M.947.853L.94.767.87.822z"/><path id="polygon402" fill="#00dda0" stroke="#000" stroke-width=".015" stroke-linejoin="bevel" d="M.146.189l-.07.053L.069.16z"/><path id="polygon404" fill="#00dda0" stroke="#000" stroke-width=".015" stroke-linejoin="bevel" d="M.545.49L.528.557.468.524z"/><path id="polygon406" fill="#00dda0" stroke="#000" stroke-width=".015" stroke-linejoin="bevel" d="M.605.547V.464L.544.49z"/><path id="polygon408" fill="#00dda0" stroke="#000" stroke-width=".015" stroke-linejoin="bevel" d="M1.008.607L.937.538V.64z"/><path id="polygon410" fill="#00dda0" stroke="#000" stroke-width=".015" stroke-linejoin="bevel" d="M.94.767l.007.086.06-.045z"/><path id="polygon412" fill="#00dda0" stroke="#000" stroke-width=".015" stroke-linejoin="bevel" d="M.1.41L.059.356l-.05.052z"/><path id="polygon414" fill="#00dda0" stroke="#000" stroke-width=".015" stroke-linejoin="bevel" d="M.545.49L.485.46.468.526z"/><path id="polygon416" fill="#00dda0" stroke="#000" stroke-width=".015" stroke-linejoin="bevel" d="M.078.578l.066.073L.15.546z"/><path id="polygon418" fill="#00dda0" stroke="#000" stroke-width=".015" stroke-linejoin="bevel" d="M.843.951L.945.946l-.06-.05z"/><path id="polygon420" fill="#00dda0" stroke="#000" stroke-width=".015" stroke-linejoin="bevel" d="M.945.946L.947.853.886.895z"/><path id="polygon422" fill="#00dda0" stroke="#000" stroke-width=".015" stroke-linejoin="bevel" d="M.907 1.008L.946.947.843.952z"/><path id="polygon424" fill="#00dda0" stroke="#000" stroke-width=".015" stroke-linejoin="bevel" d="M.068.067v.092l.06-.044z"/><path id="polygon426" fill="#00dda0" stroke="#000" stroke-width=".015" stroke-linejoin="bevel" d="M.077.242L.067.16l-.06.048z"/><path id="polygon428" fill="#00dda0" stroke="#000" stroke-width=".015" stroke-linejoin="bevel" d="M.007.108l.06.052V.067z"/><path id="polygon430" fill="#00dda0" stroke="#000" stroke-width=".015" stroke-linejoin="bevel" d="M.717.408L.7.468l.075.01z"/><path id="polygon432" fill="#00dda0" stroke="#000" stroke-width=".015" stroke-linejoin="bevel" d="M1.008.907L.948.853.946.946z"/><path id="polygon434" fill="#00dda0" stroke="#000" stroke-width=".015" stroke-linejoin="bevel" d="M.657.507L.7.468.604.464z"/><path id="polygon436" fill="#00dda0" stroke="#000" stroke-width=".015" stroke-linejoin="bevel" d="M.7.469L.657.508l.06.05z"/><path id="polygon438" fill="#00dda0" stroke="#000" stroke-width=".015" stroke-linejoin="bevel" d="M.128.114L.172.062.068.066z"/><path id="polygon440" fill="#00dda0" stroke="#000" stroke-width=".015" stroke-linejoin="bevel" d="M.068.067L.172.063.108.006z"/><path id="polygon442" fill="#00dda0" stroke="#000" stroke-width=".015" stroke-linejoin="bevel" d="M.604.465L.7.469.627.408z"/><path id="polygon444" fill="#00dda0" stroke="#000" stroke-width=".015" stroke-linejoin="bevel" d="M.084.842L.141.756H.07z"/><path id="polygon446" fill="#00dda0" stroke="#000" stroke-width=".015" stroke-linejoin="bevel" d="M.505.136l.05-.067-.103.002z"/><path id="polygon448" fill="#00dda0" stroke="#000" stroke-width=".015" stroke-linejoin="bevel" d="M.162.865L.142.756.085.842z"/><path id="polygon450" fill="#00dda0" stroke="#000" stroke-width=".015" stroke-linejoin="bevel" d="M.417.88L.46.944.51.88z"/><path id="polygon452" fill="#00dda0" stroke="#000" stroke-width=".015" stroke-linejoin="bevel" d="M.51.88L.46.944h.102z"/><path id="polygon454" fill="#00dda0" stroke="#000" stroke-width=".015" stroke-linejoin="bevel" d="M.597.136L.556.069l-.05.067z"/><path id="polygon456" fill="#00dda0" stroke="#000" stroke-width=".015" stroke-linejoin="bevel" d="M1.008.707L.938.64l-.04.068z"/><path id="polygon458" fill="#00dda0" stroke="#000" stroke-width=".015" stroke-linejoin="bevel" d="M.897.707l.042.06.069-.06z"/><g aria-label="meshio" style="line-height:0%;-inkscape-font-specification:'Baskerville Bold'" id="text470" font-weight="700" font-size=".667" font-family="Futura LT" letter-spacing="0" word-spacing="0" fill="#4d4d4d"><path d="M1.298.345v.043h.001q.04-.054.108-.054.081 0 .117.065.017-.031.048-.048.032-.017.068-.017.116 0 .116.135v.218h-.12V.524q0-.017-.002-.024L1.632.477Q1.63.46 1.625.453T1.61.438Q1.6.43 1.585.43q-.016 0-.027.006-.012.006-.018.015-.006.008-.009.022-.003.014-.003.025v.188h-.122V.524v-.02L1.403.482Q1.402.469 1.399.46 1.396.453 1.39.445q-.005-.01-.015-.013-.01-.004-.022-.004-.013 0-.023.004t-.016.013L1.304.46Q1.301.47 1.3.483l-.002.02v.184h-.122V.345z" style="-inkscape-font-specification:'Futura LT Bold'" id="path1277"/><path d="M1.933.467h.14Q2.07.443 2.05.427 2.03.414 2.005.414q-.027 0-.047.014t-.025.04zm.254.057v.013H1.93q0 .076.076.076.04 0 .058-.032h.117Q2.168.64 2.119.67q-.048.03-.111.03-.088 0-.143-.048Q1.81.603 1.81.517q0-.085.052-.134.053-.05.137-.05.089 0 .138.052.05.05.05.139z" style="-inkscape-font-specification:'Futura LT Bold'" id="path1279"/><path d="M2.508.356l-.04.077Q2.436.417 2.402.417q-.013 0-.026.006-.012.006-.012.017 0 .005.002.009.002.004.006.007L2.38.46l.01.004q.007 0 .01.002l.01.002h.009q.1.02.1.102 0 .063-.049.096-.047.032-.113.032-.074 0-.138-.04l.044-.084q.02.014.047.024.028.01.049.01.014 0 .026-.006.012-.007.012-.02 0-.007-.004-.012Q2.39.565 2.38.56L2.364.555 2.343.551 2.32.545q-.035-.01-.055-.028-.021-.02-.021-.062 0-.04.023-.068.022-.028.055-.04.033-.013.073-.013.064 0 .112.022z" style="-inkscape-font-specification:'Futura LT Bold'" id="path1281"/><path d="M2.584.134h.121v.255h.002q.041-.055.109-.055.063 0 .096.039.033.038.033.105v.21h-.122V.511q0-.037-.011-.06-.01-.021-.043-.021-.034 0-.049.023t-.015.058v.175h-.121z" style="-inkscape-font-specification:'Futura LT Bold'" id="path1283"/><path d="M3.145.345v.342h-.12V.345zm-.108-.18q.02-.02.048-.02t.048.02q.02.02.02.049 0 .028-.02.048t-.048.02q-.028 0-.048-.02t-.02-.048q0-.028.02-.048z" style="-inkscape-font-specification:'Futura LT Bold'" id="path1285"/><path d="M3.26.383q.06-.05.147-.05.086 0 .146.05t.06.134q0 .084-.06.133t-.146.049q-.086 0-.146-.05Q3.2.602 3.2.518T3.26.383zm.203.079q-.02-.023-.056-.023-.036 0-.058.023-.02.022-.02.055t.02.055q.022.021.058.021.036 0 .056-.021.022-.022.022-.055T3.463.462z" style="-inkscape-font-specification:'Futura LT Bold'" id="path1287"/></g></svg>