<svg xmlns="http://www.w3.org/2000/svg" version="1.1" id="svg268" width="3.118" height="1.008"><style id="style2"/><path id="polygon4" fill="#81ecec" fill-opacity="1" stroke="#000" stroke-width=".008" stroke-linejoin="bevel" stroke-miterlimit="4" stroke-dasharray="none" stroke-opacity="1" d="M.104.572L.186.495.094.464z"/><path id="polygon6" fill="#81ecec" fill-opacity="1" stroke="#000" stroke-width=".008" stroke-linejoin="bevel" stroke-miterlimit="4" stroke-dasharray="none" stroke-opacity="1" d="M.822.513L.904.436l.01.108z"/><path id="polygon8" fill="#81ecec" fill-opacity="1" stroke="#000" stroke-width=".008" stroke-linejoin="bevel" stroke-miterlimit="4" stroke-dasharray="none" stroke-opacity="1" d="M.554.81L.423.802l.076.106z"/><path id="polygon10" fill="#81ecec" fill-opacity="1" stroke="#000" stroke-width=".008" stroke-linejoin="bevel" stroke-miterlimit="4" stroke-dasharray="none" stroke-opacity="1" d="M.585.206L.454.198.509.1z"/><path id="polygon12" fill="#81ecec" fill-opacity="1" stroke="#000" stroke-width=".008" stroke-linejoin="bevel" stroke-miterlimit="4" stroke-dasharray="none" stroke-opacity="1" d="M.504.404l-.15.05.088.058z"/><path id="polygon14" fill="#81ecec" fill-opacity="1" stroke="#000" stroke-width=".008" stroke-linejoin="bevel" stroke-miterlimit="4" stroke-dasharray="none" stroke-opacity="1" d="M.723.482l.056.122.043-.091z"/><path id="polygon16" fill="#81ecec" fill-opacity="1" stroke="#000" stroke-width=".008" stroke-linejoin="bevel" stroke-miterlimit="4" stroke-dasharray="none" stroke-opacity="1" d="M.229.404l.056.122L.186.495z"/><path id="polygon18" fill="#81ecec" fill-opacity="1" stroke="#000" stroke-width=".008" stroke-linejoin="bevel" stroke-miterlimit="4" stroke-dasharray="none" stroke-opacity="1" d="M.504.704h-.15l.069.098z"/><path id="polygon20" fill="#81ecec" fill-opacity="1" stroke="#000" stroke-width=".008" stroke-linejoin="bevel" stroke-miterlimit="4" stroke-dasharray="none" stroke-opacity="1" d="M.504.304h.15L.585.206z"/><path id="polygon22" fill="#81ecec" fill-opacity="1" stroke="#000" stroke-width=".008" stroke-linejoin="bevel" stroke-miterlimit="4" stroke-dasharray="none" stroke-opacity="1" d="M.651.106L.575.004h.143z"/><path id="polygon24" fill="#81ecec" fill-opacity="1" stroke="#000" stroke-width=".008" stroke-linejoin="bevel" stroke-miterlimit="4" stroke-dasharray="none" stroke-opacity="1" d="M.433 1.004L.357.902l-.067.102z"/><path id="polygon26" fill="#81ecec" fill-opacity="1" stroke="#000" stroke-width=".008" stroke-linejoin="bevel" stroke-miterlimit="4" stroke-dasharray="none" stroke-opacity="1" d="M.509.1l.142.006-.066.1z"/><path id="polygon28" fill="#81ecec" fill-opacity="1" stroke="#000" stroke-width=".008" stroke-linejoin="bevel" stroke-miterlimit="4" stroke-dasharray="none" stroke-opacity="1" d="M.499.908L.357.902l.066-.1z"/><path id="polygon30" fill="#81ecec" fill-opacity="1" stroke="#000" stroke-width=".008" stroke-linejoin="bevel" stroke-miterlimit="4" stroke-dasharray="none" stroke-opacity="1" d="M.804.404L.723.482.654.404z"/><path id="polygon32" fill="#81ecec" fill-opacity="1" stroke="#000" stroke-width=".008" stroke-linejoin="bevel" stroke-miterlimit="4" stroke-dasharray="none" stroke-opacity="1" d="M.204.604L.285.526l.069.078z"/><path id="polygon34" fill="#81ecec" fill-opacity="1" stroke="#000" stroke-width=".008" stroke-linejoin="bevel" stroke-miterlimit="4" stroke-dasharray="none" stroke-opacity="1" d="M.654.754l-.15-.05.05.106z"/><path id="polygon36" fill="#81ecec" fill-opacity="1" stroke="#000" stroke-width=".008" stroke-linejoin="bevel" stroke-miterlimit="4" stroke-dasharray="none" stroke-opacity="1" d="M.504.304l-.15-.05.1-.056z"/><path id="polygon38" fill="#81ecec" fill-opacity="1" stroke="#000" stroke-width=".008" stroke-linejoin="bevel" stroke-miterlimit="4" stroke-dasharray="none" stroke-opacity="1" d="M.779.704l-.125.05.102.06z"/><path id="polygon40" fill="#81ecec" fill-opacity="1" stroke="#000" stroke-width=".008" stroke-linejoin="bevel" stroke-miterlimit="4" stroke-dasharray="none" stroke-opacity="1" d="M.229.304l.125-.05-.102-.06z"/><path id="polygon42" fill="#81ecec" fill-opacity="1" stroke="#000" stroke-width=".008" stroke-linejoin="bevel" stroke-miterlimit="4" stroke-dasharray="none" stroke-opacity="1" d="M.575.004H.433L.509.1z"/><path id="polygon44" fill="#81ecec" fill-opacity="1" stroke="#000" stroke-width=".008" stroke-linejoin="bevel" stroke-miterlimit="4" stroke-dasharray="none" stroke-opacity="1" d="M.433 1.004h.142L.499.908z"/><path id="polygon46" fill="#81ecec" fill-opacity="1" stroke="#000" stroke-width=".008" stroke-linejoin="bevel" stroke-miterlimit="4" stroke-dasharray="none" stroke-opacity="1" d="M.718.004l.07.105L.651.106z"/><path id="polygon48" fill="#81ecec" fill-opacity="1" stroke="#000" stroke-width=".008" stroke-linejoin="bevel" stroke-miterlimit="4" stroke-dasharray="none" stroke-opacity="1" d="M.22.899l.07.105.067-.102z"/><path id="polygon50" fill="#81ecec" fill-opacity="1" stroke="#000" stroke-width=".008" stroke-linejoin="bevel" stroke-miterlimit="4" stroke-dasharray="none" stroke-opacity="1" d="M.104.572L.186.495l.018.109z"/><path id="polygon52" fill="#81ecec" fill-opacity="1" stroke="#000" stroke-width=".008" stroke-linejoin="bevel" stroke-miterlimit="4" stroke-dasharray="none" stroke-opacity="1" d="M.822.513L.904.436l-.1-.032z"/><path id="polygon54" fill="#81ecec" fill-opacity="1" stroke="#000" stroke-width=".008" stroke-linejoin="bevel" stroke-miterlimit="4" stroke-dasharray="none" stroke-opacity="1" d="M.804.404L.723.482l.099.031z"/><path id="polygon56" fill="#81ecec" fill-opacity="1" stroke="#000" stroke-width=".008" stroke-linejoin="bevel" stroke-miterlimit="4" stroke-dasharray="none" stroke-opacity="1" d="M.204.604L.285.526.186.495z"/><path id="polygon58" fill="#81ecec" fill-opacity="1" stroke="#000" stroke-width=".008" stroke-linejoin="bevel" stroke-miterlimit="4" stroke-dasharray="none" stroke-opacity="1" d="M.718 1.004h.143L.788.91z"/><path id="polygon60" fill="#81ecec" fill-opacity="1" stroke="#000" stroke-width=".008" stroke-linejoin="bevel" stroke-miterlimit="4" stroke-dasharray="none" stroke-opacity="1" d="M.29.004H.147L.22.098z"/><path id="polygon62" fill="#81ecec" fill-opacity="1" stroke="#000" stroke-width=".008" stroke-linejoin="bevel" stroke-miterlimit="4" stroke-dasharray="none" stroke-opacity="1" d="M.881.208L.804.304l.108.025z"/><path id="polygon64" fill="#81ecec" fill-opacity="1" stroke="#000" stroke-width=".008" stroke-linejoin="bevel" stroke-miterlimit="4" stroke-dasharray="none" stroke-opacity="1" d="M.127.8L.204.704.096.679z"/><path id="polygon66" fill="#81ecec" fill-opacity="1" stroke="#000" stroke-width=".008" stroke-linejoin="bevel" stroke-miterlimit="4" stroke-dasharray="none" stroke-opacity="1" d="M.104.354l-.1.079.09.031z"/><path id="polygon68" fill="#81ecec" fill-opacity="1" stroke="#000" stroke-width=".008" stroke-linejoin="bevel" stroke-miterlimit="4" stroke-dasharray="none" stroke-opacity="1" d="M.904.654l.1-.079-.09-.031z"/><path id="polygon70" fill="#81ecec" fill-opacity="1" stroke="#000" stroke-width=".008" stroke-linejoin="bevel" stroke-miterlimit="4" stroke-dasharray="none" stroke-opacity="1" d="M.229.404L.104.354l-.01.11z"/><path id="polygon72" fill="#81ecec" fill-opacity="1" stroke="#000" stroke-width=".008" stroke-linejoin="bevel" stroke-miterlimit="4" stroke-dasharray="none" stroke-opacity="1" d="M.779.604l.125.05.01-.11z"/><path id="polygon74" fill="#81ecec" fill-opacity="1" stroke="#000" stroke-width=".008" stroke-linejoin="bevel" stroke-miterlimit="4" stroke-dasharray="none" stroke-opacity="1" d="M.504.304l-.15-.05v.05z"/><path id="polygon76" fill="#81ecec" fill-opacity="1" stroke="#000" stroke-width=".008" stroke-linejoin="bevel" stroke-miterlimit="4" stroke-dasharray="none" stroke-opacity="1" d="M.654.754l-.15-.05h.15z"/><path id="polygon78" fill="#81ecec" fill-opacity="1" stroke="#000" stroke-width=".008" stroke-linejoin="bevel" stroke-miterlimit="4" stroke-dasharray="none" stroke-opacity="1" d="M.004.575l.09-.111-.09-.031z"/><path id="polygon80" fill="#81ecec" fill-opacity="1" stroke="#000" stroke-width=".008" stroke-linejoin="bevel" stroke-miterlimit="4" stroke-dasharray="none" stroke-opacity="1" d="M.914.544l.09-.111v.142z"/><path id="polygon82" fill="#81ecec" fill-opacity="1" stroke="#000" stroke-width=".008" stroke-linejoin="bevel" stroke-miterlimit="4" stroke-dasharray="none" stroke-opacity="1" d="M.229.404l-.135.06.092.031z"/><path id="polygon84" fill="#81ecec" fill-opacity="1" stroke="#000" stroke-width=".008" stroke-linejoin="bevel" stroke-miterlimit="4" stroke-dasharray="none" stroke-opacity="1" d="M.779.604l.135-.06L.822.513z"/><path id="polygon86" fill="#81ecec" fill-opacity="1" stroke="#000" stroke-width=".008" stroke-linejoin="bevel" stroke-miterlimit="4" stroke-dasharray="none" stroke-opacity="1" d="M.509.1l.142.006L.575.004z"/><path id="polygon88" fill="#81ecec" fill-opacity="1" stroke="#000" stroke-width=".008" stroke-linejoin="bevel" stroke-miterlimit="4" stroke-dasharray="none" stroke-opacity="1" d="M.499.908L.357.902l.076.102z"/><path id="polygon90" fill="#81ecec" fill-opacity="1" stroke="#000" stroke-width=".008" stroke-linejoin="bevel" stroke-miterlimit="4" stroke-dasharray="none" stroke-opacity="1" d="M.654.554v-.15l.069.078z"/><path id="polygon92" fill="#81ecec" fill-opacity="1" stroke="#000" stroke-width=".008" stroke-linejoin="bevel" stroke-miterlimit="4" stroke-dasharray="none" stroke-opacity="1" d="M.554.81L.423.802.504.704z"/><path id="polygon94" fill="#81ecec" fill-opacity="1" stroke="#000" stroke-width=".008" stroke-linejoin="bevel" stroke-miterlimit="4" stroke-dasharray="none" stroke-opacity="1" d="M.585.206L.454.198l.05.106z"/><path id="polygon96" fill="#81ecec" fill-opacity="1" stroke="#000" stroke-width=".008" stroke-linejoin="bevel" stroke-miterlimit="4" stroke-dasharray="none" stroke-opacity="1" d="M.354.604v-.15L.285.526z"/><path id="polygon98" fill="#81ecec" fill-opacity="1" stroke="#000" stroke-width=".008" stroke-linejoin="bevel" stroke-miterlimit="4" stroke-dasharray="none" stroke-opacity="1" d="M1.004.718V.575l-.1.079z"/><path id="polygon100" fill="#81ecec" fill-opacity="1" stroke="#000" stroke-width=".008" stroke-linejoin="bevel" stroke-miterlimit="4" stroke-dasharray="none" stroke-opacity="1" d="M.004.433l.1-.079-.1-.064z"/><path id="polygon102" fill="#81ecec" fill-opacity="1" stroke="#000" stroke-width=".008" stroke-linejoin="bevel" stroke-miterlimit="4" stroke-dasharray="none" stroke-opacity="1" d="M.788.91l.073.094.046-.099z"/><path id="polygon104" fill="#81ecec" fill-opacity="1" stroke="#000" stroke-width=".008" stroke-linejoin="bevel" stroke-miterlimit="4" stroke-dasharray="none" stroke-opacity="1" d="M.22.098L.147.004.101.103z"/><path id="polygon106" fill="#81ecec" fill-opacity="1" stroke="#000" stroke-width=".008" stroke-linejoin="bevel" stroke-miterlimit="4" stroke-dasharray="none" stroke-opacity="1" d="M.647.895L.654.754l-.1.056z"/><path id="polygon108" fill="#81ecec" fill-opacity="1" stroke="#000" stroke-width=".008" stroke-linejoin="bevel" stroke-miterlimit="4" stroke-dasharray="none" stroke-opacity="1" d="M.361.113L.354.254l.1-.056z"/><path id="polygon110" fill="#81ecec" fill-opacity="1" stroke="#000" stroke-width=".008" stroke-linejoin="bevel" stroke-miterlimit="4" stroke-dasharray="none" stroke-opacity="1" d="M1.004.718l-.1-.064-.018.13z"/><path id="polygon112" fill="#81ecec" fill-opacity="1" stroke="#000" stroke-width=".008" stroke-linejoin="bevel" stroke-miterlimit="4" stroke-dasharray="none" stroke-opacity="1" d="M.004.29l.1.064.018-.13z"/><path id="polygon114" fill="#81ecec" fill-opacity="1" stroke="#000" stroke-width=".008" stroke-linejoin="bevel" stroke-miterlimit="4" stroke-dasharray="none" stroke-opacity="1" d="M.104.354l.125-.05-.107-.08z"/><path id="polygon116" fill="#81ecec" fill-opacity="1" stroke="#000" stroke-width=".008" stroke-linejoin="bevel" stroke-miterlimit="4" stroke-dasharray="none" stroke-opacity="1" d="M.904.654l-.125.05.107.08z"/><path id="polygon118" fill="#81ecec" fill-opacity="1" stroke="#000" stroke-width=".008" stroke-linejoin="bevel" stroke-miterlimit="4" stroke-dasharray="none" stroke-opacity="1" d="M1.004.861V.718L.886.784z"/><path id="polygon120" fill="#81ecec" fill-opacity="1" stroke="#000" stroke-width=".008" stroke-linejoin="bevel" stroke-miterlimit="4" stroke-dasharray="none" stroke-opacity="1" d="M.004.147V.29L.122.224z"/><path id="polygon122" fill="#81ecec" fill-opacity="1" stroke="#000" stroke-width=".008" stroke-linejoin="bevel" stroke-miterlimit="4" stroke-dasharray="none" stroke-opacity="1" d="M.229.404l.056.122.069-.072z"/><path id="polygon124" fill="#81ecec" fill-opacity="1" stroke="#000" stroke-width=".008" stroke-linejoin="bevel" stroke-miterlimit="4" stroke-dasharray="none" stroke-opacity="1" d="M.723.482l.056.122-.125-.05z"/><path id="polygon126" fill="#81ecec" fill-opacity="1" stroke="#000" stroke-width=".008" stroke-linejoin="bevel" stroke-miterlimit="4" stroke-dasharray="none" stroke-opacity="1" d="M.433.004H.29l.071.109z"/><path id="polygon128" fill="#81ecec" fill-opacity="1" stroke="#000" stroke-width=".008" stroke-linejoin="bevel" stroke-miterlimit="4" stroke-dasharray="none" stroke-opacity="1" d="M.575 1.004h.143L.647.895z"/><path id="polygon130" fill="#81ecec" fill-opacity="1" stroke="#000" stroke-width=".008" stroke-linejoin="bevel" stroke-miterlimit="4" stroke-dasharray="none" stroke-opacity="1" d="M.122.224l.107.08.023-.11z"/><path id="polygon132" fill="#81ecec" fill-opacity="1" stroke="#000" stroke-width=".008" stroke-linejoin="bevel" stroke-miterlimit="4" stroke-dasharray="none" stroke-opacity="1" d="M.886.784L.779.704l-.023.11z"/><path id="polygon134" fill="#81ecec" fill-opacity="1" stroke="#000" stroke-width=".008" stroke-linejoin="bevel" stroke-miterlimit="4" stroke-dasharray="none" stroke-opacity="1" d="M.718.004l.07.105.073-.105z"/><path id="polygon136" fill="#81ecec" fill-opacity="1" stroke="#000" stroke-width=".008" stroke-linejoin="bevel" stroke-miterlimit="4" stroke-dasharray="none" stroke-opacity="1" d="M.22.899l-.073.105-.051-.09z"/><path id="polygon138" fill="#81ecec" fill-opacity="1" stroke="#000" stroke-width=".008" stroke-linejoin="bevel" stroke-miterlimit="4" stroke-dasharray="none" stroke-opacity="1" d="M.804.304v.1L.912.329z"/><path id="polygon140" fill="#81ecec" fill-opacity="1" stroke="#000" stroke-width=".008" stroke-linejoin="bevel" stroke-miterlimit="4" stroke-dasharray="none" stroke-opacity="1" d="M.204.704v-.1L.096.679z"/><path id="polygon142" fill="#81ecec" fill-opacity="1" stroke="#000" stroke-width=".008" stroke-linejoin="bevel" stroke-miterlimit="4" stroke-dasharray="none" stroke-opacity="1" d="M.654.754L.647.895.756.814z"/><path id="polygon144" fill="#81ecec" fill-opacity="1" stroke="#000" stroke-width=".008" stroke-linejoin="bevel" stroke-miterlimit="4" stroke-dasharray="none" stroke-opacity="1" d="M.354.254L.361.113.252.194z"/><path id="polygon146" fill="#81ecec" fill-opacity="1" stroke="#000" stroke-width=".008" stroke-linejoin="bevel" stroke-miterlimit="4" stroke-dasharray="none" stroke-opacity="1" d="M.22.098L.122.224l.13-.03z"/><path id="polygon148" fill="#81ecec" fill-opacity="1" stroke="#000" stroke-width=".008" stroke-linejoin="bevel" stroke-miterlimit="4" stroke-dasharray="none" stroke-opacity="1" d="M.788.91L.886.784l-.13.03z"/><path id="polygon150" fill="#81ecec" fill-opacity="1" stroke="#000" stroke-width=".008" stroke-linejoin="bevel" stroke-miterlimit="4" stroke-dasharray="none" stroke-opacity="1" d="M.651.106l-.066.1.144.003z"/><path id="polygon152" fill="#81ecec" fill-opacity="1" stroke="#000" stroke-width=".008" stroke-linejoin="bevel" stroke-miterlimit="4" stroke-dasharray="none" stroke-opacity="1" d="M.357.902l.066-.1L.279.799z"/><path id="polygon154" fill="#81ecec" fill-opacity="1" stroke="#000" stroke-width=".008" stroke-linejoin="bevel" stroke-miterlimit="4" stroke-dasharray="none" stroke-opacity="1" d="M.654.304h.15L.729.209z"/><path id="polygon156" fill="#81ecec" fill-opacity="1" stroke="#000" stroke-width=".008" stroke-linejoin="bevel" stroke-miterlimit="4" stroke-dasharray="none" stroke-opacity="1" d="M.354.704h-.15l.075.095z"/><path id="polygon158" fill="#81ecec" fill-opacity="1" stroke="#000" stroke-width=".008" stroke-linejoin="bevel" stroke-miterlimit="4" stroke-dasharray="none" stroke-opacity="1" d="M.729.209L.881.208.788.109z"/><path id="polygon160" fill="#81ecec" fill-opacity="1" stroke="#000" stroke-width=".008" stroke-linejoin="bevel" stroke-miterlimit="4" stroke-dasharray="none" stroke-opacity="1" d="M.279.799L.127.8.22.899z"/><path id="polygon162" fill="#81ecec" fill-opacity="1" stroke="#000" stroke-width=".008" stroke-linejoin="bevel" stroke-miterlimit="4" stroke-dasharray="none" stroke-opacity="1" d="M.914.544l.09-.111-.1.003z"/><path id="polygon164" fill="#81ecec" fill-opacity="1" stroke="#000" stroke-width=".008" stroke-linejoin="bevel" stroke-miterlimit="4" stroke-dasharray="none" stroke-opacity="1" d="M.004.575l.09-.111.01.108z"/><path id="polygon166" fill="#81ecec" fill-opacity="1" stroke="#000" stroke-width=".008" stroke-linejoin="bevel" stroke-miterlimit="4" stroke-dasharray="none" stroke-opacity="1" d="M.718 1.004L.788.91.647.895z"/><path id="polygon168" fill="#81ecec" fill-opacity="1" stroke="#000" stroke-width=".008" stroke-linejoin="bevel" stroke-miterlimit="4" stroke-dasharray="none" stroke-opacity="1" d="M.29.004L.22.098l.141.015z"/><path id="polygon170" fill="#81ecec" fill-opacity="1" stroke="#000" stroke-width=".008" stroke-linejoin="bevel" stroke-miterlimit="4" stroke-dasharray="none" stroke-opacity="1" d="M1.004.147V.004l-.092.09z"/><path id="polygon172" fill="#81ecec" fill-opacity="1" stroke="#000" stroke-width=".008" stroke-linejoin="bevel" stroke-miterlimit="4" stroke-dasharray="none" stroke-opacity="1" d="M.004.861v.143l.092-.09z"/><path id="polygon174" fill="#81ecec" fill-opacity="1" stroke="#000" stroke-width=".008" stroke-linejoin="bevel" stroke-miterlimit="4" stroke-dasharray="none" stroke-opacity="1" d="M.509.1L.433.004.361.113z"/><path id="polygon176" fill="#81ecec" fill-opacity="1" stroke="#000" stroke-width=".008" stroke-linejoin="bevel" stroke-miterlimit="4" stroke-dasharray="none" stroke-opacity="1" d="M.499.908l.076.096.072-.109z"/><path id="polygon178" fill="#81ecec" fill-opacity="1" stroke="#000" stroke-width=".008" stroke-linejoin="bevel" stroke-miterlimit="4" stroke-dasharray="none" stroke-opacity="1" d="M1.004.29L.881.208l.031.121z"/><path id="polygon180" fill="#81ecec" fill-opacity="1" stroke="#000" stroke-width=".008" stroke-linejoin="bevel" stroke-miterlimit="4" stroke-dasharray="none" stroke-opacity="1" d="M.004.718L.127.8.096.679z"/><path id="polygon182" fill="#81ecec" fill-opacity="1" stroke="#000" stroke-width=".008" stroke-linejoin="bevel" stroke-miterlimit="4" stroke-dasharray="none" stroke-opacity="1" d="M1.004.004H.861l.051.09z"/><path id="polygon184" fill="#81ecec" fill-opacity="1" stroke="#000" stroke-width=".008" stroke-linejoin="bevel" stroke-miterlimit="4" stroke-dasharray="none" stroke-opacity="1" d="M.004 1.004h.143L.096.914z"/><path id="polygon186" fill="#81ecec" fill-opacity="1" stroke="#000" stroke-width=".008" stroke-linejoin="bevel" stroke-miterlimit="4" stroke-dasharray="none" stroke-opacity="1" d="M1.004.29V.147L.881.208z"/><path id="polygon188" fill="#81ecec" fill-opacity="1" stroke="#000" stroke-width=".008" stroke-linejoin="bevel" stroke-miterlimit="4" stroke-dasharray="none" stroke-opacity="1" d="M.004.718v.143L.127.8z"/><path id="polygon190" fill="#81ecec" fill-opacity="1" stroke="#000" stroke-width=".008" stroke-linejoin="bevel" stroke-miterlimit="4" stroke-dasharray="none" stroke-opacity="1" d="M.654.404h-.15l.062.092z"/><path id="polygon192" fill="#81ecec" fill-opacity="1" stroke="#000" stroke-width=".008" stroke-linejoin="bevel" stroke-miterlimit="4" stroke-dasharray="none" stroke-opacity="1" d="M.354.604h.15L.442.512z"/><path id="polygon194" fill="#81ecec" fill-opacity="1" stroke="#000" stroke-width=".008" stroke-linejoin="bevel" stroke-miterlimit="4" stroke-dasharray="none" stroke-opacity="1" d="M.354.604v-.15l.088.058z"/><path id="polygon196" fill="#81ecec" fill-opacity="1" stroke="#000" stroke-width=".008" stroke-linejoin="bevel" stroke-miterlimit="4" stroke-dasharray="none" stroke-opacity="1" d="M.004.004v.143L.101.103z"/><path id="polygon198" fill="#81ecec" fill-opacity="1" stroke="#000" stroke-width=".008" stroke-linejoin="bevel" stroke-miterlimit="4" stroke-dasharray="none" stroke-opacity="1" d="M1.004 1.004V.861L.907.905z"/><path id="polygon200" fill="#81ecec" fill-opacity="1" stroke="#000" stroke-width=".008" stroke-linejoin="bevel" stroke-miterlimit="4" stroke-dasharray="none" stroke-opacity="1" d="M.861 1.004h.143L.907.905z"/><path id="polygon202" fill="#81ecec" fill-opacity="1" stroke="#000" stroke-width=".008" stroke-linejoin="bevel" stroke-miterlimit="4" stroke-dasharray="none" stroke-opacity="1" d="M.147.004H.004l.097.099z"/><path id="polygon204" fill="#81ecec" fill-opacity="1" stroke="#000" stroke-width=".008" stroke-linejoin="bevel" stroke-miterlimit="4" stroke-dasharray="none" stroke-opacity="1" d="M.585.206l.069.098.075-.095z"/><path id="polygon206" fill="#81ecec" fill-opacity="1" stroke="#000" stroke-width=".008" stroke-linejoin="bevel" stroke-miterlimit="4" stroke-dasharray="none" stroke-opacity="1" d="M.423.802L.354.704.279.799z"/><path id="polygon208" fill="#81ecec" fill-opacity="1" stroke="#000" stroke-width=".008" stroke-linejoin="bevel" stroke-miterlimit="4" stroke-dasharray="none" stroke-opacity="1" d="M.788.109L.912.094.881.208z"/><path id="polygon210" fill="#81ecec" fill-opacity="1" stroke="#000" stroke-width=".008" stroke-linejoin="bevel" stroke-miterlimit="4" stroke-dasharray="none" stroke-opacity="1" d="M.096.914L.22.899.127.8z"/><path id="polygon212" fill="#81ecec" fill-opacity="1" stroke="#000" stroke-width=".008" stroke-linejoin="bevel" stroke-miterlimit="4" stroke-dasharray="none" stroke-opacity="1" d="M.122.224L.22.098.101.103z"/><path id="polygon214" fill="#81ecec" fill-opacity="1" stroke="#000" stroke-width=".008" stroke-linejoin="bevel" stroke-miterlimit="4" stroke-dasharray="none" stroke-opacity="1" d="M.886.784L.788.91.907.905z"/><path id="polygon216" fill="#81ecec" fill-opacity="1" stroke="#000" stroke-width=".008" stroke-linejoin="bevel" stroke-miterlimit="4" stroke-dasharray="none" stroke-opacity="1" d="M.004.575v.143L.096.679z"/><path id="polygon218" fill="#81ecec" fill-opacity="1" stroke="#000" stroke-width=".008" stroke-linejoin="bevel" stroke-miterlimit="4" stroke-dasharray="none" stroke-opacity="1" d="M1.004.433V.29L.912.329z"/><path id="polygon220" fill="#81ecec" fill-opacity="1" stroke="#000" stroke-width=".008" stroke-linejoin="bevel" stroke-miterlimit="4" stroke-dasharray="none" stroke-opacity="1" d="M.654.554v-.15L.566.496z"/><path id="polygon222" fill="#81ecec" fill-opacity="1" stroke="#000" stroke-width=".008" stroke-linejoin="bevel" stroke-miterlimit="4" stroke-dasharray="none" stroke-opacity="1" d="M.861.004L.788.109.912.094z"/><path id="polygon224" fill="#81ecec" fill-opacity="1" stroke="#000" stroke-width=".008" stroke-linejoin="bevel" stroke-miterlimit="4" stroke-dasharray="none" stroke-opacity="1" d="M.22.899l.07.105H.147z"/><path id="polygon226" fill="#81ecec" fill-opacity="1" stroke="#000" stroke-width=".008" stroke-linejoin="bevel" stroke-miterlimit="4" stroke-dasharray="none" stroke-opacity="1" d="M.442.512l.062.092.062-.108z"/><path id="polygon228" fill="#81ecec" fill-opacity="1" stroke="#000" stroke-width=".008" stroke-linejoin="bevel" stroke-miterlimit="4" stroke-dasharray="none" stroke-opacity="1" d="M.881.208l.123-.061L.912.094z"/><path id="polygon230" fill="#81ecec" fill-opacity="1" stroke="#000" stroke-width=".008" stroke-linejoin="bevel" stroke-miterlimit="4" stroke-dasharray="none" stroke-opacity="1" d="M.127.8L.004.861l.092.053z"/><path id="polygon232" fill="#81ecec" fill-opacity="1" stroke="#000" stroke-width=".008" stroke-linejoin="bevel" stroke-miterlimit="4" stroke-dasharray="none" stroke-opacity="1" d="M.004.575l.092.104.008-.107z"/><path id="polygon234" fill="#81ecec" fill-opacity="1" stroke="#000" stroke-width=".008" stroke-linejoin="bevel" stroke-miterlimit="4" stroke-dasharray="none" stroke-opacity="1" d="M1.004.433L.912.329.904.436z"/><path id="polygon236" fill="#81ecec" fill-opacity="1" stroke="#000" stroke-width=".008" stroke-linejoin="bevel" stroke-miterlimit="4" stroke-dasharray="none" stroke-opacity="1" d="M.912.329L.804.404l.1.032z"/><path id="polygon238" fill="#81ecec" fill-opacity="1" stroke="#000" stroke-width=".008" stroke-linejoin="bevel" stroke-miterlimit="4" stroke-dasharray="none" stroke-opacity="1" d="M.096.679L.204.604l-.1-.032z"/><path id="polygon240" fill="#81ecec" fill-opacity="1" stroke="#000" stroke-width=".008" stroke-linejoin="bevel" stroke-miterlimit="4" stroke-dasharray="none" stroke-opacity="1" d="M.004.147l.118.077L.101.103z"/><path id="polygon242" fill="#81ecec" fill-opacity="1" stroke="#000" stroke-width=".008" stroke-linejoin="bevel" stroke-miterlimit="4" stroke-dasharray="none" stroke-opacity="1" d="M1.004.861L.886.784l.021.121z"/><path id="polygon244" fill="#81ecec" fill-opacity="1" stroke="#000" stroke-width=".008" stroke-linejoin="bevel" stroke-miterlimit="4" stroke-dasharray="none" stroke-opacity="1" d="M.504.404L.442.512.566.496z"/><path id="polygon246" fill="#81ecec" fill-opacity="1" stroke="#000" stroke-width=".008" stroke-linejoin="bevel" stroke-miterlimit="4" stroke-dasharray="none" stroke-opacity="1" d="M.499.908L.647.895.554.81z"/><path id="polygon248" fill="#81ecec" fill-opacity="1" stroke="#000" stroke-width=".008" stroke-linejoin="bevel" stroke-miterlimit="4" stroke-dasharray="none" stroke-opacity="1" d="M.509.1L.361.113l.093.085z"/><path id="polygon250" fill="#81ecec" fill-opacity="1" stroke="#000" stroke-width=".008" stroke-linejoin="bevel" stroke-miterlimit="4" stroke-dasharray="none" stroke-opacity="1" d="M.647.895L.788.91.756.814z"/><path id="polygon252" fill="#81ecec" fill-opacity="1" stroke="#000" stroke-width=".008" stroke-linejoin="bevel" stroke-miterlimit="4" stroke-dasharray="none" stroke-opacity="1" d="M.361.113L.22.098l.032.096z"/><path id="polygon254" fill="#81ecec" fill-opacity="1" stroke="#000" stroke-width=".008" stroke-linejoin="bevel" stroke-miterlimit="4" stroke-dasharray="none" stroke-opacity="1" d="M.729.209L.881.208.804.304z"/><path id="polygon256" fill="#81ecec" fill-opacity="1" stroke="#000" stroke-width=".008" stroke-linejoin="bevel" stroke-miterlimit="4" stroke-dasharray="none" stroke-opacity="1" d="M.279.799L.127.8.204.704z"/><path id="polygon258" fill="#81ecec" fill-opacity="1" stroke="#000" stroke-width=".008" stroke-linejoin="bevel" stroke-miterlimit="4" stroke-dasharray="none" stroke-opacity="1" d="M.651.106l.078.103.059-.1z"/><path id="polygon260" fill="#81ecec" fill-opacity="1" stroke="#000" stroke-width=".008" stroke-linejoin="bevel" stroke-miterlimit="4" stroke-dasharray="none" stroke-opacity="1" d="M.357.902L.279.799l-.059.1z"/><path id="polygon262" fill="#81ecec" fill-opacity="1" stroke="#000" stroke-width=".008" stroke-linejoin="bevel" stroke-miterlimit="4" stroke-dasharray="none" stroke-opacity="1" d="M.354.454l.15-.05h-.15z"/><path id="polygon264" fill="#81ecec" fill-opacity="1" stroke="#000" stroke-width=".008" stroke-linejoin="bevel" stroke-miterlimit="4" stroke-dasharray="none" stroke-opacity="1" d="M.654.604v-.05l-.15.05z"/><path id="polygon266" fill="#81ecec" fill-opacity="1" stroke="#000" stroke-width=".008" stroke-linejoin="bevel" stroke-miterlimit="4" stroke-dasharray="none" stroke-opacity="1" d="M.504.604l.15-.05L.566.496z"/><g aria-label="meshio" style="line-height:0%;-inkscape-font-specification:'Commando Bold'" id="text946" font-style="normal" font-variant="normal" font-weight="700" font-stretch="normal" font-size=".533" font-family="Futura LT" letter-spacing="0" word-spacing="0" fill="#555" fill-opacity="1" stroke="none" stroke-width="1" stroke-linecap="butt" stroke-linejoin="miter" stroke-opacity="1"><path d="M1.266.351v.035Q1.3.342 1.354.342q.065 0 .094.053.014-.025.039-.039.025-.014.053-.014.094 0 .094.109v.174h-.097v-.15L1.532.457Q1.53.444 1.527.437 1.523.431 1.514.426 1.507.42 1.495.42t-.021.005q-.01.005-.014.012-.005.006-.007.017-.003.012-.003.02v.151h-.098V.478L1.35.46q0-.009-.003-.016L1.339.431q-.004-.007-.012-.01T1.31.418q-.01 0-.018.003-.008.003-.013.01l-.007.013-.004.017-.001.017v.147H1.17V.351z" style="-inkscape-font-specification:'Futura LT Bold'" id="path948"/><path d="M1.774.449h.113q-.004-.02-.02-.031-.015-.013-.035-.013-.022 0-.038.012-.015.01-.02.032zm.203.045v.01h-.204q0 .061.06.061.032 0 .047-.025h.093q-.011.046-.05.07-.039.024-.089.024-.07 0-.115-.038-.043-.039-.043-.107t.041-.107q.042-.04.11-.04.071 0 .11.041.04.041.04.111z" style="-inkscape-font-specification:'Futura LT Bold'" id="path950"/><path d="M2.234.36l-.032.062Q2.177.409 2.149.409q-.01 0-.02.004-.01.005-.01.014 0 .004.002.007l.004.006.007.004.008.003.008.002.008.001.007.001q.08.016.08.081 0 .05-.04.077-.037.025-.09.025-.059 0-.11-.031l.035-.068q.016.011.038.02.022.008.039.008.011 0 .02-.006.01-.005.01-.015 0-.006-.003-.01-.003-.005-.01-.008L2.12.52 2.102.516 2.084.51Q2.057.504 2.04.49 2.024.474 2.024.44q0-.032.018-.054.018-.023.044-.032.027-.01.058-.01.051 0 .09.017z" style="-inkscape-font-specification:'Futura LT Bold'" id="path952"/><path d="M2.295.182h.097v.204h.001q.033-.044.087-.044.051 0 .077.031.026.031.026.085v.167h-.097v-.14q0-.03-.009-.048Q2.47.42 2.443.42q-.027 0-.04.018-.011.02-.011.047v.14h-.097z" style="-inkscape-font-specification:'Futura LT Bold'" id="path954"/><path d="M2.744.351v.274h-.097V.351zM2.657.208q.016-.016.038-.016.023 0 .039.016t.016.038q0 .023-.016.039T2.695.3q-.022 0-.038-.016T2.641.246q0-.022.016-.038z" style="-inkscape-font-specification:'Futura LT Bold'" id="path956"/><path d="M2.836.382q.048-.04.117-.04.07 0 .117.04.048.04.048.107T3.07.595q-.048.04-.117.04t-.117-.04Q2.788.555 2.788.49q0-.068.048-.107zm.162.063Q2.982.427 2.953.427q-.029 0-.046.018-.016.017-.016.044 0 .026.016.044.017.017.046.017.029 0 .045-.017.017-.018.017-.044 0-.027-.017-.044z" style="-inkscape-font-specification:'Futura LT Bold'" id="path958"/></g></svg>