<svg version="1.1" viewBox="0.000 0.000 10.000 10.000" xmlns="http://www.w3.org/2000/svg">
  <style>polygon {fill: none; stroke: black; stroke-width: 0.04;}</style>
  <polygon points="7.499,8.421 7.462,8.845 7.042,8.603"/>
  <polygon points="1.433,3.243 1.562,2.775 1.130,2.929"/>
  <polygon points="7.499,8.421 7.462,8.845 7.903,8.661"/>
  <polygon points="1.562,2.775 1.178,2.476 1.130,2.929"/>
  <polygon points="5.287,8.753 5.520,9.175 5.748,8.754"/>
  <polygon points="10.000,1.000 9.524,0.821 9.636,1.271"/>
  <polygon points="4.462,1.496 4.312,1.900 4.820,1.757"/>
  <polygon points="10.000,3.500 9.595,3.223 9.604,3.698"/>
  <polygon points="7.456,1.842 7.792,2.132 7.339,2.257"/>
  <polygon points="1.600,5.171 1.198,4.872 1.191,5.348"/>
  <polygon points="1.834,8.765 2.338,8.801 2.056,9.186"/>
  <polygon points="1.834,8.765 2.169,8.396 2.338,8.801"/>
  <polygon points="9.537,1.726 9.000,1.635 9.189,2.045"/>
  <polygon points="9.222,1.252 8.737,1.234 9.010,0.835"/>
  <polygon points="2.000,0.000 2.257,0.345 2.500,0.000"/>
  <polygon points="5.500,0.000 5.000,0.000 5.306,0.410"/>
  <polygon points="5.048,9.192 5.520,9.175 5.287,8.753"/>
  <polygon points="10.000,1.000 9.524,0.821 10.000,0.500"/>
  <polygon points="8.844,3.678 8.788,4.124 9.220,3.916"/>
  <polygon points="0.000,6.000 0.000,6.500 0.383,6.261"/>
  <polygon points="0.000,7.000 0.000,7.500 0.387,7.260"/>
  <polygon points="0.899,1.746 0.407,1.813 0.793,2.166"/>
  <polygon points="9.010,0.835 8.512,0.820 8.737,1.234"/>
  <polygon points="9.237,4.360 9.220,3.916 8.788,4.124"/>
  <polygon points="1.000,10.000 1.296,9.599 1.500,10.000"/>
  <polygon points="9.010,0.835 8.512,0.820 8.743,0.413"/>
  <polygon points="7.254,0.389 6.746,0.389 6.994,0.768"/>
  <polygon points="1.759,0.353 2.257,0.345 2.000,0.000"/>
  <polygon points="2.000,8.000 2.169,8.396 2.500,8.000"/>
  <polygon points="2.169,8.396 2.338,8.801 2.654,8.405"/>
  <polygon points="2.338,8.801 2.822,8.828 2.654,8.405"/>
  <polygon points="9.200,8.454 8.762,8.675 8.797,8.230"/>
  <polygon points="1.410,1.140 1.821,1.039 1.542,0.710"/>
  <polygon points="1.603,4.686 2.000,5.000 1.600,5.171"/>
  <polygon points="1.000,10.000 1.296,9.599 0.817,9.527"/>
  <polygon points="9.010,0.835 9.524,0.821 9.208,0.420"/>
  <polygon points="2.035,0.708 2.226,1.165 1.821,1.039"/>
  <polygon points="9.200,8.454 8.762,8.675 9.174,8.886"/>
  <polygon points="8.000,10.000 8.249,9.666 7.794,9.579"/>
  <polygon points="6.504,0.796 6.994,0.768 6.746,0.389"/>
  <polygon points="9.010,0.835 9.208,0.420 8.743,0.413"/>
  <polygon points="3.900,7.772 4.303,8.097 4.393,7.693"/>
  <polygon points="0.000,2.500 0.379,2.808 0.384,2.304"/>
  <polygon points="4.462,1.496 3.906,1.633 4.149,1.235"/>
  <polygon points="2.000,8.000 2.169,8.396 1.668,8.352"/>
  <polygon points="0.899,1.746 0.407,1.813 0.632,1.440"/>
  <polygon points="8.818,7.775 8.408,7.577 8.398,8.012"/>
  <polygon points="6.760,1.186 6.994,0.768 6.504,0.796"/>
  <polygon points="2.000,4.500 1.603,4.193 1.603,4.686"/>
  <polygon points="1.410,1.140 1.542,0.710 1.102,0.793"/>
  <polygon points="3.034,9.235 2.542,9.213 2.822,8.828"/>
  <polygon points="3.900,7.772 3.863,8.178 4.303,8.097"/>
  <polygon points="3.034,9.235 2.542,9.213 2.762,9.613"/>
  <polygon points="8.459,1.613 9.000,1.635 8.737,1.234"/>
  <polygon points="0.379,2.808 0.761,2.630 0.758,3.128"/>
  <polygon points="10.000,3.500 9.595,3.223 10.000,3.000"/>
  <polygon points="1.542,0.710 1.821,1.039 2.035,0.708"/>
  <polygon points="8.459,1.613 8.737,1.234 8.242,1.219"/>
  <polygon points="7.500,10.000 8.000,10.000 7.794,9.579"/>
  <polygon points="4.462,1.496 3.906,1.633 4.312,1.900"/>
  <polygon points="4.482,7.268 4.081,7.336 4.393,7.693"/>
  <polygon points="1.191,5.348 1.600,5.171 1.596,5.646"/>
  <polygon points="0.783,7.502 0.387,7.260 0.770,7.009"/>
  <polygon points="0.783,7.502 0.387,7.260 0.398,7.759"/>
  <polygon points="1.167,6.289 1.160,6.760 0.768,6.517"/>
  <polygon points="1.573,6.539 1.160,6.760 1.575,6.965"/>
  <polygon points="8.002,2.545 8.433,2.439 8.222,2.040"/>
  <polygon points="5.500,0.000 5.306,0.410 5.784,0.402"/>
  <polygon points="5.896,2.191 5.860,2.645 6.254,2.477"/>
  <polygon points="8.222,2.040 8.689,1.985 8.433,2.439"/>
  <polygon points="7.254,0.389 6.746,0.389 7.000,0.000"/>
  <polygon points="5.000,0.000 4.861,0.349 5.306,0.410"/>
  <polygon points="1.191,5.348 1.198,4.872 0.791,5.064"/>
  <polygon points="9.537,1.726 9.636,1.271 9.222,1.252"/>
  <polygon points="1.197,3.913 1.201,4.392 0.794,4.102"/>
  <polygon points="3.831,2.553 4.203,2.830 4.251,2.356"/>
  <polygon points="3.543,9.244 4.063,9.242 3.826,8.884"/>
  <polygon points="7.339,2.257 6.953,2.399 7.164,2.779"/>
  <polygon points="3.900,7.772 3.692,7.383 3.396,7.686"/>
  <polygon points="4.482,7.268 4.393,7.693 4.861,7.579"/>
  <polygon points="6.738,7.952 6.551,8.372 7.078,8.213"/>
  <polygon points="7.042,8.603 6.652,8.798 6.551,8.372"/>
  <polygon points="4.063,9.242 4.346,8.858 3.826,8.884"/>
  <polygon points="0.812,7.997 0.783,7.502 1.190,7.713"/>
  <polygon points="2.500,8.000 2.169,8.396 2.654,8.405"/>
  <polygon points="7.042,8.603 6.652,8.798 7.018,9.038"/>
  <polygon points="0.770,7.009 1.171,7.234 0.783,7.502"/>
  <polygon points="0.770,7.009 1.171,7.234 1.160,6.760"/>
  <polygon points="10.000,10.000 10.000,9.500 9.645,9.630"/>
  <polygon points="10.000,10.000 9.645,9.630 9.500,10.000"/>
  <polygon points="7.456,1.842 7.792,2.132 7.956,1.643"/>
  <polygon points="1.120,3.457 1.594,3.694 1.197,3.913"/>
  <polygon points="7.042,8.603 7.078,8.213 6.551,8.372"/>
  <polygon points="3.900,7.772 4.081,7.336 3.692,7.383"/>
  <polygon points="1.603,4.686 1.201,4.392 1.603,4.193"/>
  <polygon points="8.762,8.675 8.309,8.869 8.707,9.115"/>
  <polygon points="1.603,4.686 1.201,4.392 1.198,4.872"/>
  <polygon points="1.197,3.913 1.201,4.392 1.603,4.193"/>
  <polygon points="7.462,8.845 7.042,8.603 7.018,9.038"/>
  <polygon points="1.793,3.179 1.594,3.694 2.000,3.500"/>
  <polygon points="1.130,2.929 1.120,3.457 1.433,3.243"/>
  <polygon points="5.896,2.191 6.254,2.477 6.230,1.963"/>
  <polygon points="0.000,7.500 0.398,7.759 0.387,7.260"/>
  <polygon points="4.346,8.858 4.593,8.431 4.104,8.519"/>
  <polygon points="0.755,3.628 0.758,3.128 0.378,3.310"/>
  <polygon points="1.181,5.820 1.167,6.289 0.775,6.029"/>
  <polygon points="1.181,5.820 1.167,6.289 1.587,6.104"/>
  <polygon points="6.254,0.408 6.017,0.840 6.504,0.796"/>
  <polygon points="0.000,6.500 0.383,6.760 0.383,6.261"/>
  <polygon points="0.000,7.000 0.387,7.260 0.383,6.760"/>
  <polygon points="8.442,3.662 8.132,3.296 8.018,3.732"/>
  <polygon points="0.775,6.029 0.387,5.765 0.383,6.261"/>
  <polygon points="9.625,4.181 9.604,3.698 9.220,3.916"/>
  <polygon points="8.408,7.577 8.011,7.765 8.398,8.012"/>
  <polygon points="1.190,7.713 1.589,7.404 1.601,7.868"/>
  <polygon points="1.190,7.713 1.171,7.234 0.783,7.502"/>
  <polygon points="5.784,0.402 5.558,0.799 6.017,0.840"/>
  <polygon points="3.831,2.553 4.203,2.830 3.789,3.019"/>
  <polygon points="10.000,4.000 10.000,3.500 9.604,3.698"/>
  <polygon points="1.603,4.686 2.000,5.000 2.000,4.500"/>
  <polygon points="2.000,7.500 1.601,7.868 2.000,8.000"/>
  <polygon points="8.762,8.675 8.359,8.445 8.309,8.869"/>
  <polygon points="0.000,1.500 0.407,1.813 0.330,1.230"/>
  <polygon points="0.768,6.517 1.167,6.289 0.775,6.029"/>
  <polygon points="0.768,6.517 0.770,7.009 1.160,6.760"/>
  <polygon points="8.408,7.577 8.011,7.765 8.018,7.268"/>
  <polygon points="6.230,1.963 6.577,1.635 6.069,1.588"/>
  <polygon points="5.758,1.274 5.668,1.811 6.069,1.588"/>
  <polygon points="8.818,7.775 8.398,8.012 8.797,8.230"/>
  <polygon points="9.189,2.045 9.233,2.539 9.606,2.236"/>
  <polygon points="0.812,7.997 0.783,7.502 0.398,7.759"/>
  <polygon points="0.768,6.517 0.383,6.261 0.383,6.760"/>
  <polygon points="0.383,6.760 0.770,7.009 0.387,7.260"/>
  <polygon points="5.047,2.464 5.182,2.011 4.694,2.182"/>
  <polygon points="9.523,5.487 9.123,5.723 9.606,5.868"/>
  <polygon points="7.164,2.779 6.627,2.662 6.738,3.048"/>
  <polygon points="10.000,3.000 9.608,2.752 9.595,3.223"/>
  <polygon points="5.047,2.464 5.182,2.011 5.495,2.306"/>
  <polygon points="8.288,9.293 7.794,9.579 8.249,9.666"/>
  <polygon points="10.000,1.500 10.000,1.000 9.636,1.271"/>
  <polygon points="9.523,5.487 9.121,5.262 9.123,5.723"/>
  <polygon points="9.189,2.045 9.606,2.236 9.537,1.726"/>
  <polygon points="0.000,3.500 0.380,3.810 0.378,3.310"/>
  <polygon points="6.594,2.153 6.980,1.937 6.953,2.399"/>
  <polygon points="7.339,2.257 7.456,1.842 6.980,1.937"/>
  <polygon points="9.624,7.769 9.623,7.278 10.000,7.500"/>
  <polygon points="6.015,8.370 5.748,8.754 6.224,8.773"/>
  <polygon points="0.383,6.760 0.770,7.009 0.768,6.517"/>
  <polygon points="0.768,6.517 0.775,6.029 0.383,6.261"/>
  <polygon points="8.442,3.662 8.132,3.296 8.674,3.238"/>
  <polygon points="8.877,7.331 8.408,7.577 8.818,7.775"/>
  <polygon points="5.076,8.320 4.789,7.996 4.593,8.431"/>
  <polygon points="6.000,10.000 6.211,9.592 5.743,9.591"/>
  <polygon points="7.339,2.257 6.980,1.937 6.953,2.399"/>
  <polygon points="1.130,2.929 0.761,2.630 0.758,3.128"/>
  <polygon points="5.076,8.320 5.293,7.810 5.517,8.314"/>
  <polygon points="4.820,1.757 5.182,2.011 5.312,1.576"/>
  <polygon points="0.000,2.000 0.000,2.500 0.384,2.304"/>
  <polygon points="0.632,1.440 0.330,1.230 0.407,1.813"/>
  <polygon points="4.169,3.302 4.482,3.732 4.068,3.697"/>
  <polygon points="7.060,1.525 6.980,1.937 7.456,1.842"/>
  <polygon points="6.015,8.370 5.748,8.754 5.517,8.314"/>
  <polygon points="0.775,6.029 0.784,5.546 0.387,5.765"/>
  <polygon points="7.339,2.257 7.164,2.779 7.570,2.599"/>
  <polygon points="0.000,3.000 0.000,3.500 0.378,3.310"/>
  <polygon points="4.861,3.421 4.548,3.149 4.482,3.732"/>
  <polygon points="9.537,1.726 9.636,1.271 10.000,1.500"/>
  <polygon points="7.060,1.525 7.526,1.457 7.456,1.842"/>
  <polygon points="0.000,6.000 0.383,6.261 0.387,5.765"/>
  <polygon points="6.230,1.963 6.577,1.635 6.594,2.153"/>
  <polygon points="4.346,8.858 4.593,8.431 4.831,8.792"/>
  <polygon points="0.000,8.500 0.411,8.722 0.416,8.249"/>
  <polygon points="9.104,9.284 9.174,8.886 8.707,9.115"/>
  <polygon points="5.758,1.274 5.312,1.576 5.668,1.811"/>
  <polygon points="8.500,10.000 9.000,10.000 8.725,9.586"/>
  <polygon points="8.844,3.678 8.674,3.238 8.442,3.662"/>
  <polygon points="8.754,2.794 8.283,2.901 8.674,3.238"/>
  <polygon points="4.169,3.302 4.482,3.732 4.548,3.149"/>
  <polygon points="8.288,9.293 8.707,9.115 8.309,8.869"/>
  <polygon points="9.524,0.821 9.222,1.252 9.010,0.835"/>
  <polygon points="6.287,1.217 5.758,1.274 6.069,1.588"/>
  <polygon points="3.736,1.175 4.149,1.235 3.888,0.766"/>
  <polygon points="6.000,10.000 6.500,10.000 6.211,9.592"/>
  <polygon points="0.393,4.783 0.394,4.296 0.000,4.500"/>
  <polygon points="3.332,4.220 3.354,3.721 3.000,4.000"/>
  <polygon points="10.000,0.500 9.640,0.381 9.524,0.821"/>
  <polygon points="9.104,9.284 8.707,9.115 8.725,9.586"/>
  <polygon points="8.002,2.545 8.283,2.901 8.433,2.439"/>
  <polygon points="9.524,0.821 9.222,1.252 9.636,1.271"/>
  <polygon points="2.000,8.000 1.601,7.868 1.668,8.352"/>
  <polygon points="8.754,2.794 8.433,2.439 8.283,2.901"/>
  <polygon points="6.224,8.773 6.502,9.208 6.652,8.798"/>
  <polygon points="10.000,8.000 10.000,7.500 9.624,7.769"/>
  <polygon points="5.293,7.810 5.517,8.314 5.762,7.952"/>
  <polygon points="3.900,7.772 4.393,7.693 4.081,7.336"/>
  <polygon points="6.000,0.000 5.500,0.000 5.784,0.402"/>
  <polygon points="4.267,0.830 3.888,0.766 4.149,1.235"/>
  <polygon points="5.000,10.000 5.500,10.000 5.266,9.597"/>
  <polygon points="5.758,1.274 5.325,1.145 5.312,1.576"/>
  <polygon points="1.238,2.025 1.178,2.476 1.581,2.282"/>
  <polygon points="1.120,3.457 1.594,3.694 1.433,3.243"/>
  <polygon points="5.517,8.314 5.287,8.753 5.076,8.320"/>
  <polygon points="7.903,8.661 8.359,8.445 7.964,8.222"/>
  <polygon points="1.793,3.179 1.562,2.775 2.076,2.924"/>
  <polygon points="9.624,7.769 9.623,7.278 9.246,7.544"/>
  <polygon points="9.183,3.429 9.220,3.916 8.844,3.678"/>
  <polygon points="8.844,3.678 9.183,3.429 8.674,3.238"/>
  <polygon points="8.674,3.238 9.158,2.996 9.183,3.429"/>
  <polygon points="5.762,7.952 5.517,8.314 6.015,8.370"/>
  <polygon points="9.604,3.698 9.183,3.429 9.595,3.223"/>
  <polygon points="5.520,9.175 5.266,9.597 5.743,9.591"/>
  <polygon points="6.224,8.773 6.652,8.798 6.551,8.372"/>
  <polygon points="0.000,4.000 0.000,4.500 0.394,4.296"/>
  <polygon points="5.076,8.320 5.293,7.810 4.789,7.996"/>
  <polygon points="5.668,1.811 5.495,2.306 5.896,2.191"/>
  <polygon points="7.164,2.779 6.627,2.662 6.953,2.399"/>
  <polygon points="1.181,5.820 1.587,6.104 1.596,5.646"/>
  <polygon points="9.000,0.000 8.500,0.000 8.743,0.413"/>
  <polygon points="4.104,8.519 4.593,8.431 4.303,8.097"/>
  <polygon points="3.736,1.175 3.468,0.709 3.325,1.069"/>
  <polygon points="6.594,2.153 6.627,2.662 6.953,2.399"/>
  <polygon points="0.793,2.166 0.384,2.304 0.761,2.630"/>
  <polygon points="1.238,2.025 1.178,2.476 0.793,2.166"/>
  <polygon points="6.250,8.000 6.551,8.372 6.738,7.952"/>
  <polygon points="0.000,8.500 0.000,9.000 0.411,8.722"/>
  <polygon points="2.983,0.765 3.325,1.069 3.468,0.709"/>
  <polygon points="0.755,3.628 0.378,3.310 0.380,3.810"/>
  <polygon points="3.001,1.282 2.983,0.765 3.325,1.069"/>
  <polygon points="10.000,7.500 10.000,7.000 9.623,7.278"/>
  <polygon points="8.000,0.000 7.500,0.000 7.763,0.387"/>
  <polygon points="5.743,9.591 6.001,9.176 6.211,9.592"/>
  <polygon points="0.379,2.808 0.761,2.630 0.384,2.304"/>
  <polygon points="3.000,5.000 3.385,5.234 3.424,4.730"/>
  <polygon points="1.793,3.179 1.594,3.694 1.433,3.243"/>
  <polygon points="0.775,6.029 0.784,5.546 1.181,5.820"/>
  <polygon points="9.246,7.544 8.818,7.775 9.217,8.002"/>
  <polygon points="3.543,9.244 3.306,8.867 3.034,9.235"/>
  <polygon points="4.820,1.757 4.694,2.182 5.182,2.011"/>
  <polygon points="1.500,10.000 1.775,9.587 1.296,9.599"/>
  <polygon points="10.000,6.000 10.000,5.500 9.606,5.868"/>
  <polygon points="1.130,2.929 1.178,2.476 0.761,2.630"/>
  <polygon points="2.822,8.828 3.034,9.235 3.306,8.867"/>
  <polygon points="2.924,2.924 2.841,3.245 3.330,3.210"/>
  <polygon points="2.822,8.828 3.116,8.447 3.306,8.867"/>
  <polygon points="1.698,1.862 1.581,2.282 2.076,2.076"/>
  <polygon points="1.500,0.000 1.000,0.000 1.253,0.368"/>
  <polygon points="0.416,8.249 0.854,8.488 0.411,8.722"/>
  <polygon points="4.171,4.111 4.068,3.697 3.723,3.927"/>
  <polygon points="0.000,1.000 0.000,1.500 0.330,1.230"/>
  <polygon points="2.000,6.000 1.596,5.646 2.000,5.500"/>
  <polygon points="3.709,3.449 3.723,3.927 4.068,3.697"/>
  <polygon points="7.791,1.151 7.256,1.117 7.526,1.457"/>
  <polygon points="4.820,1.757 5.312,1.576 4.928,1.323"/>
  <polygon points="7.000,0.000 6.500,0.000 6.746,0.389"/>
  <polygon points="3.709,3.449 3.789,3.019 3.330,3.210"/>
  <polygon points="5.182,2.011 5.668,1.811 5.312,1.576"/>
  <polygon points="1.120,3.457 0.758,3.128 1.130,2.929"/>
  <polygon points="5.558,0.799 5.033,0.804 5.325,1.145"/>
  <polygon points="6.069,1.588 6.577,1.635 6.287,1.217"/>
  <polygon points="0.755,3.628 0.758,3.128 1.120,3.457"/>
  <polygon points="3.940,6.457 3.434,6.248 3.421,6.686"/>
  <polygon points="5.401,2.752 5.762,3.048 5.860,2.645"/>
  <polygon points="3.866,2.081 4.312,1.900 3.906,1.633"/>
  <polygon points="1.310,8.713 0.818,8.952 1.151,9.179"/>
  <polygon points="4.612,2.649 4.251,2.356 4.203,2.830"/>
  <polygon points="5.033,0.804 5.306,0.410 4.861,0.349"/>
  <polygon points="8.459,1.613 8.242,1.219 7.956,1.643"/>
  <polygon points="0.854,8.488 0.818,8.952 0.411,8.722"/>
  <polygon points="1.668,8.352 1.310,8.713 1.834,8.765"/>
  <polygon points="2.000,5.500 1.600,5.171 1.596,5.646"/>
  <polygon points="0.812,7.997 0.398,7.759 0.416,8.249"/>
  <polygon points="3.000,7.000 3.421,6.686 3.000,6.500"/>
  <polygon points="5.293,3.190 4.953,2.930 4.861,3.421"/>
  <polygon points="7.060,1.525 7.526,1.457 7.256,1.117"/>
  <polygon points="10.000,6.000 9.606,5.868 9.620,6.320"/>
  <polygon points="8.222,2.040 8.689,1.985 8.459,1.613"/>
  <polygon points="7.462,8.845 7.018,9.038 7.436,9.267"/>
  <polygon points="4.171,4.111 3.723,3.927 3.690,4.328"/>
  <polygon points="5.860,2.645 6.250,3.000 6.254,2.477"/>
  <polygon points="0.796,4.583 0.794,4.102 1.201,4.392"/>
  <polygon points="3.000,5.000 3.424,4.730 3.000,4.500"/>
  <polygon points="9.189,2.045 8.861,2.366 9.233,2.539"/>
  <polygon points="3.709,3.449 3.354,3.721 3.723,3.927"/>
  <polygon points="1.500,0.000 1.253,0.368 1.759,0.353"/>
  <polygon points="5.293,3.190 4.953,2.930 5.401,2.752"/>
  <polygon points="8.754,2.794 8.861,2.366 8.433,2.439"/>
  <polygon points="9.537,1.726 9.000,1.635 9.222,1.252"/>
  <polygon points="2.473,0.723 2.257,0.345 2.035,0.708"/>
  <polygon points="10.000,9.000 10.000,8.500 9.604,8.727"/>
  <polygon points="2.822,8.828 3.116,8.447 2.654,8.405"/>
  <polygon points="3.001,1.282 2.659,1.067 2.577,1.485"/>
  <polygon points="2.076,2.076 1.581,2.282 1.900,2.500"/>
  <polygon points="10.000,2.000 10.000,1.500 9.537,1.726"/>
  <polygon points="6.594,2.153 6.980,1.937 6.577,1.635"/>
  <polygon points="0.000,7.500 0.000,8.000 0.398,7.759"/>
  <polygon points="0.796,4.583 0.794,4.102 0.394,4.296"/>
  <polygon points="1.600,5.171 1.198,4.872 1.603,4.686"/>
  <polygon points="5.000,0.000 4.500,0.000 4.861,0.349"/>
  <polygon points="4.171,6.889 3.763,6.926 4.081,7.336"/>
  <polygon points="3.332,4.220 3.354,3.721 3.723,3.927"/>
  <polygon points="1.237,8.209 1.668,8.352 1.601,7.868"/>
  <polygon points="1.197,3.913 1.603,4.193 1.594,3.694"/>
  <polygon points="1.698,1.862 1.581,2.282 1.238,2.025"/>
  <polygon points="3.798,5.988 3.434,6.248 3.940,6.457"/>
  <polygon points="6.738,3.048 6.627,2.662 6.250,3.000"/>
  <polygon points="4.203,2.830 3.789,3.019 4.169,3.302"/>
  <polygon points="3.000,3.500 3.000,4.000 3.354,3.721"/>
  <polygon points="4.169,3.302 4.068,3.697 3.709,3.449"/>
  <polygon points="8.500,0.000 8.263,0.396 8.743,0.413"/>
  <polygon points="3.000,3.500 3.330,3.210 2.841,3.245"/>
  <polygon points="8.018,3.732 8.132,3.296 7.639,3.421"/>
  <polygon points="7.639,7.579 8.011,7.765 8.018,7.268"/>
  <polygon points="3.000,8.000 2.500,8.000 2.654,8.405"/>
  <polygon points="10.000,8.500 9.612,8.249 9.604,8.727"/>
  <polygon points="0.793,2.166 1.238,2.025 0.899,1.746"/>
  <polygon points="0.500,10.000 0.817,9.527 0.378,9.636"/>
  <polygon points="2.000,4.000 1.603,4.193 2.000,4.500"/>
  <polygon points="4.500,0.000 4.591,0.585 4.861,0.349"/>
  <polygon points="4.171,6.889 4.081,7.336 4.482,7.268"/>
  <polygon points="3.736,1.175 3.906,1.633 4.149,1.235"/>
  <polygon points="9.226,6.119 9.620,6.320 9.606,5.868"/>
  <polygon points="10.000,7.000 10.000,6.500 9.632,6.799"/>
  <polygon points="3.000,5.500 3.384,5.755 3.385,5.234"/>
  <polygon points="5.500,10.000 5.743,9.591 5.266,9.597"/>
  <polygon points="3.709,3.449 4.169,3.302 3.789,3.019"/>
  <polygon points="3.798,5.012 3.424,4.730 3.385,5.234"/>
  <polygon points="4.203,2.830 4.548,3.149 4.169,3.302"/>
  <polygon points="8.459,1.613 7.956,1.643 8.222,2.040"/>
  <polygon points="9.000,10.000 9.220,9.645 8.725,9.586"/>
  <polygon points="5.860,2.645 6.250,3.000 5.762,3.048"/>
  <polygon points="1.589,7.404 1.601,7.868 2.000,7.500"/>
  <polygon points="8.512,0.820 8.743,0.413 8.263,0.396"/>
  <polygon points="6.250,3.000 6.627,2.662 6.254,2.477"/>
  <polygon points="6.502,9.208 6.001,9.176 6.211,9.592"/>
  <polygon points="5.743,9.591 6.001,9.176 5.520,9.175"/>
  <polygon points="8.329,4.111 8.442,3.662 8.018,3.732"/>
  <polygon points="3.778,9.617 4.285,9.616 4.000,10.000"/>
  <polygon points="8.000,0.000 7.763,0.387 8.263,0.396"/>
  <polygon points="8.560,4.543 8.788,4.124 8.329,4.111"/>
  <polygon points="1.238,2.025 1.698,1.862 1.337,1.590"/>
  <polygon points="1.770,1.436 1.337,1.590 1.698,1.862"/>
  <polygon points="4.569,9.223 4.831,8.792 4.346,8.858"/>
  <polygon points="3.778,9.617 4.285,9.616 4.063,9.242"/>
  <polygon points="3.736,1.175 3.888,0.766 3.468,0.709"/>
  <polygon points="3.000,7.000 3.353,7.176 3.421,6.686"/>
  <polygon points="4.203,2.830 4.548,3.149 4.612,2.649"/>
  <polygon points="6.994,0.768 6.760,1.186 7.256,1.117"/>
  <polygon points="8.263,0.396 8.029,0.779 7.763,0.387"/>
  <polygon points="0.791,5.064 0.390,5.273 0.784,5.546"/>
  <polygon points="4.267,0.830 4.149,1.235 4.623,1.049"/>
  <polygon points="4.861,7.579 4.393,7.693 4.789,7.996"/>
  <polygon points="0.793,2.166 0.761,2.630 1.178,2.476"/>
  <polygon points="1.296,9.599 1.775,9.587 1.582,9.153"/>
  <polygon points="4.303,8.097 4.789,7.996 4.393,7.693"/>
  <polygon points="9.222,1.252 8.737,1.234 9.000,1.635"/>
  <polygon points="4.612,2.649 4.251,2.356 4.694,2.182"/>
  <polygon points="0.000,6.500 0.000,7.000 0.383,6.760"/>
  <polygon points="8.512,0.820 8.242,1.219 8.737,1.234"/>
  <polygon points="3.412,2.781 3.452,2.305 3.831,2.553"/>
  <polygon points="0.393,4.783 0.394,4.296 0.796,4.583"/>
  <polygon points="7.164,2.779 7.732,2.991 7.570,2.599"/>
  <polygon points="9.234,7.061 9.632,6.799 9.253,6.610"/>
  <polygon points="9.253,6.610 9.620,6.320 9.632,6.799"/>
  <polygon points="4.861,3.421 4.953,2.930 4.548,3.149"/>
  <polygon points="3.227,0.365 3.733,0.357 3.500,0.000"/>
  <polygon points="3.353,7.176 3.763,6.926 3.692,7.383"/>
  <polygon points="0.000,0.000 0.000,0.500 0.352,0.334"/>
  <polygon points="0.000,0.000 0.352,0.334 0.500,0.000"/>
  <polygon points="2.983,0.765 3.468,0.709 3.227,0.365"/>
  <polygon points="9.200,8.454 9.604,8.727 9.612,8.249"/>
  <polygon points="5.047,2.464 4.694,2.182 4.612,2.649"/>
  <polygon points="6.760,1.186 6.577,1.635 7.060,1.525"/>
  <polygon points="0.632,1.440 0.899,1.746 1.019,1.276"/>
  <polygon points="2.000,5.000 1.600,5.171 2.000,5.500"/>
  <polygon points="1.410,1.140 1.770,1.436 1.337,1.590"/>
  <polygon points="2.000,6.000 1.596,5.646 1.587,6.104"/>
  <polygon points="1.573,6.539 2.000,7.000 2.000,6.500"/>
  <polygon points="9.226,6.119 9.606,5.868 9.123,5.723"/>
  <polygon points="3.001,1.282 2.983,0.765 2.659,1.067"/>
  <polygon points="0.500,10.000 1.000,10.000 0.817,9.527"/>
  <polygon points="1.181,5.820 1.596,5.646 1.191,5.348"/>
  <polygon points="2.749,0.376 2.473,0.723 2.257,0.345"/>
  <polygon points="3.750,5.500 3.385,5.234 3.384,5.755"/>
  <polygon points="1.542,0.710 1.253,0.368 1.102,0.793"/>
  <polygon points="0.387,5.765 0.390,5.273 0.784,5.546"/>
  <polygon points="7.000,10.000 6.971,9.434 7.312,9.664"/>
  <polygon points="0.716,0.958 0.632,1.440 0.330,1.230"/>
  <polygon points="6.287,1.217 6.504,0.796 6.017,0.840"/>
  <polygon points="6.760,1.186 6.504,0.796 6.287,1.217"/>
  <polygon points="3.789,3.019 3.831,2.553 3.412,2.781"/>
  <polygon points="6.224,8.773 6.551,8.372 6.015,8.370"/>
  <polygon points="8.844,3.678 8.442,3.662 8.788,4.124"/>
  <polygon points="2.983,0.765 2.473,0.723 2.749,0.376"/>
  <polygon points="0.791,5.064 0.393,4.783 0.390,5.273"/>
  <polygon points="2.056,9.186 1.582,9.153 1.775,9.587"/>
  <polygon points="8.288,9.293 7.874,9.116 7.794,9.579"/>
  <polygon points="8.702,5.012 8.917,4.597 8.560,4.543"/>
  <polygon points="4.694,2.182 4.312,1.900 4.251,2.356"/>
  <polygon points="3.866,2.081 3.906,1.633 3.420,1.903"/>
  <polygon points="8.288,9.293 8.249,9.666 8.725,9.586"/>
  <polygon points="8.398,8.012 7.964,8.222 8.011,7.765"/>
  <polygon points="2.500,1.900 2.992,1.691 2.577,1.485"/>
  <polygon points="0.716,0.958 1.019,1.276 1.102,0.793"/>
  <polygon points="8.500,10.000 8.725,9.586 8.249,9.666"/>
  <polygon points="10.000,7.000 9.632,6.799 9.623,7.278"/>
  <polygon points="4.820,1.757 4.312,1.900 4.694,2.182"/>
  <polygon points="8.459,1.613 8.689,1.985 9.000,1.635"/>
  <polygon points="3.227,0.365 3.733,0.357 3.468,0.709"/>
  <polygon points="5.517,8.314 5.287,8.753 5.748,8.754"/>
  <polygon points="1.337,1.590 1.019,1.276 0.899,1.746"/>
  <polygon points="8.398,8.012 7.964,8.222 8.359,8.445"/>
  <polygon points="9.000,10.000 9.500,10.000 9.220,9.645"/>
  <polygon points="7.500,10.000 7.794,9.579 7.312,9.664"/>
  <polygon points="1.793,3.179 1.562,2.775 1.433,3.243"/>
  <polygon points="5.048,9.192 5.520,9.175 5.266,9.597"/>
  <polygon points="9.500,0.000 9.208,0.420 9.640,0.381"/>
  <polygon points="3.543,9.244 3.034,9.235 3.268,9.618"/>
  <polygon points="7.791,1.151 7.522,0.767 7.256,1.117"/>
  <polygon points="8.762,8.675 8.707,9.115 9.174,8.886"/>
  <polygon points="3.000,6.500 3.421,6.686 3.434,6.248"/>
  <polygon points="8.674,3.238 8.283,2.901 8.132,3.296"/>
  <polygon points="5.000,10.000 5.266,9.597 4.782,9.608"/>
  <polygon points="8.288,9.293 8.725,9.586 8.707,9.115"/>
  <polygon points="1.237,8.209 1.668,8.352 1.310,8.713"/>
  <polygon points="3.692,7.383 4.081,7.336 3.763,6.926"/>
  <polygon points="0.000,4.500 0.000,5.000 0.393,4.783"/>
  <polygon points="2.762,9.613 2.264,9.602 2.500,10.000"/>
  <polygon points="5.312,1.576 5.325,1.145 4.928,1.323"/>
  <polygon points="3.001,1.282 2.577,1.485 2.992,1.691"/>
  <polygon points="1.310,8.713 1.582,9.153 1.834,8.765"/>
  <polygon points="3.940,4.543 3.424,4.730 3.798,5.012"/>
  <polygon points="2.056,9.186 2.264,9.602 2.542,9.213"/>
  <polygon points="8.702,5.012 9.215,4.859 8.917,4.597"/>
  <polygon points="7.522,0.767 8.029,0.779 7.791,1.151"/>
  <polygon points="8.504,7.200 8.018,7.268 8.329,6.889"/>
  <polygon points="7.500,0.000 7.254,0.389 7.763,0.387"/>
  <polygon points="7.639,3.421 7.732,2.991 7.207,3.190"/>
  <polygon points="10.000,2.500 9.606,2.236 9.608,2.752"/>
  <polygon points="6.594,2.153 6.230,1.963 6.254,2.477"/>
  <polygon points="7.000,10.000 6.971,9.434 6.659,9.645"/>
  <polygon points="0.380,3.810 0.794,4.102 0.755,3.628"/>
  <polygon points="10.000,5.000 10.000,4.500 9.611,4.656"/>
  <polygon points="0.000,10.000 0.500,10.000 0.378,9.636"/>
  <polygon points="0.000,10.000 0.378,9.636 0.000,9.500"/>
  <polygon points="9.500,10.000 9.645,9.630 9.220,9.645"/>
  <polygon points="3.692,7.383 3.353,7.176 3.396,7.686"/>
  <polygon points="9.200,8.454 9.217,8.002 8.797,8.230"/>
  <polygon points="6.250,8.000 6.015,8.370 6.551,8.372"/>
  <polygon points="4.569,9.223 4.063,9.242 4.346,8.858"/>
  <polygon points="0.000,5.500 0.000,6.000 0.387,5.765"/>
  <polygon points="4.569,9.223 4.063,9.242 4.285,9.616"/>
  <polygon points="2.000,4.000 1.594,3.694 1.603,4.193"/>
  <polygon points="2.500,3.100 2.000,3.500 2.500,3.500"/>
  <polygon points="3.000,3.500 2.841,3.245 2.500,3.500"/>
  <polygon points="7.956,1.643 7.791,1.151 7.526,1.457"/>
  <polygon points="9.233,2.539 9.608,2.752 9.606,2.236"/>
  <polygon points="4.303,8.097 4.789,7.996 4.593,8.431"/>
  <polygon points="3.543,9.244 3.778,9.617 4.063,9.242"/>
  <polygon points="9.200,8.454 9.174,8.886 9.604,8.727"/>
  <polygon points="9.217,8.002 9.246,7.544 9.624,7.769"/>
  <polygon points="9.174,8.886 9.568,9.196 9.104,9.284"/>
  <polygon points="1.181,5.820 1.191,5.348 0.784,5.546"/>
  <polygon points="0.791,5.064 0.784,5.546 1.191,5.348"/>
  <polygon points="0.793,2.166 0.407,1.813 0.384,2.304"/>
  <polygon points="2.056,9.186 2.542,9.213 2.338,8.801"/>
  <polygon points="2.822,8.828 2.338,8.801 2.542,9.213"/>
  <polygon points="4.000,10.000 4.500,10.000 4.285,9.616"/>
  <polygon points="9.104,9.284 8.725,9.586 9.220,9.645"/>
  <polygon points="9.523,5.487 10.000,5.500 9.606,5.868"/>
  <polygon points="3.500,10.000 4.000,10.000 3.778,9.617"/>
  <polygon points="8.750,5.500 9.123,5.723 9.121,5.262"/>
  <polygon points="9.189,2.045 9.000,1.635 8.689,1.985"/>
  <polygon points="7.164,2.779 7.732,2.991 7.207,3.190"/>
  <polygon points="3.000,6.500 3.434,6.248 3.000,6.000"/>
  <polygon points="3.826,8.884 3.306,8.867 3.543,9.244"/>
  <polygon points="3.826,8.884 3.306,8.867 3.590,8.523"/>
  <polygon points="9.523,5.487 10.000,5.500 9.601,5.106"/>
  <polygon points="4.500,10.000 5.000,10.000 4.782,9.608"/>
  <polygon points="9.000,0.000 8.743,0.413 9.208,0.420"/>
  <polygon points="7.500,0.000 7.000,0.000 7.254,0.389"/>
  <polygon points="1.542,0.710 1.759,0.353 1.253,0.368"/>
  <polygon points="7.522,0.767 8.029,0.779 7.763,0.387"/>
  <polygon points="8.263,0.396 8.029,0.779 8.512,0.820"/>
  <polygon points="8.560,6.457 8.924,6.378 8.702,5.988"/>
  <polygon points="2.500,1.900 2.577,1.485 2.142,1.627"/>
  <polygon points="6.594,2.153 6.254,2.477 6.627,2.662"/>
  <polygon points="1.238,2.025 1.337,1.590 0.899,1.746"/>
  <polygon points="3.940,6.457 3.421,6.686 3.763,6.926"/>
  <polygon points="1.201,4.392 0.796,4.583 1.198,4.872"/>
  <polygon points="0.791,5.064 1.198,4.872 0.796,4.583"/>
  <polygon points="2.762,9.613 2.264,9.602 2.542,9.213"/>
  <polygon points="1.575,6.965 1.171,7.234 1.589,7.404"/>
  <polygon points="1.190,7.713 1.589,7.404 1.171,7.234"/>
  <polygon points="5.401,2.752 5.762,3.048 5.293,3.190"/>
  <polygon points="1.573,6.539 1.160,6.760 1.167,6.289"/>
  <polygon points="1.575,6.965 1.171,7.234 1.160,6.760"/>
  <polygon points="1.573,6.539 2.000,7.000 1.575,6.965"/>
  <polygon points="2.000,7.000 1.575,6.965 1.589,7.404"/>
  <polygon points="0.000,8.000 0.416,8.249 0.398,7.759"/>
  <polygon points="3.590,8.523 4.104,8.519 3.863,8.178"/>
  <polygon points="8.504,7.200 8.018,7.268 8.408,7.577"/>
  <polygon points="3.590,8.523 4.104,8.519 3.826,8.884"/>
  <polygon points="7.791,1.151 8.242,1.219 8.029,0.779"/>
  <polygon points="7.956,1.643 7.791,1.151 8.242,1.219"/>
  <polygon points="8.877,7.331 8.820,6.846 8.504,7.200"/>
  <polygon points="3.000,8.000 3.444,8.097 3.396,7.686"/>
  <polygon points="3.000,5.500 3.385,5.234 3.000,5.000"/>
  <polygon points="3.000,6.000 3.384,5.755 3.000,5.500"/>
  <polygon points="9.524,0.821 9.640,0.381 9.208,0.420"/>
  <polygon points="8.512,0.820 8.029,0.779 8.242,1.219"/>
  <polygon points="3.000,8.000 3.396,7.686 3.000,7.500"/>
  <polygon points="3.420,1.903 3.906,1.633 3.438,1.499"/>
  <polygon points="1.500,10.000 2.000,10.000 1.775,9.587"/>
  <polygon points="3.866,2.081 3.420,1.903 3.452,2.305"/>
  <polygon points="9.500,0.000 9.000,0.000 9.208,0.420"/>
  <polygon points="3.000,8.000 3.116,8.447 3.444,8.097"/>
  <polygon points="2.056,9.186 1.834,8.765 1.582,9.153"/>
  <polygon points="7.792,2.132 7.956,1.643 8.222,2.040"/>
  <polygon points="5.558,0.799 5.033,0.804 5.306,0.410"/>
  <polygon points="9.246,7.544 8.818,7.775 8.877,7.331"/>
  <polygon points="6.500,10.000 6.659,9.645 6.211,9.592"/>
  <polygon points="8.002,2.545 7.570,2.599 7.732,2.991"/>
  <polygon points="8.002,2.545 8.222,2.040 7.792,2.132"/>
  <polygon points="4.267,0.830 4.623,1.049 4.591,0.585"/>
  <polygon points="2.924,2.076 3.420,1.903 2.992,1.691"/>
  <polygon points="3.000,6.000 3.434,6.248 3.384,5.755"/>
  <polygon points="5.401,2.752 5.495,2.306 5.047,2.464"/>
  <polygon points="5.033,0.804 4.623,1.049 4.928,1.323"/>
  <polygon points="5.033,0.804 4.591,0.585 4.623,1.049"/>
  <polygon points="3.798,5.988 3.384,5.755 3.434,6.248"/>
  <polygon points="8.820,6.846 8.924,6.378 8.560,6.457"/>
  <polygon points="5.401,2.752 5.495,2.306 5.860,2.645"/>
  <polygon points="4.104,8.519 3.826,8.884 4.346,8.858"/>
  <polygon points="5.896,2.191 5.495,2.306 5.860,2.645"/>
  <polygon points="2.500,0.000 2.257,0.345 2.749,0.376"/>
  <polygon points="9.121,5.262 9.601,5.106 9.215,4.859"/>
  <polygon points="3.543,9.244 3.268,9.618 3.778,9.617"/>
  <polygon points="2.000,10.000 2.500,10.000 2.264,9.602"/>
  <polygon points="9.237,4.360 9.215,4.859 9.611,4.656"/>
  <polygon points="8.002,2.545 7.792,2.132 7.570,2.599"/>
  <polygon points="3.866,2.081 3.452,2.305 3.831,2.553"/>
  <polygon points="3.750,5.500 3.384,5.755 3.798,5.988"/>
  <polygon points="3.798,5.012 3.385,5.234 3.750,5.500"/>
  <polygon points="2.762,9.613 3.268,9.618 3.000,10.000"/>
  <polygon points="6.254,0.408 6.017,0.840 5.784,0.402"/>
  <polygon points="2.226,1.165 2.659,1.067 2.473,0.723"/>
  <polygon points="0.758,3.128 0.379,2.808 0.378,3.310"/>
  <polygon points="7.339,2.257 7.570,2.599 7.792,2.132"/>
  <polygon points="3.438,1.499 2.992,1.691 3.420,1.903"/>
  <polygon points="2.762,9.613 3.268,9.618 3.034,9.235"/>
  <polygon points="8.398,8.012 8.359,8.445 8.797,8.230"/>
  <polygon points="9.183,3.429 9.220,3.916 9.604,3.698"/>
  <polygon points="8.329,6.889 8.504,7.200 8.820,6.846"/>
  <polygon points="0.817,9.527 0.430,9.200 0.818,8.952"/>
  <polygon points="4.000,0.000 3.500,0.000 3.733,0.357"/>
  <polygon points="0.000,3.000 0.378,3.310 0.379,2.808"/>
  <polygon points="6.994,0.768 7.256,1.117 7.522,0.767"/>
  <polygon points="5.758,1.274 5.558,0.799 5.325,1.145"/>
  <polygon points="3.590,8.523 3.116,8.447 3.306,8.867"/>
  <polygon points="7.207,3.190 7.164,2.779 6.738,3.048"/>
  <polygon points="2.000,3.500 2.076,2.924 2.500,3.100"/>
  <polygon points="2.500,3.100 2.841,3.245 2.924,2.924"/>
  <polygon points="2.983,0.765 2.473,0.723 2.659,1.067"/>
  <polygon points="7.964,8.222 7.579,8.011 7.499,8.421"/>
  <polygon points="5.758,1.274 6.017,0.840 5.558,0.799"/>
  <polygon points="0.791,5.064 0.796,4.583 0.393,4.783"/>
  <polygon points="0.387,5.765 0.390,5.273 0.000,5.500"/>
  <polygon points="4.171,4.111 3.690,4.328 3.940,4.543"/>
  <polygon points="4.500,10.000 4.782,9.608 4.285,9.616"/>
  <polygon points="9.246,7.544 9.234,7.061 8.877,7.331"/>
  <polygon points="6.224,8.773 6.502,9.208 6.001,9.176"/>
  <polygon points="3.353,7.176 3.763,6.926 3.421,6.686"/>
  <polygon points="1.410,1.140 1.770,1.436 1.821,1.039"/>
  <polygon points="9.246,7.544 9.234,7.061 9.623,7.278"/>
  <polygon points="3.940,6.457 3.763,6.926 4.171,6.889"/>
  <polygon points="9.215,4.859 9.601,5.106 9.611,4.656"/>
  <polygon points="8.877,7.331 8.408,7.577 8.504,7.200"/>
  <polygon points="3.709,3.449 3.330,3.210 3.354,3.721"/>
  <polygon points="9.174,8.886 9.568,9.196 9.604,8.727"/>
  <polygon points="10.000,9.500 10.000,9.000 9.568,9.196"/>
  <polygon points="8.762,8.675 8.797,8.230 8.359,8.445"/>
  <polygon points="4.482,3.732 4.068,3.697 4.171,4.111"/>
  <polygon points="10.000,5.000 9.611,4.656 9.601,5.106"/>
  <polygon points="3.000,7.500 3.396,7.686 3.353,7.176"/>
  <polygon points="6.069,1.588 5.668,1.811 6.230,1.963"/>
  <polygon points="2.500,1.900 2.142,1.627 2.076,2.076"/>
  <polygon points="7.732,2.991 8.283,2.901 8.002,2.545"/>
  <polygon points="8.877,7.331 8.820,6.846 9.234,7.061"/>
  <polygon points="2.056,9.186 1.775,9.587 2.264,9.602"/>
  <polygon points="1.834,8.765 2.169,8.396 1.668,8.352"/>
  <polygon points="5.306,0.410 5.558,0.799 5.784,0.402"/>
  <polygon points="8.750,5.500 8.702,5.988 9.123,5.723"/>
  <polygon points="2.226,1.165 2.659,1.067 2.577,1.485"/>
  <polygon points="6.500,10.000 7.000,10.000 6.659,9.645"/>
  <polygon points="6.971,9.434 7.436,9.267 7.018,9.038"/>
  <polygon points="6.000,0.000 5.784,0.402 6.254,0.408"/>
  <polygon points="8.674,3.238 9.158,2.996 8.754,2.794"/>
  <polygon points="10.000,3.000 10.000,2.500 9.608,2.752"/>
  <polygon points="7.000,10.000 7.500,10.000 7.312,9.664"/>
  <polygon points="3.000,0.000 2.500,0.000 2.749,0.376"/>
  <polygon points="7.732,2.991 8.283,2.901 8.132,3.296"/>
  <polygon points="7.078,8.213 7.579,8.011 7.207,7.810"/>
  <polygon points="8.329,4.111 8.788,4.124 8.442,3.662"/>
  <polygon points="0.818,8.952 0.411,8.722 0.430,9.200"/>
  <polygon points="0.000,9.000 0.430,9.200 0.411,8.722"/>
  <polygon points="0.000,2.000 0.384,2.304 0.407,1.813"/>
  <polygon points="4.928,1.323 4.623,1.049 4.462,1.496"/>
  <polygon points="10.000,4.500 10.000,4.000 9.625,4.181"/>
  <polygon points="3.000,8.000 2.654,8.405 3.116,8.447"/>
  <polygon points="3.500,0.000 3.000,0.000 3.227,0.365"/>
  <polygon points="7.078,8.213 7.579,8.011 7.499,8.421"/>
  <polygon points="8.433,2.439 8.861,2.366 8.689,1.985"/>
  <polygon points="4.104,8.519 4.303,8.097 3.863,8.178"/>
  <polygon points="7.060,1.525 7.256,1.117 6.760,1.186"/>
  <polygon points="1.900,2.500 1.562,2.775 2.076,2.924"/>
  <polygon points="10.000,0.000 9.640,0.381 10.000,0.500"/>
  <polygon points="10.000,0.000 9.500,0.000 9.640,0.381"/>
  <polygon points="8.754,2.794 9.233,2.539 8.861,2.366"/>
  <polygon points="9.226,6.119 8.702,5.988 9.123,5.723"/>
  <polygon points="9.189,2.045 8.689,1.985 8.861,2.366"/>
  <polygon points="10.000,9.500 9.568,9.196 9.645,9.630"/>
  <polygon points="7.042,8.603 7.499,8.421 7.078,8.213"/>
  <polygon points="6.500,0.000 6.000,0.000 6.254,0.408"/>
  <polygon points="10.000,4.500 9.625,4.181 9.611,4.656"/>
  <polygon points="9.595,3.223 9.158,2.996 9.183,3.429"/>
  <polygon points="5.287,8.753 4.831,8.792 5.048,9.192"/>
  <polygon points="9.625,4.181 9.604,3.698 10.000,4.000"/>
  <polygon points="7.060,1.525 6.577,1.635 6.980,1.937"/>
  <polygon points="4.569,9.223 5.048,9.192 4.831,8.792"/>
  <polygon points="3.000,4.500 3.332,4.220 3.000,4.000"/>
  <polygon points="4.500,0.000 4.000,0.000 4.209,0.377"/>
  <polygon points="7.964,8.222 7.499,8.421 7.903,8.661"/>
  <polygon points="7.903,8.661 8.359,8.445 8.309,8.869"/>
  <polygon points="2.000,0.000 1.500,0.000 1.759,0.353"/>
  <polygon points="7.903,8.661 7.874,9.116 7.462,8.845"/>
  <polygon points="3.866,2.081 3.831,2.553 4.251,2.356"/>
  <polygon points="3.100,2.500 3.452,2.305 2.924,2.076"/>
  <polygon points="7.763,0.387 7.254,0.389 7.522,0.767"/>
  <polygon points="8.560,4.543 8.917,4.597 8.788,4.124"/>
  <polygon points="4.548,3.149 4.953,2.930 4.612,2.649"/>
  <polygon points="7.639,3.421 8.132,3.296 7.732,2.991"/>
  <polygon points="7.903,8.661 7.874,9.116 8.309,8.869"/>
  <polygon points="8.288,9.293 8.309,8.869 7.874,9.116"/>
  <polygon points="10.000,9.000 9.604,8.727 9.568,9.196"/>
  <polygon points="9.237,4.360 8.788,4.124 8.917,4.597"/>
  <polygon points="8.000,10.000 8.500,10.000 8.249,9.666"/>
  <polygon points="3.412,2.781 3.452,2.305 3.100,2.500"/>
  <polygon points="8.329,6.889 8.820,6.846 8.560,6.457"/>
  <polygon points="1.296,9.599 1.582,9.153 1.151,9.179"/>
  <polygon points="1.310,8.713 1.151,9.179 1.582,9.153"/>
  <polygon points="9.237,4.360 9.611,4.656 9.625,4.181"/>
  <polygon points="5.033,0.804 4.861,0.349 4.591,0.585"/>
  <polygon points="3.000,4.500 3.424,4.730 3.332,4.220"/>
  <polygon points="3.940,4.543 3.690,4.328 3.424,4.730"/>
  <polygon points="9.234,7.061 9.253,6.610 8.820,6.846"/>
  <polygon points="0.416,8.249 0.854,8.488 0.812,7.997"/>
  <polygon points="0.000,0.500 0.000,1.000 0.375,0.752"/>
  <polygon points="9.217,8.002 9.612,8.249 9.624,7.769"/>
  <polygon points="10.000,8.000 9.624,7.769 9.612,8.249"/>
  <polygon points="8.500,0.000 8.000,0.000 8.263,0.396"/>
  <polygon points="3.866,2.081 4.251,2.356 4.312,1.900"/>
  <polygon points="5.033,0.804 4.928,1.323 5.325,1.145"/>
  <polygon points="1.310,8.713 0.818,8.952 0.854,8.488"/>
  <polygon points="2.924,2.076 3.452,2.305 3.420,1.903"/>
  <polygon points="10.000,8.500 10.000,8.000 9.612,8.249"/>
  <polygon points="5.500,10.000 6.000,10.000 5.743,9.591"/>
  <polygon points="1.000,0.000 0.500,0.000 0.782,0.442"/>
  <polygon points="8.818,7.775 8.797,8.230 9.217,8.002"/>
  <polygon points="2.500,10.000 3.000,10.000 2.762,9.613"/>
  <polygon points="9.220,9.645 9.568,9.196 9.104,9.284"/>
  <polygon points="7.207,7.810 7.579,8.011 7.639,7.579"/>
  <polygon points="4.861,7.579 4.789,7.996 5.293,7.810"/>
  <polygon points="1.167,6.289 1.573,6.539 1.587,6.104"/>
  <polygon points="2.000,6.500 1.587,6.104 1.573,6.539"/>
  <polygon points="9.217,8.002 9.612,8.249 9.200,8.454"/>
  <polygon points="2.983,0.765 3.227,0.365 2.749,0.376"/>
  <polygon points="0.000,1.500 0.000,2.000 0.407,1.813"/>
  <polygon points="6.738,7.952 7.078,8.213 7.207,7.810"/>
  <polygon points="3.000,10.000 3.500,10.000 3.268,9.618"/>
  <polygon points="1.102,0.793 0.782,0.442 1.253,0.368"/>
  <polygon points="3.438,1.499 2.992,1.691 3.001,1.282"/>
  <polygon points="10.000,2.500 10.000,2.000 9.606,2.236"/>
  <polygon points="0.000,9.000 0.000,9.500 0.430,9.200"/>
  <polygon points="6.224,8.773 5.748,8.754 6.001,9.176"/>
  <polygon points="9.220,9.645 9.568,9.196 9.645,9.630"/>
  <polygon points="4.500,0.000 4.209,0.377 4.591,0.585"/>
  <polygon points="0.000,8.000 0.000,8.500 0.416,8.249"/>
  <polygon points="0.000,3.500 0.000,4.000 0.380,3.810"/>
  <polygon points="5.520,9.175 6.001,9.176 5.748,8.754"/>
  <polygon points="5.896,2.191 6.230,1.963 5.668,1.811"/>
  <polygon points="8.754,2.794 9.233,2.539 9.158,2.996"/>
  <polygon points="1.102,0.793 0.782,0.442 0.716,0.958"/>
  <polygon points="0.716,0.958 0.632,1.440 1.019,1.276"/>
  <polygon points="4.593,8.431 4.831,8.792 5.076,8.320"/>
  <polygon points="6.504,0.796 6.746,0.389 6.254,0.408"/>
  <polygon points="5.287,8.753 5.076,8.320 4.831,8.792"/>
  <polygon points="7.456,1.842 7.956,1.643 7.526,1.457"/>
  <polygon points="0.716,0.958 0.375,0.752 0.330,1.230"/>
  <polygon points="10.000,6.500 10.000,6.000 9.620,6.320"/>
  <polygon points="10.000,5.500 10.000,5.000 9.601,5.106"/>
  <polygon points="2.000,3.500 1.594,3.694 2.000,4.000"/>
  <polygon points="9.237,4.360 9.625,4.181 9.220,3.916"/>
  <polygon points="2.924,2.076 2.992,1.691 2.500,1.900"/>
  <polygon points="0.000,1.000 0.330,1.230 0.375,0.752"/>
  <polygon points="6.500,0.000 6.254,0.408 6.746,0.389"/>
  <polygon points="0.000,2.500 0.000,3.000 0.379,2.808"/>
  <polygon points="5.762,7.952 6.015,8.370 6.250,8.000"/>
  <polygon points="1.759,0.353 2.257,0.345 2.035,0.708"/>
  <polygon points="1.770,1.436 2.226,1.165 1.821,1.039"/>
  <polygon points="1.900,2.500 1.581,2.282 1.562,2.775"/>
  <polygon points="3.900,7.772 3.396,7.686 3.444,8.097"/>
  <polygon points="1.000,0.000 0.782,0.442 1.253,0.368"/>
  <polygon points="8.750,5.500 9.121,5.262 8.702,5.012"/>
  <polygon points="3.000,7.500 3.353,7.176 3.000,7.000"/>
  <polygon points="3.100,2.500 2.924,2.924 3.412,2.781"/>
  <polygon points="0.000,5.000 0.000,5.500 0.390,5.273"/>
  <polygon points="2.000,6.500 1.587,6.104 2.000,6.000"/>
  <polygon points="2.000,7.000 1.589,7.404 2.000,7.500"/>
  <polygon points="3.000,3.500 3.354,3.721 3.330,3.210"/>
  <polygon points="2.035,0.708 2.226,1.165 2.473,0.723"/>
  <polygon points="3.736,1.175 3.438,1.499 3.906,1.633"/>
  <polygon points="1.337,1.590 1.019,1.276 1.410,1.140"/>
  <polygon points="5.668,1.811 5.495,2.306 5.182,2.011"/>
  <polygon points="0.812,7.997 1.237,8.209 1.190,7.713"/>
  <polygon points="0.812,7.997 0.854,8.488 1.237,8.209"/>
  <polygon points="8.702,5.012 9.121,5.262 9.215,4.859"/>
  <polygon points="4.569,9.223 4.285,9.616 4.782,9.608"/>
  <polygon points="1.178,2.476 1.562,2.775 1.581,2.282"/>
  <polygon points="7.964,8.222 8.011,7.765 7.579,8.011"/>
  <polygon points="9.121,5.262 9.601,5.106 9.523,5.487"/>
  <polygon points="3.900,7.772 3.444,8.097 3.863,8.178"/>
  <polygon points="2.500,3.100 2.500,3.500 2.841,3.245"/>
  <polygon points="2.000,3.500 2.076,2.924 1.793,3.179"/>
  <polygon points="2.924,2.924 3.330,3.210 3.412,2.781"/>
  <polygon points="9.595,3.223 9.608,2.752 9.158,2.996"/>
  <polygon points="9.233,2.539 9.158,2.996 9.608,2.752"/>
  <polygon points="3.590,8.523 3.444,8.097 3.116,8.447"/>
  <polygon points="1.410,1.140 1.102,0.793 1.019,1.276"/>
  <polygon points="9.234,7.061 9.623,7.278 9.632,6.799"/>
  <polygon points="3.789,3.019 3.412,2.781 3.330,3.210"/>
  <polygon points="3.468,0.709 3.888,0.766 3.733,0.357"/>
  <polygon points="3.888,0.766 4.209,0.377 4.267,0.830"/>
  <polygon points="3.424,4.730 3.690,4.328 3.332,4.220"/>
  <polygon points="3.590,8.523 3.863,8.178 3.444,8.097"/>
  <polygon points="10.000,2.000 9.537,1.726 9.606,2.236"/>
  <polygon points="0.000,4.000 0.394,4.296 0.380,3.810"/>
  <polygon points="8.820,6.846 8.924,6.378 9.253,6.610"/>
  <polygon points="9.253,6.610 9.620,6.320 9.226,6.119"/>
  <polygon points="10.000,6.500 9.620,6.320 9.632,6.799"/>
  <polygon points="2.000,10.000 2.264,9.602 1.775,9.587"/>
  <polygon points="7.462,8.845 7.436,9.267 7.874,9.116"/>
  <polygon points="4.267,0.830 4.591,0.585 4.209,0.377"/>
  <polygon points="7.794,9.579 7.874,9.116 7.436,9.267"/>
  <polygon points="4.569,9.223 4.782,9.608 5.048,9.192"/>
  <polygon points="5.266,9.597 5.048,9.192 4.782,9.608"/>
  <polygon points="0.380,3.810 0.794,4.102 0.394,4.296"/>
  <polygon points="0.000,0.500 0.375,0.752 0.352,0.334"/>
  <polygon points="0.818,8.952 0.817,9.527 1.151,9.179"/>
  <polygon points="1.296,9.599 1.151,9.179 0.817,9.527"/>
  <polygon points="9.237,4.360 8.917,4.597 9.215,4.859"/>
  <polygon points="6.287,1.217 5.758,1.274 6.017,0.840"/>
  <polygon points="0.500,0.000 0.352,0.334 0.782,0.442"/>
  <polygon points="5.047,2.464 4.953,2.930 5.401,2.752"/>
  <polygon points="6.211,9.592 6.659,9.645 6.502,9.208"/>
  <polygon points="6.971,9.434 7.312,9.664 7.436,9.267"/>
  <polygon points="4.820,1.757 4.928,1.323 4.462,1.496"/>
  <polygon points="7.794,9.579 7.436,9.267 7.312,9.664"/>
  <polygon points="5.047,2.464 4.612,2.649 4.953,2.930"/>
  <polygon points="0.782,0.442 0.375,0.752 0.352,0.334"/>
  <polygon points="1.542,0.710 2.035,0.708 1.759,0.353"/>
  <polygon points="3.001,1.282 3.438,1.499 3.325,1.069"/>
  <polygon points="9.226,6.119 8.702,5.988 8.924,6.378"/>
  <polygon points="2.577,1.485 2.226,1.165 2.142,1.627"/>
  <polygon points="0.755,3.628 1.197,3.913 1.120,3.457"/>
  <polygon points="1.770,1.436 2.142,1.627 2.226,1.165"/>
  <polygon points="0.782,0.442 0.375,0.752 0.716,0.958"/>
  <polygon points="9.226,6.119 8.924,6.378 9.253,6.610"/>
  <polygon points="3.736,1.175 3.325,1.069 3.438,1.499"/>
  <polygon points="6.760,1.186 6.577,1.635 6.287,1.217"/>
  <polygon points="7.639,7.579 7.579,8.011 8.011,7.765"/>
  <polygon points="6.994,0.768 7.522,0.767 7.254,0.389"/>
  <polygon points="0.000,9.500 0.378,9.636 0.430,9.200"/>
  <polygon points="6.652,8.798 6.502,9.208 7.018,9.038"/>
  <polygon points="6.971,9.434 7.018,9.038 6.502,9.208"/>
  <polygon points="2.076,2.076 2.142,1.627 1.698,1.862"/>
  <polygon points="3.888,0.766 4.209,0.377 3.733,0.357"/>
  <polygon points="6.971,9.434 6.502,9.208 6.659,9.645"/>
  <polygon points="0.817,9.527 0.430,9.200 0.378,9.636"/>
  <polygon points="0.755,3.628 1.197,3.913 0.794,4.102"/>
  <polygon points="1.770,1.436 1.698,1.862 2.142,1.627"/>
  <polygon points="3.723,3.927 3.332,4.220 3.690,4.328"/>
  <polygon points="4.000,0.000 3.733,0.357 4.209,0.377"/>
  <polygon points="3.500,10.000 3.778,9.617 3.268,9.618"/>
  <polygon points="4.149,1.235 4.462,1.496 4.623,1.049"/>
  <polygon points="3.000,0.000 2.749,0.376 3.227,0.365"/>
  <polygon points="0.000,5.000 0.390,5.273 0.393,4.783"/>
  <polygon points="1.601,7.868 1.190,7.713 1.237,8.209"/>
  <polygon points="1.310,8.713 1.237,8.209 0.854,8.488"/>
  <polygon points="5.633,6.454 5.647,6.874 6.046,6.553"/>
  <polygon points="6.046,6.553 5.647,6.874 6.126,6.995"/>
  <polygon points="6.126,4.005 5.647,4.126 6.045,4.453"/>
  <polygon points="5.234,4.396 4.931,4.786 5.380,4.887"/>
  <polygon points="5.647,4.126 5.632,4.554 6.045,4.453"/>
  <polygon points="5.234,4.396 5.380,4.887 5.632,4.554"/>
  <polygon points="4.931,6.214 5.234,6.604 5.356,6.119"/>
  <polygon points="6.618,6.954 6.913,6.412 6.489,6.540"/>
  <polygon points="5.198,5.284 4.931,4.786 4.770,5.253"/>
  <polygon points="6.458,4.407 6.126,4.005 6.045,4.453"/>
  <polygon points="6.458,4.407 6.126,4.005 6.618,4.046"/>
  <polygon points="5.198,5.284 4.931,4.786 5.380,4.887"/>
  <polygon points="7.287,5.287 6.902,5.600 7.351,5.688"/>
  <polygon points="7.163,6.049 6.902,5.600 6.699,6.044"/>
  <polygon points="5.822,6.081 6.255,6.130 5.990,5.677"/>
  <polygon points="5.909,4.886 5.380,4.887 5.666,5.267"/>
  <polygon points="6.423,5.704 5.990,5.677 6.255,6.130"/>
  <polygon points="6.423,5.704 6.535,5.305 6.125,5.265"/>
  <polygon points="6.255,6.130 6.046,6.553 5.822,6.081"/>
  <polygon points="5.550,5.687 5.822,6.081 5.990,5.677"/>
  <polygon points="6.699,6.044 6.255,6.130 6.489,6.540"/>
  <polygon points="5.550,5.687 5.822,6.081 5.356,6.119"/>
  <polygon points="5.666,5.267 5.198,5.284 5.380,4.887"/>
  <polygon points="6.423,5.704 6.902,5.600 6.535,5.305"/>
  <polygon points="5.822,6.081 5.633,6.454 6.046,6.553"/>
  <polygon points="4.931,6.214 5.356,6.119 5.138,5.726"/>
  <polygon points="6.618,6.954 6.913,6.412 7.070,6.756"/>
  <polygon points="6.126,6.995 6.489,6.540 6.046,6.553"/>
  <polygon points="5.234,6.604 5.633,6.454 5.356,6.119"/>
  <polygon points="5.909,4.886 6.395,4.854 6.045,4.453"/>
  <polygon points="5.909,4.886 6.395,4.854 6.125,5.265"/>
  <polygon points="6.699,6.044 6.489,6.540 6.913,6.412"/>
  <polygon points="5.550,5.687 5.138,5.726 5.356,6.119"/>
  <polygon points="5.822,6.081 5.356,6.119 5.633,6.454"/>
  <polygon points="6.255,6.130 6.046,6.553 6.489,6.540"/>
  <polygon points="5.909,4.886 6.045,4.453 5.632,4.554"/>
  <polygon points="5.909,4.886 5.632,4.554 5.380,4.887"/>
  <polygon points="7.750,5.500 7.351,5.688 7.669,5.987"/>
  <polygon points="6.839,4.614 7.434,4.579 7.070,4.244"/>
  <polygon points="6.395,4.854 6.458,4.407 6.045,4.453"/>
  <polygon points="6.423,5.704 6.699,6.044 6.902,5.600"/>
  <polygon points="6.423,5.704 6.699,6.044 6.255,6.130"/>
  <polygon points="4.770,5.747 4.931,6.214 5.138,5.726"/>
  <polygon points="7.070,6.756 7.434,6.421 6.913,6.412"/>
  <polygon points="5.234,6.604 5.647,6.874 5.633,6.454"/>
  <polygon points="6.126,6.995 6.489,6.540 6.618,6.954"/>
  <polygon points="6.839,4.614 6.618,4.046 7.070,4.244"/>
  <polygon points="4.770,5.253 5.138,5.726 4.770,5.747"/>
  <polygon points="7.669,5.987 7.351,5.688 7.163,6.049"/>
  <polygon points="5.990,5.677 6.125,5.265 6.423,5.704"/>
  <polygon points="5.550,5.687 5.990,5.677 5.666,5.267"/>
  <polygon points="5.666,5.267 5.198,5.284 5.550,5.687"/>
  <polygon points="6.395,4.854 6.125,5.265 6.535,5.305"/>
  <polygon points="7.434,6.421 7.669,5.987 7.163,6.049"/>
  <polygon points="5.909,4.886 5.666,5.267 6.125,5.265"/>
  <polygon points="6.839,4.614 6.618,4.046 6.458,4.407"/>
  <polygon points="6.395,4.854 6.839,4.614 6.458,4.407"/>
  <polygon points="5.647,4.126 5.234,4.396 5.632,4.554"/>
  <polygon points="6.853,5.087 6.395,4.854 6.535,5.305"/>
  <polygon points="6.853,5.087 6.395,4.854 6.839,4.614"/>
  <polygon points="7.750,5.500 7.669,5.013 7.287,5.287"/>
  <polygon points="4.770,5.253 5.138,5.726 5.198,5.284"/>
  <polygon points="7.669,5.013 7.434,4.579 7.204,4.869"/>
  <polygon points="5.990,5.677 6.125,5.265 5.666,5.267"/>
  <polygon points="7.434,6.421 7.163,6.049 6.913,6.412"/>
  <polygon points="7.750,5.500 7.287,5.287 7.351,5.688"/>
  <polygon points="7.163,6.049 6.902,5.600 7.351,5.688"/>
  <polygon points="6.853,5.087 7.204,4.869 6.839,4.614"/>
  <polygon points="7.287,5.287 6.902,5.600 6.853,5.087"/>
  <polygon points="6.839,4.614 7.434,4.579 7.204,4.869"/>
  <polygon points="6.699,6.044 6.913,6.412 7.163,6.049"/>
  <polygon points="5.550,5.687 5.198,5.284 5.138,5.726"/>
  <polygon points="6.853,5.087 6.535,5.305 6.902,5.600"/>
  <polygon points="6.853,5.087 7.287,5.287 7.204,4.869"/>
  <polygon points="7.669,5.013 7.204,4.869 7.287,5.287"/>
</svg>
